<svg xmlns="http://www.w3.org/2000/svg" xmlns:xlink="http://www.w3.org/1999/xlink" width="500" zoomAndPan="magnify" viewBox="0 0 375 374.999991" height="500" preserveAspectRatio="xMidYMid meet" version="1.0"><defs><clipPath id="0169818596"><path d="M 47.023438 163.617188 L 97 163.617188 L 97 211.617188 L 47.023438 211.617188 Z M 47.023438 163.617188 " clip-rule="nonzero"/></clipPath><clipPath id="485001edd0"><path d="M 104 163.617188 L 155 163.617188 L 155 211.617188 L 104 211.617188 Z M 104 163.617188 " clip-rule="nonzero"/></clipPath><clipPath id="4303ffd4b4"><path d="M 162 163.617188 L 213 163.617188 L 213 211.617188 L 162 211.617188 Z M 162 163.617188 " clip-rule="nonzero"/></clipPath><clipPath id="13920c81da"><path d="M 220 163.617188 L 271 163.617188 L 271 211.617188 L 220 211.617188 Z M 220 163.617188 " clip-rule="nonzero"/></clipPath><clipPath id="aebe5095ac"><path d="M 278 163.617188 L 328.273438 163.617188 L 328.273438 211.617188 L 278 211.617188 Z M 278 163.617188 " clip-rule="nonzero"/></clipPath><clipPath id="83a2f8758a"><path d="M 303 163.617188 L 328.273438 163.617188 L 328.273438 211.617188 L 303 211.617188 Z M 303 163.617188 " clip-rule="nonzero"/></clipPath><clipPath id="7995c3f5eb"><path d="M 47.023438 163.617188 L 97 163.617188 L 97 211.617188 L 47.023438 211.617188 Z M 47.023438 163.617188 " clip-rule="nonzero"/></clipPath><clipPath id="babe1892a7"><path d="M 104 163.617188 L 155 163.617188 L 155 211.617188 L 104 211.617188 Z M 104 163.617188 " clip-rule="nonzero"/></clipPath><clipPath id="c3c944e25a"><path d="M 162 163.617188 L 213 163.617188 L 213 211.617188 L 162 211.617188 Z M 162 163.617188 " clip-rule="nonzero"/></clipPath><clipPath id="7f82549820"><path d="M 220 163.617188 L 271 163.617188 L 271 211.617188 L 220 211.617188 Z M 220 163.617188 " clip-rule="nonzero"/></clipPath><clipPath id="6ad42759a9"><path d="M 278 163.617188 L 328.273438 163.617188 L 328.273438 211.617188 L 278 211.617188 Z M 278 163.617188 " clip-rule="nonzero"/></clipPath></defs><g clip-path="url(#0169818596)"><path fill="#ffb901" d="M 71.847656 163.613281 L 77.726562 181.949219 L 96.65625 181.949219 L 81.3125 193.277344 L 87.191406 211.613281 L 71.847656 200.28125 L 56.503906 211.613281 L 62.382812 193.277344 L 47.039062 181.949219 L 65.964844 181.949219 Z M 71.847656 163.613281 " fill-opacity="1" fill-rule="nonzero"/></g><g clip-path="url(#485001edd0)"><path fill="#ffb901" d="M 129.777344 163.613281 L 135.59375 181.949219 L 154.585938 181.949219 L 139.242188 193.277344 L 145.125 211.613281 L 129.777344 200.28125 L 114.433594 211.613281 L 120.246094 193.277344 L 104.902344 181.949219 L 123.898438 181.949219 Z M 129.777344 163.613281 " fill-opacity="1" fill-rule="nonzero"/></g><g clip-path="url(#4303ffd4b4)"><path fill="#ffb901" d="M 187.644531 163.613281 L 193.523438 181.949219 L 212.453125 181.949219 L 197.105469 193.277344 L 202.988281 211.613281 L 187.644531 200.28125 L 172.300781 211.613281 L 178.179688 193.277344 L 162.835938 181.949219 L 181.761719 181.949219 Z M 187.644531 163.613281 " fill-opacity="1" fill-rule="nonzero"/></g><g clip-path="url(#13920c81da)"><path fill="#ffb901" d="M 245.574219 163.613281 L 251.390625 181.949219 L 270.382812 181.949219 L 255.039062 193.277344 L 260.917969 211.613281 L 245.574219 200.28125 L 230.230469 211.613281 L 236.042969 193.277344 L 220.699219 181.949219 L 239.695312 181.949219 Z M 245.574219 163.613281 " fill-opacity="1" fill-rule="nonzero"/></g><g clip-path="url(#aebe5095ac)"><path fill="#ffb901" d="M 303.441406 163.613281 L 309.320312 181.949219 L 328.25 181.949219 L 312.902344 193.277344 L 318.785156 211.613281 L 303.441406 200.28125 L 288.09375 211.613281 L 293.976562 193.277344 L 278.632812 181.949219 L 297.558594 181.949219 Z M 303.441406 163.613281 " fill-opacity="1" fill-rule="nonzero"/></g><g clip-path="url(#83a2f8758a)"><path fill="#dcdcdc" d="M 318.785156 211.613281 L 312.902344 193.277344 L 328.25 181.949219 L 309.320312 181.949219 L 303.441406 163.613281 L 303.441406 200.28125 Z M 318.785156 211.613281 " fill-opacity="1" fill-rule="nonzero"/></g><g clip-path="url(#7995c3f5eb)"><path fill="#ffb901" d="M 71.84375 163.621094 L 77.726562 181.957031 L 96.652344 181.957031 L 81.308594 193.285156 L 87.1875 211.621094 L 71.84375 200.292969 L 56.5 211.621094 L 62.378906 193.285156 L 47.035156 181.957031 L 65.960938 181.957031 Z M 71.84375 163.621094 " fill-opacity="1" fill-rule="nonzero"/></g><g clip-path="url(#babe1892a7)"><path fill="#ffb901" d="M 129.777344 163.621094 L 135.589844 181.957031 L 154.585938 181.957031 L 139.238281 193.285156 L 145.121094 211.621094 L 129.777344 200.292969 L 114.429688 211.621094 L 120.242188 193.285156 L 104.898438 181.957031 L 123.894531 181.957031 Z M 129.777344 163.621094 " fill-opacity="1" fill-rule="nonzero"/></g><g clip-path="url(#c3c944e25a)"><path fill="#ffb901" d="M 187.640625 163.621094 L 193.523438 181.957031 L 212.449219 181.957031 L 197.105469 193.285156 L 202.984375 211.621094 L 187.640625 200.292969 L 172.292969 211.621094 L 178.175781 193.285156 L 162.832031 181.957031 L 181.757812 181.957031 Z M 187.640625 163.621094 " fill-opacity="1" fill-rule="nonzero"/></g><g clip-path="url(#7f82549820)"><path fill="#ffb901" d="M 245.574219 163.621094 L 251.386719 181.957031 L 270.378906 181.957031 L 255.035156 193.285156 L 260.917969 211.621094 L 245.574219 200.292969 L 230.226562 211.621094 L 236.039062 193.285156 L 220.695312 181.957031 L 239.691406 181.957031 Z M 245.574219 163.621094 " fill-opacity="1" fill-rule="nonzero"/></g><g clip-path="url(#6ad42759a9)"><path fill="#ffb901" d="M 303.4375 163.621094 L 309.316406 181.957031 L 328.246094 181.957031 L 312.898438 193.285156 L 318.78125 211.621094 L 303.4375 200.292969 L 288.089844 211.621094 L 293.972656 193.285156 L 278.628906 181.957031 L 297.554688 181.957031 Z M 303.4375 163.621094 " fill-opacity="1" fill-rule="nonzero"/></g></svg>