<svg xmlns="http://www.w3.org/2000/svg" xmlns:xlink="http://www.w3.org/1999/xlink" width="500" zoomAndPan="magnify" viewBox="0 0 375 374.999991" height="500" preserveAspectRatio="xMidYMid meet" version="1.0"><defs><clipPath id="a5a35219f5"><path d="M 47.023438 163.617188 L 97 163.617188 L 97 211.617188 L 47.023438 211.617188 Z M 47.023438 163.617188 " clip-rule="nonzero"/></clipPath><clipPath id="7ab8fd3507"><path d="M 104 163.617188 L 155 163.617188 L 155 211.617188 L 104 211.617188 Z M 104 163.617188 " clip-rule="nonzero"/></clipPath><clipPath id="b89b58649c"><path d="M 162 163.617188 L 213 163.617188 L 213 211.617188 L 162 211.617188 Z M 162 163.617188 " clip-rule="nonzero"/></clipPath><clipPath id="f9b0c04e4e"><path d="M 220 163.617188 L 271 163.617188 L 271 211.617188 L 220 211.617188 Z M 220 163.617188 " clip-rule="nonzero"/></clipPath><clipPath id="34764df6fb"><path d="M 278 163.617188 L 328.273438 163.617188 L 328.273438 211.617188 L 278 211.617188 Z M 278 163.617188 " clip-rule="nonzero"/></clipPath><clipPath id="793eea5c3e"><path d="M 303 163.617188 L 328.273438 163.617188 L 328.273438 211.617188 L 303 211.617188 Z M 303 163.617188 " clip-rule="nonzero"/></clipPath><clipPath id="61faa8ada4"><path d="M 47.023438 163.617188 L 97 163.617188 L 97 211.617188 L 47.023438 211.617188 Z M 47.023438 163.617188 " clip-rule="nonzero"/></clipPath><clipPath id="0b04ca5af9"><path d="M 104 163.617188 L 155 163.617188 L 155 211.617188 L 104 211.617188 Z M 104 163.617188 " clip-rule="nonzero"/></clipPath><clipPath id="84f245fab4"><path d="M 162 163.617188 L 213 163.617188 L 213 211.617188 L 162 211.617188 Z M 162 163.617188 " clip-rule="nonzero"/></clipPath><clipPath id="ad6c420c50"><path d="M 220 163.617188 L 271 163.617188 L 271 211.617188 L 220 211.617188 Z M 220 163.617188 " clip-rule="nonzero"/></clipPath><clipPath id="8b99f8c397"><path d="M 278 163.617188 L 328 163.617188 L 328 211.617188 L 278 211.617188 Z M 278 163.617188 " clip-rule="nonzero"/></clipPath></defs><g clip-path="url(#a5a35219f5)"><path fill="#ffb901" d="M 71.847656 163.613281 L 77.726562 181.949219 L 96.65625 181.949219 L 81.3125 193.277344 L 87.191406 211.613281 L 71.847656 200.28125 L 56.503906 211.613281 L 62.382812 193.277344 L 47.039062 181.949219 L 65.964844 181.949219 Z M 71.847656 163.613281 " fill-opacity="1" fill-rule="nonzero"/></g><g clip-path="url(#7ab8fd3507)"><path fill="#ffb901" d="M 129.777344 163.613281 L 135.59375 181.949219 L 154.585938 181.949219 L 139.242188 193.277344 L 145.125 211.613281 L 129.777344 200.28125 L 114.433594 211.613281 L 120.246094 193.277344 L 104.902344 181.949219 L 123.898438 181.949219 Z M 129.777344 163.613281 " fill-opacity="1" fill-rule="nonzero"/></g><g clip-path="url(#b89b58649c)"><path fill="#ffb901" d="M 187.644531 163.613281 L 193.523438 181.949219 L 212.453125 181.949219 L 197.105469 193.277344 L 202.988281 211.613281 L 187.644531 200.28125 L 172.300781 211.613281 L 178.179688 193.277344 L 162.835938 181.949219 L 181.761719 181.949219 Z M 187.644531 163.613281 " fill-opacity="1" fill-rule="nonzero"/></g><g clip-path="url(#f9b0c04e4e)"><path fill="#ffb901" d="M 245.574219 163.613281 L 251.390625 181.949219 L 270.382812 181.949219 L 255.039062 193.277344 L 260.917969 211.613281 L 245.574219 200.28125 L 230.230469 211.613281 L 236.042969 193.277344 L 220.699219 181.949219 L 239.695312 181.949219 Z M 245.574219 163.613281 " fill-opacity="1" fill-rule="nonzero"/></g><g clip-path="url(#34764df6fb)"><path fill="#ffb901" d="M 303.441406 163.613281 L 309.320312 181.949219 L 328.25 181.949219 L 312.902344 193.277344 L 318.785156 211.613281 L 303.441406 200.28125 L 288.09375 211.613281 L 293.976562 193.277344 L 278.632812 181.949219 L 297.558594 181.949219 Z M 303.441406 163.613281 " fill-opacity="1" fill-rule="nonzero"/></g><g clip-path="url(#793eea5c3e)"><path fill="#dcdcdc" d="M 318.785156 211.613281 L 312.902344 193.277344 L 328.25 181.949219 L 309.320312 181.949219 L 303.441406 163.613281 L 303.441406 200.28125 Z M 318.785156 211.613281 " fill-opacity="1" fill-rule="nonzero"/></g><g clip-path="url(#61faa8ada4)"><path fill="#069f56" d="M 71.816406 163.621094 L 77.691406 181.863281 L 96.597656 181.863281 L 81.269531 193.136719 L 87.144531 211.375 L 71.816406 200.105469 L 56.488281 211.375 L 62.363281 193.136719 L 47.035156 181.863281 L 65.941406 181.863281 Z M 71.816406 163.621094 " fill-opacity="1" fill-rule="nonzero"/></g><g clip-path="url(#0b04ca5af9)"><path fill="#069f56" d="M 129.6875 163.621094 L 135.492188 181.863281 L 154.46875 181.863281 L 139.140625 193.136719 L 145.015625 211.375 L 129.6875 200.105469 L 114.359375 211.375 L 120.164062 193.136719 L 104.835938 181.863281 L 123.8125 181.863281 Z M 129.6875 163.621094 " fill-opacity="1" fill-rule="nonzero"/></g><g clip-path="url(#84f245fab4)"><path fill="#069f56" d="M 187.488281 163.621094 L 193.363281 181.863281 L 212.269531 181.863281 L 196.941406 193.136719 L 202.816406 211.375 L 187.488281 200.105469 L 172.160156 211.375 L 178.035156 193.136719 L 162.707031 181.863281 L 181.613281 181.863281 Z M 187.488281 163.621094 " fill-opacity="1" fill-rule="nonzero"/></g><g clip-path="url(#ad6c420c50)"><path fill="#069f56" d="M 245.355469 163.621094 L 251.164062 181.863281 L 270.140625 181.863281 L 254.8125 193.136719 L 260.683594 211.375 L 245.355469 200.105469 L 230.027344 211.375 L 235.835938 193.136719 L 220.507812 181.863281 L 239.480469 181.863281 Z M 245.355469 163.621094 " fill-opacity="1" fill-rule="nonzero"/></g><g clip-path="url(#8b99f8c397)"><path fill="#069f56" d="M 303.160156 163.621094 L 309.03125 181.863281 L 327.941406 181.863281 L 312.613281 193.136719 L 318.488281 211.375 L 303.160156 200.105469 L 287.832031 211.375 L 293.707031 193.136719 L 278.375 181.863281 L 297.285156 181.863281 Z M 303.160156 163.621094 " fill-opacity="1" fill-rule="nonzero"/></g></svg>