<svg xmlns="http://www.w3.org/2000/svg" xmlns:xlink="http://www.w3.org/1999/xlink" zoomAndPan="magnify" preserveAspectRatio="xMidYMid meet" version="1.0" viewBox="47.02 163.61 281.25 48"><defs><clipPath id="1fedb267f3"><path d="M 47.023438 163.617188 L 97 163.617188 L 97 211.617188 L 47.023438 211.617188 Z M 47.023438 163.617188 " clip-rule="nonzero"/></clipPath><clipPath id="669196734c"><path d="M 104 163.617188 L 155 163.617188 L 155 211.617188 L 104 211.617188 Z M 104 163.617188 " clip-rule="nonzero"/></clipPath><clipPath id="38ca3781c2"><path d="M 162 163.617188 L 213 163.617188 L 213 211.617188 L 162 211.617188 Z M 162 163.617188 " clip-rule="nonzero"/></clipPath><clipPath id="2be11a1553"><path d="M 220 163.617188 L 271 163.617188 L 271 211.617188 L 220 211.617188 Z M 220 163.617188 " clip-rule="nonzero"/></clipPath><clipPath id="206ad19f5d"><path d="M 278 163.617188 L 328.273438 163.617188 L 328.273438 211.617188 L 278 211.617188 Z M 278 163.617188 " clip-rule="nonzero"/></clipPath><clipPath id="d2b7242eee"><path d="M 303 163.617188 L 328.273438 163.617188 L 328.273438 211.617188 L 303 211.617188 Z M 303 163.617188 " clip-rule="nonzero"/></clipPath><clipPath id="de13509e85"><path d="M 47.023438 163.617188 L 97 163.617188 L 97 211.617188 L 47.023438 211.617188 Z M 47.023438 163.617188 " clip-rule="nonzero"/></clipPath><clipPath id="b9536b958e"><path d="M 104 163.617188 L 155 163.617188 L 155 211.617188 L 104 211.617188 Z M 104 163.617188 " clip-rule="nonzero"/></clipPath><clipPath id="1454e0a4b1"><path d="M 162 163.617188 L 213 163.617188 L 213 211.617188 L 162 211.617188 Z M 162 163.617188 " clip-rule="nonzero"/></clipPath><clipPath id="b07dba31b7"><path d="M 220 163.617188 L 271 163.617188 L 271 211.617188 L 220 211.617188 Z M 220 163.617188 " clip-rule="nonzero"/></clipPath><clipPath id="dd389c7709"><path d="M 278 163.617188 L 328.273438 163.617188 L 328.273438 211.617188 L 278 211.617188 Z M 278 163.617188 " clip-rule="nonzero"/></clipPath><clipPath id="fbf55de7a0"><path d="M 303 163.617188 L 328.273438 163.617188 L 328.273438 211.617188 L 303 211.617188 Z M 303 163.617188 " clip-rule="nonzero"/></clipPath></defs><g clip-path="url(#1fedb267f3)"><path fill="#ffb901" d="M 71.847656 163.613281 L 77.726562 181.949219 L 96.65625 181.949219 L 81.3125 193.277344 L 87.191406 211.613281 L 71.847656 200.28125 L 56.503906 211.613281 L 62.382812 193.277344 L 47.039062 181.949219 L 65.964844 181.949219 Z M 71.847656 163.613281 " fill-opacity="1" fill-rule="nonzero"/></g><g clip-path="url(#669196734c)"><path fill="#ffb901" d="M 129.777344 163.613281 L 135.59375 181.949219 L 154.585938 181.949219 L 139.242188 193.277344 L 145.125 211.613281 L 129.777344 200.28125 L 114.433594 211.613281 L 120.246094 193.277344 L 104.902344 181.949219 L 123.898438 181.949219 Z M 129.777344 163.613281 " fill-opacity="1" fill-rule="nonzero"/></g><g clip-path="url(#38ca3781c2)"><path fill="#ffb901" d="M 187.644531 163.613281 L 193.523438 181.949219 L 212.453125 181.949219 L 197.105469 193.277344 L 202.988281 211.613281 L 187.644531 200.28125 L 172.300781 211.613281 L 178.179688 193.277344 L 162.835938 181.949219 L 181.761719 181.949219 Z M 187.644531 163.613281 " fill-opacity="1" fill-rule="nonzero"/></g><g clip-path="url(#2be11a1553)"><path fill="#ffb901" d="M 245.574219 163.613281 L 251.390625 181.949219 L 270.382812 181.949219 L 255.039062 193.277344 L 260.917969 211.613281 L 245.574219 200.28125 L 230.230469 211.613281 L 236.042969 193.277344 L 220.699219 181.949219 L 239.695312 181.949219 Z M 245.574219 163.613281 " fill-opacity="1" fill-rule="nonzero"/></g><g clip-path="url(#206ad19f5d)"><path fill="#ffb901" d="M 303.441406 163.613281 L 309.320312 181.949219 L 328.25 181.949219 L 312.902344 193.277344 L 318.785156 211.613281 L 303.441406 200.28125 L 288.09375 211.613281 L 293.976562 193.277344 L 278.632812 181.949219 L 297.558594 181.949219 Z M 303.441406 163.613281 " fill-opacity="1" fill-rule="nonzero"/></g><g clip-path="url(#d2b7242eee)"><path fill="#dcdcdc" d="M 318.785156 211.613281 L 312.902344 193.277344 L 328.25 181.949219 L 309.320312 181.949219 L 303.441406 163.613281 L 303.441406 200.28125 Z M 318.785156 211.613281 " fill-opacity="1" fill-rule="nonzero"/></g><g clip-path="url(#de13509e85)"><path fill="#ffb901" d="M 71.847656 163.613281 L 77.726562 181.949219 L 96.65625 181.949219 L 81.3125 193.277344 L 87.191406 211.613281 L 71.847656 200.28125 L 56.503906 211.613281 L 62.382812 193.277344 L 47.039062 181.949219 L 65.964844 181.949219 Z M 71.847656 163.613281 " fill-opacity="1" fill-rule="nonzero"/></g><g clip-path="url(#b9536b958e)"><path fill="#ffb901" d="M 129.777344 163.613281 L 135.59375 181.949219 L 154.585938 181.949219 L 139.242188 193.277344 L 145.125 211.613281 L 129.777344 200.28125 L 114.433594 211.613281 L 120.246094 193.277344 L 104.902344 181.949219 L 123.898438 181.949219 Z M 129.777344 163.613281 " fill-opacity="1" fill-rule="nonzero"/></g><g clip-path="url(#1454e0a4b1)"><path fill="#ffb901" d="M 187.644531 163.613281 L 193.523438 181.949219 L 212.453125 181.949219 L 197.105469 193.277344 L 202.988281 211.613281 L 187.644531 200.28125 L 172.300781 211.613281 L 178.179688 193.277344 L 162.835938 181.949219 L 181.761719 181.949219 Z M 187.644531 163.613281 " fill-opacity="1" fill-rule="nonzero"/></g><g clip-path="url(#b07dba31b7)"><path fill="#ffb901" d="M 245.574219 163.613281 L 251.390625 181.949219 L 270.382812 181.949219 L 255.039062 193.277344 L 260.917969 211.613281 L 245.574219 200.28125 L 230.230469 211.613281 L 236.042969 193.277344 L 220.699219 181.949219 L 239.695312 181.949219 Z M 245.574219 163.613281 " fill-opacity="1" fill-rule="nonzero"/></g><g clip-path="url(#dd389c7709)"><path fill="#ffb901" d="M 303.441406 163.613281 L 309.320312 181.949219 L 328.25 181.949219 L 312.902344 193.277344 L 318.785156 211.613281 L 303.441406 200.28125 L 288.09375 211.613281 L 293.976562 193.277344 L 278.632812 181.949219 L 297.558594 181.949219 Z M 303.441406 163.613281 " fill-opacity="1" fill-rule="nonzero"/></g><g clip-path="url(#fbf55de7a0)"><path fill="#dcdcdc" d="M 318.785156 211.613281 L 312.902344 193.277344 L 328.25 181.949219 L 309.320312 181.949219 L 303.441406 163.613281 L 303.441406 200.28125 Z M 318.785156 211.613281 " fill-opacity="1" fill-rule="nonzero"/></g></svg>