<svg xmlns="http://www.w3.org/2000/svg" xmlns:xlink="http://www.w3.org/1999/xlink" width="500" zoomAndPan="magnify" viewBox="0 0 375 374.999991" height="500" preserveAspectRatio="xMidYMid meet" version="1.0"><defs><clipPath id="d82e222f96"><path d="M 3.464844 3.464844 L 365 3.464844 L 365 212 L 3.464844 212 Z M 3.464844 3.464844 " clip-rule="nonzero"/></clipPath><clipPath id="bb0e9a138f"><path d="M 163 11 L 371.714844 11 L 371.714844 371.714844 L 163 371.714844 Z M 163 11 " clip-rule="nonzero"/></clipPath><clipPath id="eb3ff16a95"><path d="M 3.464844 3.464844 L 365 3.464844 L 365 212 L 3.464844 212 Z M 3.464844 3.464844 " clip-rule="nonzero"/></clipPath><clipPath id="f7e295c52d"><path d="M 163 11 L 371.714844 11 L 371.714844 371.714844 L 163 371.714844 Z M 163 11 " clip-rule="nonzero"/></clipPath></defs><g clip-path="url(#d82e222f96)"><path fill="#000000" d="M 3.488281 128.3125 L 156.097656 211.550781 L 364.195312 3.453125 Z M 3.488281 128.3125 " fill-opacity="1" fill-rule="nonzero"/></g><g clip-path="url(#bb0e9a138f)"><path fill="#000000" d="M 163.675781 219.132812 L 246.917969 371.738281 L 371.777344 11.03125 Z M 163.675781 219.132812 " fill-opacity="1" fill-rule="nonzero"/></g><g clip-path="url(#eb3ff16a95)"><path fill="#000000" d="M 3.488281 128.3125 L 156.097656 211.550781 L 364.195312 3.453125 Z M 3.488281 128.3125 " fill-opacity="1" fill-rule="nonzero"/></g><g clip-path="url(#f7e295c52d)"><path fill="#000000" d="M 163.675781 219.132812 L 246.917969 371.738281 L 371.777344 11.03125 Z M 163.675781 219.132812 " fill-opacity="1" fill-rule="nonzero"/></g></svg>