<svg xmlns="http://www.w3.org/2000/svg" xmlns:xlink="http://www.w3.org/1999/xlink" width="500" zoomAndPan="magnify" viewBox="0 0 375 374.999991" height="500" preserveAspectRatio="xMidYMid meet" version="1.0"><path fill="#000000" d="M 279.554688 77.179688 C 282.660156 77.175781 285.753906 77.011719 288.839844 76.6875 C 291.929688 76.363281 294.988281 75.882812 298.027344 75.242188 C 301.066406 74.605469 304.0625 73.8125 307.015625 72.867188 C 309.972656 71.917969 312.871094 70.824219 315.714844 69.578125 C 318.558594 68.332031 321.328125 66.945312 324.03125 65.414062 C 326.730469 63.882812 329.34375 62.21875 331.871094 60.417969 C 334.402344 58.621094 336.832031 56.695312 339.160156 54.644531 C 341.492188 52.597656 343.710938 50.433594 345.820312 48.152344 L 357.632812 35.3125 C 358.570312 34.300781 359.339844 33.179688 359.949219 31.941406 C 360.554688 30.707031 360.972656 29.410156 361.203125 28.054688 C 361.429688 26.695312 361.457031 25.332031 361.289062 23.96875 C 361.117188 22.601562 360.757812 21.289062 360.203125 20.027344 C 359.664062 18.773438 358.953125 17.625 358.074219 16.582031 C 357.195312 15.539062 356.1875 14.640625 355.042969 13.894531 C 353.902344 13.144531 352.679688 12.578125 351.371094 12.191406 C 350.0625 11.800781 348.726562 11.609375 347.359375 11.617188 L 67.214844 11.617188 C 65.761719 11.613281 64.308594 11.667969 62.859375 11.773438 C 61.410156 11.878906 59.96875 12.039062 58.53125 12.253906 C 57.09375 12.464844 55.664062 12.730469 54.246094 13.046875 C 52.828125 13.367188 51.425781 13.734375 50.035156 14.15625 C 48.644531 14.578125 47.269531 15.050781 45.914062 15.574219 C 44.558594 16.09375 43.222656 16.667969 41.910156 17.289062 C 40.597656 17.910156 39.308594 18.578125 38.042969 19.292969 C 36.777344 20.011719 35.542969 20.773438 34.332031 21.578125 C 33.125 22.386719 31.949219 23.238281 30.800781 24.128906 C 29.65625 25.023438 28.546875 25.960938 27.46875 26.9375 C 26.390625 27.910156 25.351562 28.925781 24.351562 29.976562 C 23.347656 31.03125 22.386719 32.117188 21.464844 33.242188 C 20.542969 34.367188 19.664062 35.523438 18.828125 36.710938 C 17.992188 37.898438 17.199219 39.117188 16.453125 40.363281 C 15.707031 41.609375 15.003906 42.882812 14.351562 44.179688 C 13.699219 45.476562 13.09375 46.796875 12.539062 48.140625 C 11.984375 49.484375 11.476562 50.84375 11.023438 52.226562 C 10.566406 53.605469 10.164062 55 9.8125 56.410156 C 9.457031 57.820312 9.160156 59.242188 8.910156 60.671875 C 8.664062 62.105469 8.46875 63.542969 8.328125 64.992188 C 8.183594 66.4375 8.097656 67.886719 8.0625 69.339844 C 8.027344 70.792969 8.046875 72.246094 8.117188 73.695312 C 8.191406 75.148438 8.316406 76.59375 8.496094 78.035156 C 8.671875 79.480469 8.90625 80.914062 9.191406 82.335938 C 9.472656 83.761719 9.8125 85.175781 10.199219 86.574219 C 10.589844 87.976562 11.027344 89.359375 11.519531 90.726562 C 12.007812 92.097656 12.550781 93.445312 13.140625 94.773438 C 13.730469 96.101562 14.367188 97.40625 15.054688 98.683594 C 15.738281 99.964844 16.472656 101.21875 17.25 102.449219 C 18.03125 103.675781 18.851562 104.871094 19.71875 106.039062 C 20.585938 107.203125 21.496094 108.335938 22.445312 109.4375 C 23.394531 110.535156 24.386719 111.597656 25.414062 112.625 L 108.886719 196.101562 L 84.617188 184.996094 C 83.234375 184.386719 81.824219 183.84375 80.390625 183.375 C 78.953125 182.902344 77.5 182.503906 76.027344 182.175781 C 74.550781 181.847656 73.066406 181.59375 71.566406 181.410156 C 70.066406 181.226562 68.5625 181.117188 67.050781 181.082031 C 65.542969 181.046875 64.035156 181.085938 62.527344 181.199219 C 61.023438 181.3125 59.527344 181.5 58.039062 181.757812 C 56.550781 182.015625 55.078125 182.347656 53.621094 182.753906 C 52.167969 183.15625 50.734375 183.628906 49.328125 184.171875 C 47.917969 184.71875 46.539062 185.328125 45.191406 186.007812 C 43.839844 186.6875 42.527344 187.429688 41.253906 188.238281 C 39.976562 189.046875 38.742188 189.914062 37.550781 190.84375 C 36.359375 191.773438 35.21875 192.757812 34.121094 193.796875 C 33.027344 194.835938 31.988281 195.929688 31 197.074219 C 30.011719 198.214844 29.082031 199.402344 28.210938 200.636719 C 27.339844 201.871094 26.53125 203.144531 25.785156 204.457031 C 25.039062 205.769531 24.359375 207.117188 23.746094 208.496094 C 23.566406 208.894531 23.433594 209.308594 23.339844 209.734375 C 23.25 210.160156 23.199219 210.59375 23.195312 211.027344 C 23.191406 211.464844 23.230469 211.898438 23.3125 212.328125 C 23.398438 212.753906 23.523438 213.171875 23.691406 213.574219 C 23.859375 213.976562 24.066406 214.355469 24.3125 214.71875 C 24.558594 215.078125 24.839844 215.410156 25.152344 215.714844 C 25.464844 216.015625 25.808594 216.285156 26.175781 216.519531 C 26.542969 216.753906 26.933594 216.945312 27.339844 217.101562 L 73.890625 237.777344 L 30.164062 255.628906 C 29.367188 255.949219 28.664062 256.410156 28.050781 257.007812 C 27.441406 257.609375 26.96875 258.308594 26.632812 259.097656 C 26.304688 259.886719 26.140625 260.710938 26.140625 261.570312 C 26.140625 262.425781 26.304688 263.25 26.632812 264.042969 C 27.492188 266.15625 28.503906 268.199219 29.664062 270.164062 C 30.824219 272.128906 32.125 273.996094 33.566406 275.769531 C 35.003906 277.542969 36.566406 279.199219 38.25 280.738281 C 39.9375 282.277344 41.726562 283.6875 43.621094 284.960938 C 45.515625 286.234375 47.492188 287.363281 49.554688 288.34375 C 51.617188 289.324219 53.738281 290.144531 55.921875 290.808594 C 58.105469 291.476562 60.328125 291.976562 62.585938 292.3125 C 64.84375 292.644531 67.113281 292.8125 69.398438 292.808594 C 75.429688 292.820312 81.230469 291.667969 86.796875 289.34375 L 140.414062 267.574219 L 209.375 298.011719 L 151.972656 298.011719 C 150.792969 298.011719 149.632812 298.15625 148.488281 298.445312 C 147.347656 298.734375 146.257812 299.15625 145.21875 299.71875 C 144.183594 300.277344 143.230469 300.957031 142.363281 301.757812 C 141.496094 302.554688 140.738281 303.445312 140.09375 304.433594 C 139.441406 305.429688 138.921875 306.496094 138.535156 307.621094 C 138.148438 308.75 137.90625 309.90625 137.804688 311.09375 C 137.703125 312.28125 137.75 313.464844 137.941406 314.640625 C 138.132812 315.816406 138.464844 316.953125 138.9375 318.046875 L 141.699219 324.46875 L 90.90625 324.46875 L 90.90625 311.945312 C 90.90625 311.03125 90.820312 310.125 90.640625 309.226562 C 90.460938 308.328125 90.199219 307.457031 89.847656 306.613281 C 89.496094 305.769531 89.066406 304.964844 88.558594 304.203125 C 88.050781 303.441406 87.472656 302.738281 86.828125 302.09375 C 86.179688 301.445312 85.476562 300.867188 84.714844 300.359375 C 83.953125 299.851562 83.152344 299.421875 82.304688 299.070312 C 81.460938 298.722656 80.589844 298.457031 79.691406 298.277344 C 78.796875 298.101562 77.890625 298.011719 76.972656 298.011719 C 71.582031 298 66.300781 298.757812 61.132812 300.289062 C 55.960938 301.816406 51.121094 304.054688 46.601562 307 C 42.117188 309.902344 38.125 313.371094 34.632812 317.414062 C 31.136719 321.453125 28.277344 325.902344 26.054688 330.761719 L 21.5625 340.648438 C 21.285156 341.265625 21.046875 341.898438 20.847656 342.542969 C 20.652344 343.1875 20.492188 343.84375 20.375 344.511719 C 20.261719 345.175781 20.183594 345.847656 20.152344 346.519531 C 20.117188 347.195312 20.125 347.871094 20.175781 348.542969 C 20.226562 349.21875 20.320312 349.886719 20.453125 350.546875 C 20.585938 351.210938 20.757812 351.863281 20.972656 352.503906 C 21.1875 353.144531 21.441406 353.769531 21.734375 354.378906 C 22.027344 354.988281 22.355469 355.574219 22.71875 356.144531 C 23.085938 356.710938 23.484375 357.257812 23.917969 357.773438 C 24.347656 358.292969 24.8125 358.785156 25.304688 359.246094 C 25.800781 359.707031 26.320312 360.136719 26.867188 360.53125 C 27.414062 360.929688 27.984375 361.289062 28.574219 361.617188 C 29.167969 361.941406 29.777344 362.230469 30.402344 362.480469 C 31.03125 362.730469 31.671875 362.941406 32.328125 363.109375 C 32.980469 363.28125 33.640625 363.410156 34.3125 363.5 C 34.980469 363.585938 35.652344 363.632812 36.328125 363.636719 L 300.875 363.636719 C 302.324219 363.636719 303.777344 363.582031 305.222656 363.472656 C 306.671875 363.367188 308.113281 363.203125 309.550781 362.988281 C 310.988281 362.777344 312.414062 362.507812 313.828125 362.191406 C 315.246094 361.871094 316.648438 361.5 318.039062 361.078125 C 319.429688 360.65625 320.800781 360.183594 322.15625 359.65625 C 323.507812 359.132812 324.84375 358.5625 326.15625 357.941406 C 327.46875 357.320312 328.753906 356.648438 330.019531 355.933594 C 331.28125 355.21875 332.515625 354.457031 333.722656 353.648438 C 334.929688 352.839844 336.105469 351.988281 337.25 351.097656 C 338.394531 350.203125 339.507812 349.269531 340.582031 348.292969 C 341.65625 347.316406 342.695312 346.304688 343.699219 345.25 C 344.699219 344.199219 345.660156 343.113281 346.582031 341.988281 C 347.503906 340.867188 348.378906 339.710938 349.21875 338.523438 C 350.054688 337.335938 350.84375 336.121094 351.589844 334.875 C 352.335938 333.628906 353.039062 332.359375 353.691406 331.0625 C 354.34375 329.761719 354.949219 328.445312 355.503906 327.101562 C 356.0625 325.761719 356.566406 324.402344 357.023438 323.023438 C 357.480469 321.644531 357.882812 320.25 358.238281 318.839844 C 358.589844 317.433594 358.890625 316.011719 359.140625 314.582031 C 359.390625 313.152344 359.585938 311.714844 359.726562 310.269531 C 359.871094 308.824219 359.960938 307.375 359.996094 305.921875 C 360.035156 304.46875 360.015625 303.019531 359.945312 301.570312 C 359.875 300.117188 359.753906 298.671875 359.578125 297.230469 C 359.398438 295.789062 359.171875 294.355469 358.890625 292.929688 C 358.605469 291.507812 358.273438 290.09375 357.886719 288.695312 C 357.5 287.292969 357.0625 285.910156 356.574219 284.542969 C 356.085938 283.175781 355.550781 281.828125 354.964844 280.5 C 354.375 279.171875 353.742188 277.867188 353.058594 276.582031 C 352.375 275.300781 351.644531 274.046875 350.871094 272.820312 C 350.09375 271.589844 349.277344 270.394531 348.414062 269.226562 C 347.546875 268.058594 346.644531 266.925781 345.695312 265.824219 C 344.75 264.722656 343.761719 263.65625 342.738281 262.628906 L 323.476562 243.363281 L 323.476562 201.046875 L 338.179688 186.40625 C 338.597656 186 338.953125 185.542969 339.246094 185.035156 C 339.539062 184.53125 339.761719 183.996094 339.90625 183.429688 C 340.054688 182.863281 340.121094 182.289062 340.113281 181.703125 C 340.101562 181.117188 340.015625 180.546875 339.847656 179.984375 L 333.425781 155.839844 C 333.246094 155.132812 332.953125 154.476562 332.546875 153.871094 C 332.140625 153.265625 331.644531 152.742188 331.0625 152.304688 C 330.480469 151.867188 329.839844 151.539062 329.144531 151.320312 C 328.449219 151.101562 327.734375 151 327.007812 151.023438 L 306.972656 151.023438 C 306.242188 151 305.53125 151.101562 304.835938 151.320312 C 304.140625 151.539062 303.5 151.867188 302.917969 152.304688 C 302.332031 152.742188 301.839844 153.265625 301.433594 153.871094 C 301.027344 154.476562 300.734375 155.132812 300.550781 155.839844 L 294.132812 179.984375 C 293.964844 180.546875 293.875 181.117188 293.867188 181.703125 C 293.855469 182.289062 293.925781 182.863281 294.074219 183.429688 C 294.21875 183.996094 294.441406 184.53125 294.734375 185.035156 C 295.027344 185.542969 295.382812 186 295.800781 186.40625 L 310.570312 201.046875 L 310.570312 230.777344 L 177.910156 97.792969 L 218.105469 107.9375 L 220.675781 121.742188 C 220.78125 122.34375 220.96875 122.917969 221.238281 123.46875 C 221.511719 124.015625 221.851562 124.515625 222.265625 124.964844 C 222.675781 125.414062 223.144531 125.796875 223.664062 126.117188 C 224.1875 126.433594 224.742188 126.671875 225.332031 126.828125 C 225.921875 126.988281 226.523438 127.058594 227.132812 127.046875 C 227.746094 127.035156 228.339844 126.9375 228.921875 126.753906 C 229.507812 126.570312 230.050781 126.308594 230.558594 125.96875 C 231.066406 125.632812 231.519531 125.230469 231.914062 124.761719 L 246.746094 107.296875 L 250.980469 129.835938 C 251.09375 130.429688 251.285156 130.996094 251.554688 131.535156 C 251.828125 132.078125 252.167969 132.570312 252.578125 133.011719 C 252.988281 133.457031 253.453125 133.835938 253.96875 134.148438 C 254.484375 134.460938 255.035156 134.699219 255.621094 134.855469 C 256.203125 135.011719 256.796875 135.085938 257.402344 135.078125 C 258.007812 135.066406 258.597656 134.972656 259.175781 134.796875 C 259.753906 134.617188 260.296875 134.363281 260.800781 134.035156 C 261.308594 133.703125 261.761719 133.308594 262.15625 132.851562 L 277.050781 115.386719 L 281.289062 137.925781 C 281.402344 138.515625 281.589844 139.082031 281.863281 139.621094 C 282.132812 140.160156 282.472656 140.652344 282.882812 141.09375 C 283.289062 141.535156 283.753906 141.914062 284.265625 142.226562 C 284.78125 142.539062 285.332031 142.777344 285.914062 142.933594 C 286.46875 143.023438 287.023438 143.023438 287.582031 142.933594 C 288.519531 142.933594 289.414062 142.738281 290.269531 142.34375 C 291.121094 141.953125 291.851562 141.398438 292.460938 140.6875 L 307.359375 123.21875 L 308.257812 127.90625 C 308.335938 128.320312 308.453125 128.722656 308.605469 129.109375 C 308.761719 129.5 308.957031 129.871094 309.183594 130.222656 C 309.414062 130.574219 309.671875 130.902344 309.964844 131.203125 C 310.257812 131.503906 310.578125 131.773438 310.921875 132.011719 C 311.269531 132.25 311.632812 132.453125 312.019531 132.617188 C 312.402344 132.785156 312.800781 132.914062 313.210938 133 C 313.621094 133.089844 314.035156 133.136719 314.457031 133.144531 C 314.875 133.152344 315.292969 133.121094 315.707031 133.046875 C 316.121094 132.96875 316.527344 132.851562 316.917969 132.695312 C 317.3125 132.535156 317.683594 132.34375 318.039062 132.113281 C 318.394531 131.882812 318.722656 131.617188 319.023438 131.324219 C 319.324219 131.027344 319.597656 130.703125 319.835938 130.355469 C 320.074219 130.007812 320.277344 129.636719 320.441406 129.25 C 320.605469 128.859375 320.734375 128.457031 320.820312 128.042969 C 320.90625 127.628906 320.953125 127.210938 320.957031 126.789062 C 320.957031 126.367188 320.921875 125.949219 320.84375 125.53125 L 317.503906 107.9375 C 317.394531 107.34375 317.203125 106.777344 316.929688 106.234375 C 316.660156 105.695312 316.320312 105.203125 315.910156 104.757812 C 315.5 104.3125 315.035156 103.933594 314.515625 103.621094 C 314 103.308594 313.449219 103.074219 312.867188 102.914062 C 312.28125 102.757812 311.6875 102.683594 311.082031 102.695312 C 310.480469 102.703125 309.886719 102.796875 309.308594 102.976562 C 308.730469 103.152344 308.191406 103.40625 307.683594 103.738281 C 307.175781 104.066406 306.726562 104.460938 306.332031 104.917969 L 291.433594 122.386719 L 287.195312 99.847656 C 287.085938 99.25 286.894531 98.683594 286.625 98.144531 C 286.351562 97.605469 286.011719 97.113281 285.601562 96.667969 C 285.191406 96.222656 284.726562 95.84375 284.210938 95.53125 C 283.691406 95.21875 283.144531 94.984375 282.558594 94.824219 C 281.976562 94.667969 281.382812 94.59375 280.777344 94.605469 C 280.171875 94.613281 279.582031 94.707031 279.003906 94.882812 C 278.425781 95.0625 277.882812 95.316406 277.375 95.644531 C 276.871094 95.976562 276.417969 96.371094 276.023438 96.828125 L 261.128906 114.359375 L 256.953125 91.820312 C 256.84375 91.21875 256.65625 90.640625 256.382812 90.09375 C 256.109375 89.546875 255.765625 89.046875 255.351562 88.597656 C 254.933594 88.148438 254.464844 87.765625 253.941406 87.453125 C 253.417969 87.136719 252.859375 86.902344 252.265625 86.746094 C 251.679688 86.578125 251.082031 86.492188 250.472656 86.492188 C 249.863281 86.492188 249.265625 86.578125 248.679688 86.746094 C 248.09375 86.917969 247.542969 87.167969 247.027344 87.496094 C 246.515625 87.820312 246.054688 88.214844 245.652344 88.671875 L 230.757812 106.140625 L 229.984375 101.515625 C 229.875 100.910156 229.679688 100.332031 229.402344 99.78125 C 229.125 99.230469 228.777344 98.730469 228.355469 98.28125 C 227.933594 97.832031 227.457031 97.449219 226.925781 97.136719 C 226.394531 96.824219 225.832031 96.59375 225.234375 96.441406 L 160.253906 80.195312 L 157.300781 77.179688 Z M 311.660156 164.058594 L 322.703125 164.058594 L 326.878906 179.921875 L 317.4375 189.296875 L 307.9375 179.921875 Z M 347.296875 24.457031 C 347.554688 24.445312 347.789062 24.507812 348.003906 24.652344 C 348.21875 24.792969 348.367188 24.988281 348.453125 25.230469 C 348.597656 25.429688 348.667969 25.65625 348.667969 25.902344 C 348.667969 26.152344 348.597656 26.375 348.453125 26.578125 L 336.636719 39.421875 C 334.835938 41.382812 332.9375 43.246094 330.941406 45.007812 C 328.945312 46.773438 326.867188 48.429688 324.699219 49.976562 C 322.53125 51.523438 320.289062 52.957031 317.976562 54.273438 C 315.660156 55.589844 313.28125 56.78125 310.84375 57.851562 C 308.40625 58.921875 305.917969 59.859375 303.378906 60.671875 C 300.84375 61.484375 298.273438 62.160156 295.664062 62.707031 C 293.058594 63.25 290.429688 63.660156 287.78125 63.933594 C 285.132812 64.203125 282.476562 64.339844 279.8125 64.335938 L 144.972656 64.335938 L 109.078125 28.953125 C 107.464844 27.371094 105.773438 25.871094 104.007812 24.457031 Z M 65.867188 194.046875 C 70.558594 194.050781 75.050781 194.992188 79.351562 196.875 L 133.734375 221.019531 L 186.582031 273.867188 L 92.578125 232.128906 L 92.0625 232.128906 L 38.640625 208.238281 C 40.175781 206.050781 41.945312 204.078125 43.957031 202.316406 C 45.964844 200.554688 48.152344 199.058594 50.523438 197.820312 C 52.890625 196.585938 55.371094 195.652344 57.96875 195.011719 C 60.5625 194.375 63.195312 194.054688 65.867188 194.046875 Z M 81.917969 277.527344 C 81.03125 277.886719 80.125 278.210938 79.210938 278.492188 C 78.292969 278.777344 77.363281 279.019531 76.425781 279.222656 C 75.488281 279.425781 74.542969 279.585938 73.589844 279.707031 C 72.636719 279.828125 71.683594 279.90625 70.722656 279.945312 C 69.765625 279.984375 68.804688 279.980469 67.847656 279.933594 C 66.886719 279.886719 65.933594 279.800781 64.980469 279.671875 C 64.03125 279.546875 63.085938 279.375 62.148438 279.164062 C 61.210938 278.957031 60.285156 278.707031 59.371094 278.414062 C 58.457031 278.125 57.558594 277.796875 56.671875 277.425781 C 55.785156 277.058594 54.914062 276.652344 54.0625 276.207031 C 53.214844 275.761719 52.382812 275.285156 51.574219 274.769531 C 50.765625 274.25 49.980469 273.703125 49.21875 273.117188 C 48.457031 272.535156 47.71875 271.917969 47.011719 271.269531 C 46.304688 270.621094 45.625 269.945312 44.976562 269.238281 C 44.324219 268.53125 43.707031 267.796875 43.121094 267.035156 C 42.535156 266.277344 41.984375 265.492188 41.464844 264.683594 L 89.816406 244.96875 L 124.039062 260.1875 Z M 36.328125 350.796875 C 35.804688 350.753906 35.316406 350.601562 34.863281 350.328125 C 34.410156 350.058594 34.042969 349.699219 33.761719 349.253906 C 33.492188 348.742188 33.359375 348.195312 33.359375 347.617188 C 33.359375 347.039062 33.492188 346.492188 33.761719 345.980469 L 38.257812 336.15625 C 39.113281 334.285156 40.097656 332.484375 41.210938 330.753906 C 42.324219 329.023438 43.554688 327.378906 44.898438 325.824219 C 46.246094 324.269531 47.695312 322.816406 49.25 321.464844 C 50.804688 320.117188 52.445312 318.886719 54.175781 317.769531 C 55.902344 316.65625 57.703125 315.667969 59.574219 314.808594 C 61.441406 313.949219 63.363281 313.230469 65.335938 312.644531 C 67.308594 312.058594 69.3125 311.617188 71.347656 311.316406 C 73.382812 311.015625 75.429688 310.863281 77.488281 310.855469 C 77.636719 310.84375 77.777344 310.867188 77.917969 310.917969 C 78.054688 310.96875 78.175781 311.046875 78.28125 311.152344 C 78.386719 311.257812 78.464844 311.378906 78.515625 311.515625 C 78.566406 311.65625 78.589844 311.796875 78.578125 311.945312 L 78.578125 330.824219 C 78.578125 331.246094 78.621094 331.664062 78.703125 332.078125 C 78.785156 332.492188 78.90625 332.890625 79.070312 333.28125 C 79.230469 333.671875 79.425781 334.042969 79.660156 334.390625 C 79.894531 334.742188 80.164062 335.066406 80.460938 335.367188 C 80.757812 335.664062 81.082031 335.929688 81.433594 336.164062 C 81.785156 336.398438 82.152344 336.597656 82.542969 336.757812 C 82.933594 336.917969 83.335938 337.039062 83.746094 337.121094 C 84.160156 337.203125 84.578125 337.246094 85 337.246094 L 151.523438 337.246094 C 151.789062 337.246094 152.050781 337.230469 152.316406 337.199219 C 152.582031 337.167969 152.84375 337.121094 153.101562 337.054688 C 153.359375 336.992188 153.609375 336.910156 153.859375 336.8125 C 154.105469 336.71875 154.347656 336.609375 154.582031 336.480469 C 154.816406 336.355469 155.042969 336.214844 155.257812 336.0625 C 155.476562 335.90625 155.683594 335.742188 155.878906 335.5625 C 156.074219 335.382812 156.261719 335.191406 156.433594 334.988281 C 156.605469 334.785156 156.765625 334.574219 156.910156 334.351562 C 157.054688 334.128906 157.1875 333.898438 157.304688 333.660156 C 157.421875 333.421875 157.523438 333.175781 157.613281 332.925781 C 157.699219 332.671875 157.769531 332.417969 157.824219 332.15625 C 157.878906 331.898438 157.917969 331.632812 157.941406 331.371094 C 157.964844 331.105469 157.96875 330.839844 157.960938 330.574219 C 157.949219 330.308594 157.921875 330.042969 157.878906 329.78125 C 157.835938 329.519531 157.777344 329.257812 157.703125 329.003906 C 157.625 328.75 157.535156 328.5 157.429688 328.257812 L 150.6875 312.910156 C 150.414062 312.4375 150.414062 311.96875 150.6875 311.496094 C 150.953125 311.066406 151.335938 310.851562 151.84375 310.855469 L 223.628906 310.855469 L 259.074219 346.300781 C 260.6875 347.882812 262.378906 349.382812 264.144531 350.796875 Z M 347.234375 304.433594 C 347.238281 306.714844 347.074219 308.980469 346.742188 311.238281 C 346.410156 313.496094 345.917969 315.714844 345.257812 317.898438 C 344.597656 320.082031 343.78125 322.207031 342.808594 324.269531 C 341.835938 326.332031 340.71875 328.3125 339.453125 330.210938 C 338.1875 332.105469 336.789062 333.902344 335.257812 335.59375 C 333.726562 337.28125 332.082031 338.851562 330.316406 340.300781 C 328.554688 341.746094 326.695312 343.058594 324.738281 344.230469 C 322.785156 345.402344 320.75 346.425781 318.644531 347.296875 C 316.539062 348.171875 314.378906 348.882812 312.164062 349.4375 C 309.953125 349.988281 307.710938 350.375 305.441406 350.597656 C 303.171875 350.820312 300.898438 350.875 298.621094 350.761719 C 296.339844 350.644531 294.085938 350.363281 291.847656 349.917969 C 289.613281 349.46875 287.421875 348.859375 285.273438 348.085938 C 283.128906 347.316406 281.050781 346.390625 279.042969 345.3125 C 277.03125 344.234375 275.113281 343.011719 273.285156 341.648438 C 271.453125 340.289062 269.734375 338.796875 268.125 337.183594 L 34.46875 103.507812 C 33.394531 102.433594 32.378906 101.3125 31.417969 100.136719 C 30.457031 98.964844 29.554688 97.75 28.710938 96.488281 C 27.871094 95.226562 27.089844 93.925781 26.378906 92.589844 C 25.664062 91.25 25.015625 89.882812 24.433594 88.480469 C 23.855469 87.078125 23.34375 85.652344 22.90625 84.203125 C 22.464844 82.75 22.097656 81.28125 21.800781 79.792969 C 21.507812 78.308594 21.285156 76.808594 21.136719 75.300781 C 20.988281 73.789062 20.914062 72.277344 20.914062 70.761719 C 20.914062 69.242188 20.988281 67.730469 21.136719 66.222656 C 21.289062 64.710938 21.507812 63.214844 21.804688 61.726562 C 22.101562 60.238281 22.46875 58.769531 22.910156 57.320312 C 23.351562 55.867188 23.859375 54.441406 24.441406 53.042969 C 25.023438 51.640625 25.667969 50.269531 26.382812 48.933594 C 27.097656 47.597656 27.878906 46.296875 28.71875 45.035156 C 29.5625 43.773438 30.464844 42.558594 31.425781 41.386719 C 32.390625 40.214844 33.40625 39.089844 34.480469 38.019531 C 35.550781 36.945312 36.671875 35.929688 37.84375 34.96875 C 39.019531 34.003906 40.234375 33.101562 41.496094 32.261719 C 42.757812 31.417969 44.054688 30.640625 45.390625 29.925781 C 46.730469 29.210938 48.097656 28.5625 49.5 27.980469 C 50.902344 27.402344 52.328125 26.890625 53.777344 26.449219 C 55.230469 26.007812 56.699219 25.640625 58.183594 25.34375 C 59.671875 25.050781 61.171875 24.828125 62.679688 24.679688 C 64.1875 24.527344 65.703125 24.453125 67.21875 24.453125 C 68.734375 24.453125 70.246094 24.527344 71.757812 24.675781 C 73.265625 24.824219 74.761719 25.046875 76.25 25.34375 C 77.738281 25.636719 79.207031 26.003906 80.660156 26.445312 C 82.109375 26.886719 83.535156 27.394531 84.9375 27.976562 C 86.339844 28.554688 87.707031 29.203125 89.046875 29.917969 C 90.382812 30.632812 91.683594 31.410156 92.941406 32.25 C 94.203125 33.09375 95.421875 33.996094 96.59375 34.957031 C 97.765625 35.917969 98.890625 36.9375 99.960938 38.007812 L 333.621094 271.683594 C 335.78125 273.828125 337.710938 276.160156 339.410156 278.6875 C 341.109375 281.214844 342.542969 283.882812 343.710938 286.691406 C 344.878906 289.503906 345.761719 292.402344 346.351562 295.386719 C 346.945312 298.375 347.238281 301.386719 347.234375 304.433594 Z M 122.5 238.675781 C 122.140625 238.320312 121.820312 237.929688 121.535156 237.507812 C 121.253906 237.085938 121.015625 236.640625 120.820312 236.175781 C 120.628906 235.707031 120.480469 235.222656 120.382812 234.726562 C 120.28125 234.226562 120.234375 233.726562 120.234375 233.21875 C 120.234375 232.710938 120.28125 232.210938 120.382812 231.710938 C 120.480469 231.214844 120.628906 230.734375 120.820312 230.265625 C 121.015625 229.796875 121.253906 229.351562 121.535156 228.929688 C 121.820312 228.507812 122.140625 228.117188 122.5 227.761719 C 122.859375 227.402344 123.25 227.078125 123.675781 226.796875 C 124.101562 226.511719 124.546875 226.273438 125.019531 226.078125 C 125.488281 225.882812 125.972656 225.738281 126.472656 225.636719 C 126.972656 225.539062 127.480469 225.488281 127.988281 225.488281 C 128.5 225.488281 129.003906 225.539062 129.503906 225.636719 C 130.003906 225.738281 130.488281 225.882812 130.960938 226.078125 C 131.429688 226.273438 131.878906 226.511719 132.300781 226.796875 C 132.726562 227.078125 133.117188 227.402344 133.480469 227.761719 C 133.839844 228.117188 134.160156 228.507812 134.441406 228.929688 C 134.722656 229.351562 134.960938 229.796875 135.15625 230.265625 C 135.351562 230.734375 135.496094 231.214844 135.597656 231.710938 C 135.695312 232.210938 135.746094 232.710938 135.746094 233.21875 C 135.746094 233.726562 135.695312 234.226562 135.597656 234.726562 C 135.496094 235.222656 135.351562 235.707031 135.15625 236.175781 C 134.960938 236.640625 134.722656 237.085938 134.441406 237.507812 C 134.160156 237.929688 133.839844 238.320312 133.480469 238.675781 C 133.121094 239.027344 132.730469 239.339844 132.308594 239.617188 C 131.890625 239.890625 131.445312 240.125 130.980469 240.3125 C 130.515625 240.5 130.039062 240.644531 129.546875 240.742188 C 129.050781 240.835938 128.554688 240.886719 128.054688 240.886719 C 127.550781 240.886719 127.054688 240.835938 126.5625 240.742188 C 126.066406 240.644531 125.589844 240.5 125.125 240.3125 C 124.660156 240.125 124.214844 239.890625 123.796875 239.617188 C 123.375 239.339844 122.988281 239.027344 122.628906 238.675781 Z M 51.097656 54.640625 C 50.574219 55.167969 50.078125 55.71875 49.609375 56.292969 C 49.140625 56.871094 48.699219 57.46875 48.289062 58.085938 C 47.878906 58.703125 47.5 59.34375 47.152344 60 C 46.804688 60.652344 46.488281 61.324219 46.203125 62.011719 C 45.921875 62.699219 45.671875 63.398438 45.457031 64.109375 C 45.242188 64.820312 45.066406 65.539062 44.921875 66.269531 C 44.777344 66.996094 44.667969 67.730469 44.59375 68.46875 C 44.523438 69.210938 44.488281 69.949219 44.488281 70.691406 C 44.488281 71.4375 44.523438 72.175781 44.59375 72.914062 C 44.667969 73.65625 44.777344 74.390625 44.921875 75.117188 C 45.066406 75.847656 45.242188 76.566406 45.457031 77.277344 C 45.671875 77.988281 45.921875 78.6875 46.203125 79.375 C 46.488281 80.0625 46.804688 80.730469 47.152344 81.386719 C 47.5 82.042969 47.878906 82.679688 48.289062 83.300781 C 48.699219 83.917969 49.140625 84.515625 49.609375 85.09375 C 50.078125 85.667969 50.574219 86.21875 51.097656 86.746094 C 52.160156 87.789062 53.316406 88.71875 54.5625 89.53125 C 55.808594 90.347656 57.125 91.027344 58.507812 91.582031 C 59.894531 92.132812 61.316406 92.539062 62.78125 92.808594 C 64.25 93.074219 65.726562 93.195312 67.214844 93.167969 C 68.3125 93.144531 69.40625 93.042969 70.492188 92.863281 C 71.578125 92.683594 72.644531 92.429688 73.691406 92.09375 C 74.742188 91.761719 75.757812 91.351562 76.75 90.871094 C 77.738281 90.390625 78.6875 89.839844 79.597656 89.222656 C 80.507812 88.605469 81.371094 87.925781 82.179688 87.183594 C 82.992188 86.4375 83.746094 85.640625 84.445312 84.792969 C 85.140625 83.941406 85.773438 83.042969 86.339844 82.101562 C 86.90625 81.15625 87.402344 80.179688 87.828125 79.164062 C 88.257812 78.148438 88.605469 77.109375 88.882812 76.046875 C 89.160156 74.980469 89.355469 73.902344 89.476562 72.808594 C 89.597656 71.714844 89.636719 70.617188 89.597656 69.519531 C 89.5625 68.417969 89.445312 67.328125 89.25 66.246094 C 89.050781 65.160156 88.78125 64.097656 88.429688 63.054688 C 88.082031 62.011719 87.660156 61 87.164062 60.015625 C 86.667969 59.035156 86.105469 58.09375 85.472656 57.191406 C 84.84375 56.292969 84.148438 55.441406 83.394531 54.640625 C 82.863281 54.113281 82.308594 53.613281 81.730469 53.140625 C 81.152344 52.667969 80.550781 52.226562 79.929688 51.8125 C 79.304688 51.398438 78.664062 51.019531 78.003906 50.667969 C 77.347656 50.316406 76.671875 50 75.980469 49.714844 C 75.289062 49.429688 74.585938 49.179688 73.871094 48.960938 C 73.15625 48.746094 72.429688 48.566406 71.699219 48.421875 C 70.964844 48.277344 70.226562 48.167969 69.484375 48.09375 C 68.738281 48.019531 67.992188 47.984375 67.246094 47.984375 C 66.5 47.984375 65.753906 48.019531 65.011719 48.09375 C 64.265625 48.167969 63.527344 48.277344 62.796875 48.421875 C 62.0625 48.566406 61.339844 48.746094 60.621094 48.960938 C 59.90625 49.179688 59.203125 49.429688 58.515625 49.714844 C 57.824219 50 57.148438 50.316406 56.488281 50.667969 C 55.828125 51.019531 55.1875 51.398438 54.5625 51.8125 C 53.941406 52.226562 53.339844 52.667969 52.761719 53.140625 C 52.183594 53.613281 51.628906 54.113281 51.097656 54.640625 Z M 74.277344 77.820312 C 73.808594 78.269531 73.304688 78.671875 72.757812 79.023438 C 72.210938 79.378906 71.640625 79.675781 71.035156 79.917969 C 70.433594 80.160156 69.8125 80.34375 69.175781 80.46875 C 68.539062 80.589844 67.894531 80.652344 67.246094 80.652344 C 66.597656 80.652344 65.953125 80.589844 65.316406 80.46875 C 64.679688 80.34375 64.058594 80.160156 63.457031 79.917969 C 62.855469 79.675781 62.28125 79.378906 61.734375 79.023438 C 61.191406 78.671875 60.683594 78.269531 60.214844 77.820312 C 59.722656 77.367188 59.277344 76.867188 58.882812 76.324219 C 58.488281 75.78125 58.152344 75.203125 57.875 74.589844 C 57.601562 73.976562 57.386719 73.34375 57.238281 72.691406 C 57.089844 72.035156 57.007812 71.371094 56.992188 70.699219 C 56.980469 70.027344 57.03125 69.363281 57.152344 68.703125 C 57.273438 68.042969 57.457031 67.398438 57.707031 66.777344 C 57.957031 66.152344 58.269531 65.5625 58.640625 65 C 59.007812 64.441406 59.429688 63.921875 59.90625 63.449219 C 60.382812 62.972656 60.898438 62.550781 61.460938 62.179688 C 62.019531 61.8125 62.609375 61.5 63.234375 61.25 C 63.855469 61 64.5 60.816406 65.160156 60.695312 C 65.820312 60.574219 66.488281 60.519531 67.15625 60.535156 C 67.828125 60.550781 68.492188 60.632812 69.148438 60.78125 C 69.800781 60.929688 70.433594 61.140625 71.046875 61.417969 C 71.660156 61.695312 72.238281 62.03125 72.78125 62.425781 C 73.324219 62.820312 73.824219 63.261719 74.277344 63.757812 C 74.746094 64.214844 75.164062 64.714844 75.535156 65.257812 C 75.902344 65.796875 76.214844 66.371094 76.46875 66.972656 C 76.722656 67.578125 76.914062 68.199219 77.046875 68.84375 C 77.175781 69.484375 77.242188 70.132812 77.242188 70.789062 C 77.242188 71.445312 77.175781 72.09375 77.046875 72.734375 C 76.914062 73.378906 76.722656 74 76.46875 74.605469 C 76.214844 75.207031 75.902344 75.78125 75.535156 76.320312 C 75.164062 76.863281 74.746094 77.363281 74.277344 77.820312 Z M 284.757812 320.613281 C 285.824219 321.652344 286.980469 322.578125 288.230469 323.386719 C 289.476562 324.195312 290.792969 324.878906 292.175781 325.429688 C 293.558594 325.980469 294.980469 326.390625 296.445312 326.660156 C 297.910156 326.929688 299.386719 327.054688 300.875 327.035156 C 301.621094 327.042969 302.371094 327.011719 303.117188 326.945312 C 303.863281 326.875 304.601562 326.773438 305.339844 326.628906 C 306.074219 326.488281 306.800781 326.3125 307.519531 326.097656 C 308.238281 325.886719 308.941406 325.636719 309.636719 325.355469 C 310.328125 325.070312 311.007812 324.753906 311.667969 324.402344 C 312.332031 324.054688 312.972656 323.671875 313.597656 323.257812 C 314.222656 322.84375 314.824219 322.398438 315.40625 321.925781 C 315.984375 321.449219 316.539062 320.949219 317.070312 320.421875 C 317.601562 319.890625 318.105469 319.335938 318.578125 318.757812 C 319.054688 318.179688 319.5 317.578125 319.917969 316.957031 C 320.332031 316.332031 320.71875 315.691406 321.070312 315.03125 C 321.421875 314.367188 321.742188 313.691406 322.027344 313 C 322.3125 312.304688 322.5625 311.601562 322.777344 310.882812 C 322.992188 310.164062 323.171875 309.441406 323.3125 308.703125 C 323.457031 307.96875 323.5625 307.226562 323.632812 306.484375 C 323.703125 305.738281 323.734375 304.988281 323.730469 304.238281 C 323.753906 302.75 323.628906 301.273438 323.359375 299.8125 C 323.089844 298.347656 322.679688 296.921875 322.128906 295.539062 C 321.578125 294.15625 320.898438 292.839844 320.085938 291.59375 C 319.277344 290.34375 318.351562 289.1875 317.3125 288.121094 C 316.773438 287.617188 316.214844 287.136719 315.632812 286.6875 C 315.050781 286.234375 314.445312 285.808594 313.824219 285.414062 C 313.203125 285.019531 312.5625 284.65625 311.90625 284.320312 C 311.25 283.984375 310.578125 283.679688 309.890625 283.410156 C 309.207031 283.136719 308.507812 282.898438 307.800781 282.691406 C 307.09375 282.488281 306.378906 282.316406 305.652344 282.175781 C 304.929688 282.039062 304.199219 281.933594 303.464844 281.867188 C 302.730469 281.796875 301.996094 281.761719 301.257812 281.761719 C 300.519531 281.761719 299.785156 281.796875 299.050781 281.867188 C 298.316406 281.933594 297.589844 282.039062 296.863281 282.175781 C 296.140625 282.316406 295.421875 282.488281 294.714844 282.691406 C 294.007812 282.898438 293.3125 283.136719 292.625 283.410156 C 291.941406 283.679688 291.269531 283.984375 290.613281 284.320312 C 289.953125 284.65625 289.316406 285.019531 288.691406 285.414062 C 288.070312 285.808594 287.46875 286.234375 286.886719 286.6875 C 286.304688 287.136719 285.742188 287.617188 285.207031 288.121094 C 284.167969 289.1875 283.242188 290.34375 282.429688 291.59375 C 281.621094 292.839844 280.9375 294.15625 280.386719 295.539062 C 279.835938 296.921875 279.425781 298.347656 279.15625 299.8125 C 278.886719 301.273438 278.761719 302.75 278.785156 304.238281 C 278.769531 305.734375 278.894531 307.214844 279.167969 308.679688 C 279.4375 310.148438 279.847656 311.578125 280.398438 312.964844 C 280.949219 314.351562 281.628906 315.671875 282.4375 316.929688 C 283.246094 318.183594 284.167969 319.347656 285.207031 320.421875 Z M 293.875 297.433594 C 294.34375 296.984375 294.847656 296.582031 295.394531 296.230469 C 295.9375 295.875 296.511719 295.578125 297.117188 295.335938 C 297.71875 295.09375 298.335938 294.910156 298.976562 294.785156 C 299.613281 294.664062 300.257812 294.601562 300.90625 294.601562 C 301.554688 294.601562 302.199219 294.664062 302.835938 294.785156 C 303.472656 294.910156 304.09375 295.09375 304.695312 295.335938 C 305.296875 295.578125 305.871094 295.875 306.417969 296.230469 C 306.960938 296.582031 307.46875 296.984375 307.9375 297.433594 C 308.429688 297.886719 308.875 298.386719 309.269531 298.929688 C 309.664062 299.472656 310 300.050781 310.277344 300.664062 C 310.550781 301.277344 310.765625 301.910156 310.914062 302.5625 C 311.0625 303.21875 311.144531 303.882812 311.160156 304.554688 C 311.171875 305.226562 311.121094 305.890625 311 306.550781 C 310.878906 307.210938 310.695312 307.855469 310.445312 308.476562 C 310.195312 309.101562 309.882812 309.691406 309.511719 310.253906 C 309.144531 310.8125 308.722656 311.332031 308.246094 311.804688 C 307.769531 312.28125 307.253906 312.703125 306.691406 313.074219 C 306.132812 313.441406 305.539062 313.753906 304.917969 314.003906 C 304.292969 314.253906 303.652344 314.441406 302.992188 314.558594 C 302.332031 314.679688 301.664062 314.734375 300.992188 314.71875 C 300.324219 314.703125 299.660156 314.621094 299.003906 314.472656 C 298.351562 314.324219 297.714844 314.113281 297.105469 313.835938 C 296.492188 313.558594 295.914062 313.222656 295.371094 312.828125 C 294.828125 312.433594 294.328125 311.992188 293.875 311.496094 C 293.40625 311.039062 292.988281 310.539062 292.617188 309.996094 C 292.25 309.457031 291.9375 308.882812 291.683594 308.28125 C 291.429688 307.675781 291.234375 307.054688 291.105469 306.410156 C 290.976562 305.769531 290.910156 305.121094 290.910156 304.464844 C 290.910156 303.808594 290.976562 303.160156 291.105469 302.519531 C 291.234375 301.875 291.429688 301.253906 291.683594 300.648438 C 291.9375 300.046875 292.25 299.472656 292.617188 298.933594 C 292.988281 298.390625 293.40625 297.890625 293.875 297.433594 Z M 293.875 297.433594 " fill-opacity="1" fill-rule="nonzero"/><path fill="#000000" d="M 279.554688 77.179688 C 282.660156 77.175781 285.753906 77.011719 288.839844 76.6875 C 291.929688 76.363281 294.988281 75.882812 298.027344 75.242188 C 301.066406 74.605469 304.0625 73.8125 307.015625 72.867188 C 309.972656 71.917969 312.871094 70.824219 315.714844 69.578125 C 318.558594 68.332031 321.328125 66.945312 324.03125 65.414062 C 326.730469 63.882812 329.34375 62.21875 331.871094 60.417969 C 334.402344 58.621094 336.832031 56.695312 339.160156 54.644531 C 341.492188 52.597656 343.710938 50.433594 345.820312 48.152344 L 357.632812 35.3125 C 358.570312 34.300781 359.339844 33.179688 359.949219 31.941406 C 360.554688 30.707031 360.972656 29.410156 361.203125 28.054688 C 361.429688 26.695312 361.457031 25.332031 361.289062 23.96875 C 361.117188 22.601562 360.757812 21.289062 360.203125 20.027344 C 359.664062 18.773438 358.953125 17.625 358.074219 16.582031 C 357.195312 15.539062 356.1875 14.640625 355.042969 13.894531 C 353.902344 13.144531 352.679688 12.578125 351.371094 12.191406 C 350.0625 11.800781 348.726562 11.609375 347.359375 11.617188 L 67.214844 11.617188 C 65.761719 11.613281 64.308594 11.667969 62.859375 11.773438 C 61.410156 11.878906 59.96875 12.039062 58.53125 12.253906 C 57.09375 12.464844 55.664062 12.730469 54.246094 13.046875 C 52.828125 13.367188 51.425781 13.734375 50.035156 14.15625 C 48.644531 14.578125 47.269531 15.050781 45.914062 15.574219 C 44.558594 16.09375 43.222656 16.667969 41.910156 17.289062 C 40.597656 17.910156 39.308594 18.578125 38.042969 19.292969 C 36.777344 20.011719 35.542969 20.773438 34.332031 21.578125 C 33.125 22.386719 31.949219 23.238281 30.800781 24.128906 C 29.65625 25.023438 28.546875 25.960938 27.46875 26.9375 C 26.390625 27.910156 25.351562 28.925781 24.351562 29.976562 C 23.347656 31.03125 22.386719 32.117188 21.464844 33.242188 C 20.542969 34.367188 19.664062 35.523438 18.828125 36.710938 C 17.992188 37.898438 17.199219 39.117188 16.453125 40.363281 C 15.707031 41.609375 15.003906 42.882812 14.351562 44.179688 C 13.699219 45.476562 13.09375 46.796875 12.539062 48.140625 C 11.984375 49.484375 11.476562 50.84375 11.023438 52.226562 C 10.566406 53.605469 10.164062 55 9.8125 56.410156 C 9.457031 57.820312 9.160156 59.242188 8.910156 60.671875 C 8.664062 62.105469 8.46875 63.542969 8.328125 64.992188 C 8.183594 66.4375 8.097656 67.886719 8.0625 69.339844 C 8.027344 70.792969 8.046875 72.246094 8.117188 73.695312 C 8.191406 75.148438 8.316406 76.59375 8.496094 78.035156 C 8.671875 79.480469 8.90625 80.914062 9.191406 82.335938 C 9.472656 83.761719 9.8125 85.175781 10.199219 86.574219 C 10.589844 87.976562 11.027344 89.359375 11.519531 90.726562 C 12.007812 92.097656 12.550781 93.445312 13.140625 94.773438 C 13.730469 96.101562 14.367188 97.40625 15.054688 98.683594 C 15.738281 99.964844 16.472656 101.21875 17.25 102.449219 C 18.03125 103.675781 18.851562 104.871094 19.71875 106.039062 C 20.585938 107.203125 21.496094 108.335938 22.445312 109.4375 C 23.394531 110.535156 24.386719 111.597656 25.414062 112.625 L 108.886719 196.101562 L 84.617188 184.996094 C 83.234375 184.386719 81.824219 183.84375 80.390625 183.375 C 78.953125 182.902344 77.5 182.503906 76.027344 182.175781 C 74.550781 181.847656 73.066406 181.59375 71.566406 181.410156 C 70.066406 181.226562 68.5625 181.117188 67.050781 181.082031 C 65.542969 181.046875 64.035156 181.085938 62.527344 181.199219 C 61.023438 181.3125 59.527344 181.5 58.039062 181.757812 C 56.550781 182.015625 55.078125 182.347656 53.621094 182.753906 C 52.167969 183.15625 50.734375 183.628906 49.328125 184.171875 C 47.917969 184.71875 46.539062 185.328125 45.191406 186.007812 C 43.839844 186.6875 42.527344 187.429688 41.253906 188.238281 C 39.976562 189.046875 38.742188 189.914062 37.550781 190.84375 C 36.359375 191.773438 35.21875 192.757812 34.121094 193.796875 C 33.027344 194.835938 31.988281 195.929688 31 197.074219 C 30.011719 198.214844 29.082031 199.402344 28.210938 200.636719 C 27.339844 201.871094 26.53125 203.144531 25.785156 204.457031 C 25.039062 205.769531 24.359375 207.117188 23.746094 208.496094 C 23.566406 208.894531 23.433594 209.308594 23.339844 209.734375 C 23.25 210.160156 23.199219 210.59375 23.195312 211.027344 C 23.191406 211.464844 23.230469 211.898438 23.3125 212.328125 C 23.398438 212.753906 23.523438 213.171875 23.691406 213.574219 C 23.859375 213.976562 24.066406 214.355469 24.3125 214.71875 C 24.558594 215.078125 24.839844 215.410156 25.152344 215.714844 C 25.464844 216.015625 25.808594 216.285156 26.175781 216.519531 C 26.542969 216.753906 26.933594 216.945312 27.339844 217.101562 L 73.890625 237.777344 L 30.164062 255.628906 C 29.367188 255.949219 28.664062 256.410156 28.050781 257.007812 C 27.441406 257.609375 26.96875 258.308594 26.632812 259.097656 C 26.304688 259.886719 26.140625 260.710938 26.140625 261.570312 C 26.140625 262.425781 26.304688 263.25 26.632812 264.042969 C 27.492188 266.15625 28.503906 268.199219 29.664062 270.164062 C 30.824219 272.128906 32.125 273.996094 33.566406 275.769531 C 35.003906 277.542969 36.566406 279.199219 38.25 280.738281 C 39.9375 282.277344 41.726562 283.6875 43.621094 284.960938 C 45.515625 286.234375 47.492188 287.363281 49.554688 288.34375 C 51.617188 289.324219 53.738281 290.144531 55.921875 290.808594 C 58.105469 291.476562 60.328125 291.976562 62.585938 292.3125 C 64.84375 292.644531 67.113281 292.8125 69.398438 292.808594 C 75.429688 292.820312 81.230469 291.667969 86.796875 289.34375 L 140.414062 267.574219 L 209.375 298.011719 L 151.972656 298.011719 C 150.792969 298.011719 149.632812 298.15625 148.488281 298.445312 C 147.347656 298.734375 146.257812 299.15625 145.21875 299.71875 C 144.183594 300.277344 143.230469 300.957031 142.363281 301.757812 C 141.496094 302.554688 140.738281 303.445312 140.09375 304.433594 C 139.441406 305.429688 138.921875 306.496094 138.535156 307.621094 C 138.148438 308.75 137.90625 309.90625 137.804688 311.09375 C 137.703125 312.28125 137.75 313.464844 137.941406 314.640625 C 138.132812 315.816406 138.464844 316.953125 138.9375 318.046875 L 141.699219 324.46875 L 90.90625 324.46875 L 90.90625 311.945312 C 90.90625 311.03125 90.820312 310.125 90.640625 309.226562 C 90.460938 308.328125 90.199219 307.457031 89.847656 306.613281 C 89.496094 305.769531 89.066406 304.964844 88.558594 304.203125 C 88.050781 303.441406 87.472656 302.738281 86.828125 302.09375 C 86.179688 301.445312 85.476562 300.867188 84.714844 300.359375 C 83.953125 299.851562 83.152344 299.421875 82.304688 299.070312 C 81.460938 298.722656 80.589844 298.457031 79.691406 298.277344 C 78.796875 298.101562 77.890625 298.011719 76.972656 298.011719 C 71.582031 298 66.300781 298.757812 61.132812 300.289062 C 55.960938 301.816406 51.121094 304.054688 46.601562 307 C 42.117188 309.902344 38.125 313.371094 34.632812 317.414062 C 31.136719 321.453125 28.277344 325.902344 26.054688 330.761719 L 21.5625 340.648438 C 21.285156 341.265625 21.046875 341.898438 20.847656 342.542969 C 20.652344 343.1875 20.492188 343.84375 20.375 344.511719 C 20.261719 345.175781 20.183594 345.847656 20.152344 346.519531 C 20.117188 347.195312 20.125 347.871094 20.175781 348.542969 C 20.226562 349.21875 20.320312 349.886719 20.453125 350.546875 C 20.585938 351.210938 20.757812 351.863281 20.972656 352.503906 C 21.1875 353.144531 21.441406 353.769531 21.734375 354.378906 C 22.027344 354.988281 22.355469 355.574219 22.71875 356.144531 C 23.085938 356.710938 23.484375 357.257812 23.917969 357.773438 C 24.347656 358.292969 24.8125 358.785156 25.304688 359.246094 C 25.800781 359.707031 26.320312 360.136719 26.867188 360.53125 C 27.414062 360.929688 27.984375 361.289062 28.574219 361.617188 C 29.167969 361.941406 29.777344 362.230469 30.402344 362.480469 C 31.03125 362.730469 31.671875 362.941406 32.328125 363.109375 C 32.980469 363.28125 33.640625 363.410156 34.3125 363.5 C 34.980469 363.585938 35.652344 363.632812 36.328125 363.636719 L 300.875 363.636719 C 302.324219 363.636719 303.777344 363.582031 305.222656 363.472656 C 306.671875 363.367188 308.113281 363.203125 309.550781 362.988281 C 310.988281 362.777344 312.414062 362.507812 313.828125 362.191406 C 315.246094 361.871094 316.648438 361.5 318.039062 361.078125 C 319.429688 360.65625 320.800781 360.183594 322.15625 359.65625 C 323.507812 359.132812 324.84375 358.5625 326.15625 357.941406 C 327.46875 357.320312 328.753906 356.648438 330.019531 355.933594 C 331.28125 355.21875 332.515625 354.457031 333.722656 353.648438 C 334.929688 352.839844 336.105469 351.988281 337.25 351.097656 C 338.394531 350.203125 339.507812 349.269531 340.582031 348.292969 C 341.65625 347.316406 342.695312 346.304688 343.699219 345.25 C 344.699219 344.199219 345.660156 343.113281 346.582031 341.988281 C 347.503906 340.867188 348.378906 339.710938 349.21875 338.523438 C 350.054688 337.335938 350.84375 336.121094 351.589844 334.875 C 352.335938 333.628906 353.039062 332.359375 353.691406 331.0625 C 354.34375 329.761719 354.949219 328.445312 355.503906 327.101562 C 356.0625 325.761719 356.566406 324.402344 357.023438 323.023438 C 357.480469 321.644531 357.882812 320.25 358.238281 318.839844 C 358.589844 317.433594 358.890625 316.011719 359.140625 314.582031 C 359.390625 313.152344 359.585938 311.714844 359.726562 310.269531 C 359.871094 308.824219 359.960938 307.375 359.996094 305.921875 C 360.035156 304.46875 360.015625 303.019531 359.945312 301.570312 C 359.875 300.117188 359.753906 298.671875 359.578125 297.230469 C 359.398438 295.789062 359.171875 294.355469 358.890625 292.929688 C 358.605469 291.507812 358.273438 290.09375 357.886719 288.695312 C 357.5 287.292969 357.0625 285.910156 356.574219 284.542969 C 356.085938 283.175781 355.550781 281.828125 354.964844 280.5 C 354.375 279.171875 353.742188 277.867188 353.058594 276.582031 C 352.375 275.300781 351.644531 274.046875 350.871094 272.820312 C 350.09375 271.589844 349.277344 270.394531 348.414062 269.226562 C 347.546875 268.058594 346.644531 266.925781 345.695312 265.824219 C 344.75 264.722656 343.761719 263.65625 342.738281 262.628906 L 323.476562 243.363281 L 323.476562 201.046875 L 338.179688 186.40625 C 338.597656 186 338.953125 185.542969 339.246094 185.035156 C 339.539062 184.53125 339.761719 183.996094 339.90625 183.429688 C 340.054688 182.863281 340.121094 182.289062 340.113281 181.703125 C 340.101562 181.117188 340.015625 180.546875 339.847656 179.984375 L 333.425781 155.839844 C 333.246094 155.132812 332.953125 154.476562 332.546875 153.871094 C 332.140625 153.265625 331.644531 152.742188 331.0625 152.304688 C 330.480469 151.867188 329.839844 151.539062 329.144531 151.320312 C 328.449219 151.101562 327.734375 151 327.007812 151.023438 L 306.972656 151.023438 C 306.242188 151 305.53125 151.101562 304.835938 151.320312 C 304.140625 151.539062 303.5 151.867188 302.917969 152.304688 C 302.332031 152.742188 301.839844 153.265625 301.433594 153.871094 C 301.027344 154.476562 300.734375 155.132812 300.550781 155.839844 L 294.132812 179.984375 C 293.964844 180.546875 293.875 181.117188 293.867188 181.703125 C 293.855469 182.289062 293.925781 182.863281 294.074219 183.429688 C 294.21875 183.996094 294.441406 184.53125 294.734375 185.035156 C 295.027344 185.542969 295.382812 186 295.800781 186.40625 L 310.570312 201.046875 L 310.570312 230.777344 L 177.910156 97.792969 L 218.105469 107.9375 L 220.675781 121.742188 C 220.78125 122.34375 220.96875 122.917969 221.238281 123.46875 C 221.511719 124.015625 221.851562 124.515625 222.265625 124.964844 C 222.675781 125.414062 223.144531 125.796875 223.664062 126.117188 C 224.1875 126.433594 224.742188 126.671875 225.332031 126.828125 C 225.921875 126.988281 226.523438 127.058594 227.132812 127.046875 C 227.746094 127.035156 228.339844 126.9375 228.921875 126.753906 C 229.507812 126.570312 230.050781 126.308594 230.558594 125.96875 C 231.066406 125.632812 231.519531 125.230469 231.914062 124.761719 L 246.746094 107.296875 L 250.980469 129.835938 C 251.09375 130.429688 251.285156 130.996094 251.554688 131.535156 C 251.828125 132.078125 252.167969 132.570312 252.578125 133.011719 C 252.988281 133.457031 253.453125 133.835938 253.96875 134.148438 C 254.484375 134.460938 255.035156 134.699219 255.621094 134.855469 C 256.203125 135.011719 256.796875 135.085938 257.402344 135.078125 C 258.007812 135.066406 258.597656 134.972656 259.175781 134.796875 C 259.753906 134.617188 260.296875 134.363281 260.800781 134.035156 C 261.308594 133.703125 261.761719 133.308594 262.15625 132.851562 L 277.050781 115.386719 L 281.289062 137.925781 C 281.402344 138.515625 281.589844 139.082031 281.863281 139.621094 C 282.132812 140.160156 282.472656 140.652344 282.882812 141.09375 C 283.289062 141.535156 283.753906 141.914062 284.265625 142.226562 C 284.78125 142.539062 285.332031 142.777344 285.914062 142.933594 C 286.46875 143.023438 287.023438 143.023438 287.582031 142.933594 C 288.519531 142.933594 289.414062 142.738281 290.269531 142.34375 C 291.121094 141.953125 291.851562 141.398438 292.460938 140.6875 L 307.359375 123.21875 L 308.257812 127.90625 C 308.335938 128.320312 308.453125 128.722656 308.605469 129.109375 C 308.761719 129.5 308.957031 129.871094 309.183594 130.222656 C 309.414062 130.574219 309.671875 130.902344 309.964844 131.203125 C 310.257812 131.503906 310.578125 131.773438 310.921875 132.011719 C 311.269531 132.25 311.632812 132.453125 312.019531 132.617188 C 312.402344 132.785156 312.800781 132.914062 313.210938 133 C 313.621094 133.089844 314.035156 133.136719 314.457031 133.144531 C 314.875 133.152344 315.292969 133.121094 315.707031 133.046875 C 316.121094 132.96875 316.527344 132.851562 316.917969 132.695312 C 317.3125 132.535156 317.683594 132.34375 318.039062 132.113281 C 318.394531 131.882812 318.722656 131.617188 319.023438 131.324219 C 319.324219 131.027344 319.597656 130.703125 319.835938 130.355469 C 320.074219 130.007812 320.277344 129.636719 320.441406 129.25 C 320.605469 128.859375 320.734375 128.457031 320.820312 128.042969 C 320.90625 127.628906 320.953125 127.210938 320.957031 126.789062 C 320.957031 126.367188 320.921875 125.949219 320.84375 125.53125 L 317.503906 107.9375 C 317.394531 107.34375 317.203125 106.777344 316.929688 106.234375 C 316.660156 105.695312 316.320312 105.203125 315.910156 104.757812 C 315.5 104.3125 315.035156 103.933594 314.515625 103.621094 C 314 103.308594 313.449219 103.074219 312.867188 102.914062 C 312.28125 102.757812 311.6875 102.683594 311.082031 102.695312 C 310.480469 102.703125 309.886719 102.796875 309.308594 102.976562 C 308.730469 103.152344 308.191406 103.40625 307.683594 103.738281 C 307.175781 104.066406 306.726562 104.460938 306.332031 104.917969 L 291.433594 122.386719 L 287.195312 99.847656 C 287.085938 99.25 286.894531 98.683594 286.625 98.144531 C 286.351562 97.605469 286.011719 97.113281 285.601562 96.667969 C 285.191406 96.222656 284.726562 95.84375 284.210938 95.53125 C 283.691406 95.21875 283.144531 94.984375 282.558594 94.824219 C 281.976562 94.667969 281.382812 94.59375 280.777344 94.605469 C 280.171875 94.613281 279.582031 94.707031 279.003906 94.882812 C 278.425781 95.0625 277.882812 95.316406 277.375 95.644531 C 276.871094 95.976562 276.417969 96.371094 276.023438 96.828125 L 261.128906 114.359375 L 256.953125 91.820312 C 256.84375 91.21875 256.65625 90.640625 256.382812 90.09375 C 256.109375 89.546875 255.765625 89.046875 255.351562 88.597656 C 254.933594 88.148438 254.464844 87.765625 253.941406 87.453125 C 253.417969 87.136719 252.859375 86.902344 252.265625 86.746094 C 251.679688 86.578125 251.082031 86.492188 250.472656 86.492188 C 249.863281 86.492188 249.265625 86.578125 248.679688 86.746094 C 248.09375 86.917969 247.542969 87.167969 247.027344 87.496094 C 246.515625 87.820312 246.054688 88.214844 245.652344 88.671875 L 230.757812 106.140625 L 229.984375 101.515625 C 229.875 100.910156 229.679688 100.332031 229.402344 99.78125 C 229.125 99.230469 228.777344 98.730469 228.355469 98.28125 C 227.933594 97.832031 227.457031 97.449219 226.925781 97.136719 C 226.394531 96.824219 225.832031 96.59375 225.234375 96.441406 L 160.253906 80.195312 L 157.300781 77.179688 Z M 311.660156 164.058594 L 322.703125 164.058594 L 326.878906 179.921875 L 317.4375 189.296875 L 307.9375 179.921875 Z M 347.296875 24.457031 C 347.554688 24.445312 347.789062 24.507812 348.003906 24.652344 C 348.21875 24.792969 348.367188 24.988281 348.453125 25.230469 C 348.597656 25.429688 348.667969 25.65625 348.667969 25.902344 C 348.667969 26.152344 348.597656 26.375 348.453125 26.578125 L 336.636719 39.421875 C 334.835938 41.382812 332.9375 43.246094 330.941406 45.007812 C 328.945312 46.773438 326.867188 48.429688 324.699219 49.976562 C 322.53125 51.523438 320.289062 52.957031 317.976562 54.273438 C 315.660156 55.589844 313.28125 56.78125 310.84375 57.851562 C 308.40625 58.921875 305.917969 59.859375 303.378906 60.671875 C 300.84375 61.484375 298.273438 62.160156 295.664062 62.707031 C 293.058594 63.25 290.429688 63.660156 287.78125 63.933594 C 285.132812 64.203125 282.476562 64.339844 279.8125 64.335938 L 144.972656 64.335938 L 109.078125 28.953125 C 107.464844 27.371094 105.773438 25.871094 104.007812 24.457031 Z M 65.867188 194.046875 C 70.558594 194.050781 75.050781 194.992188 79.351562 196.875 L 133.734375 221.019531 L 186.582031 273.867188 L 92.578125 232.128906 L 92.0625 232.128906 L 38.640625 208.238281 C 40.175781 206.050781 41.945312 204.078125 43.957031 202.316406 C 45.964844 200.554688 48.152344 199.058594 50.523438 197.820312 C 52.890625 196.585938 55.371094 195.652344 57.96875 195.011719 C 60.5625 194.375 63.195312 194.054688 65.867188 194.046875 Z M 81.917969 277.527344 C 81.03125 277.886719 80.125 278.210938 79.210938 278.492188 C 78.292969 278.777344 77.363281 279.019531 76.425781 279.222656 C 75.488281 279.425781 74.542969 279.585938 73.589844 279.707031 C 72.636719 279.828125 71.683594 279.90625 70.722656 279.945312 C 69.765625 279.984375 68.804688 279.980469 67.847656 279.933594 C 66.886719 279.886719 65.933594 279.800781 64.980469 279.671875 C 64.03125 279.546875 63.085938 279.375 62.148438 279.164062 C 61.210938 278.957031 60.285156 278.707031 59.371094 278.414062 C 58.457031 278.125 57.558594 277.796875 56.671875 277.425781 C 55.785156 277.058594 54.914062 276.652344 54.0625 276.207031 C 53.214844 275.761719 52.382812 275.285156 51.574219 274.769531 C 50.765625 274.25 49.980469 273.703125 49.21875 273.117188 C 48.457031 272.535156 47.71875 271.917969 47.011719 271.269531 C 46.304688 270.621094 45.625 269.945312 44.976562 269.238281 C 44.324219 268.53125 43.707031 267.796875 43.121094 267.035156 C 42.535156 266.277344 41.984375 265.492188 41.464844 264.683594 L 89.816406 244.96875 L 124.039062 260.1875 Z M 36.328125 350.796875 C 35.804688 350.753906 35.316406 350.601562 34.863281 350.328125 C 34.410156 350.058594 34.042969 349.699219 33.761719 349.253906 C 33.492188 348.742188 33.359375 348.195312 33.359375 347.617188 C 33.359375 347.039062 33.492188 346.492188 33.761719 345.980469 L 38.257812 336.15625 C 39.113281 334.285156 40.097656 332.484375 41.210938 330.753906 C 42.324219 329.023438 43.554688 327.378906 44.898438 325.824219 C 46.246094 324.269531 47.695312 322.816406 49.25 321.464844 C 50.804688 320.117188 52.445312 318.886719 54.175781 317.769531 C 55.902344 316.65625 57.703125 315.667969 59.574219 314.808594 C 61.441406 313.949219 63.363281 313.230469 65.335938 312.644531 C 67.308594 312.058594 69.3125 311.617188 71.347656 311.316406 C 73.382812 311.015625 75.429688 310.863281 77.488281 310.855469 C 77.636719 310.84375 77.777344 310.867188 77.917969 310.917969 C 78.054688 310.96875 78.175781 311.046875 78.28125 311.152344 C 78.386719 311.257812 78.464844 311.378906 78.515625 311.515625 C 78.566406 311.65625 78.589844 311.796875 78.578125 311.945312 L 78.578125 330.824219 C 78.578125 331.246094 78.621094 331.664062 78.703125 332.078125 C 78.785156 332.492188 78.90625 332.890625 79.070312 333.28125 C 79.230469 333.671875 79.425781 334.042969 79.660156 334.390625 C 79.894531 334.742188 80.164062 335.066406 80.460938 335.367188 C 80.757812 335.664062 81.082031 335.929688 81.433594 336.164062 C 81.785156 336.398438 82.152344 336.597656 82.542969 336.757812 C 82.933594 336.917969 83.335938 337.039062 83.746094 337.121094 C 84.160156 337.203125 84.578125 337.246094 85 337.246094 L 151.523438 337.246094 C 151.789062 337.246094 152.050781 337.230469 152.316406 337.199219 C 152.582031 337.167969 152.84375 337.121094 153.101562 337.054688 C 153.359375 336.992188 153.609375 336.910156 153.859375 336.8125 C 154.105469 336.71875 154.347656 336.609375 154.582031 336.480469 C 154.816406 336.355469 155.042969 336.214844 155.257812 336.0625 C 155.476562 335.90625 155.683594 335.742188 155.878906 335.5625 C 156.074219 335.382812 156.261719 335.191406 156.433594 334.988281 C 156.605469 334.785156 156.765625 334.574219 156.910156 334.351562 C 157.054688 334.128906 157.1875 333.898438 157.304688 333.660156 C 157.421875 333.421875 157.523438 333.175781 157.613281 332.925781 C 157.699219 332.671875 157.769531 332.417969 157.824219 332.15625 C 157.878906 331.898438 157.917969 331.632812 157.941406 331.371094 C 157.964844 331.105469 157.96875 330.839844 157.960938 330.574219 C 157.949219 330.308594 157.921875 330.042969 157.878906 329.78125 C 157.835938 329.519531 157.777344 329.257812 157.703125 329.003906 C 157.625 328.75 157.535156 328.5 157.429688 328.257812 L 150.6875 312.910156 C 150.414062 312.4375 150.414062 311.96875 150.6875 311.496094 C 150.953125 311.066406 151.335938 310.851562 151.84375 310.855469 L 223.628906 310.855469 L 259.074219 346.300781 C 260.6875 347.882812 262.378906 349.382812 264.144531 350.796875 Z M 347.234375 304.433594 C 347.238281 306.714844 347.074219 308.980469 346.742188 311.238281 C 346.410156 313.496094 345.917969 315.714844 345.257812 317.898438 C 344.597656 320.082031 343.78125 322.207031 342.808594 324.269531 C 341.835938 326.332031 340.71875 328.3125 339.453125 330.210938 C 338.1875 332.105469 336.789062 333.902344 335.257812 335.59375 C 333.726562 337.28125 332.082031 338.851562 330.316406 340.300781 C 328.554688 341.746094 326.695312 343.058594 324.738281 344.230469 C 322.785156 345.402344 320.75 346.425781 318.644531 347.296875 C 316.539062 348.171875 314.378906 348.882812 312.164062 349.4375 C 309.953125 349.988281 307.710938 350.375 305.441406 350.597656 C 303.171875 350.820312 300.898438 350.875 298.621094 350.761719 C 296.339844 350.644531 294.085938 350.363281 291.847656 349.917969 C 289.613281 349.46875 287.421875 348.859375 285.273438 348.085938 C 283.128906 347.316406 281.050781 346.390625 279.042969 345.3125 C 277.03125 344.234375 275.113281 343.011719 273.285156 341.648438 C 271.453125 340.289062 269.734375 338.796875 268.125 337.183594 L 34.46875 103.507812 C 33.394531 102.433594 32.378906 101.3125 31.417969 100.136719 C 30.457031 98.964844 29.554688 97.75 28.710938 96.488281 C 27.871094 95.226562 27.089844 93.925781 26.378906 92.589844 C 25.664062 91.25 25.015625 89.882812 24.433594 88.480469 C 23.855469 87.078125 23.34375 85.652344 22.90625 84.203125 C 22.464844 82.75 22.097656 81.28125 21.800781 79.792969 C 21.507812 78.308594 21.285156 76.808594 21.136719 75.300781 C 20.988281 73.789062 20.914062 72.277344 20.914062 70.761719 C 20.914062 69.242188 20.988281 67.730469 21.136719 66.222656 C 21.289062 64.710938 21.507812 63.214844 21.804688 61.726562 C 22.101562 60.238281 22.46875 58.769531 22.910156 57.320312 C 23.351562 55.867188 23.859375 54.441406 24.441406 53.042969 C 25.023438 51.640625 25.667969 50.269531 26.382812 48.933594 C 27.097656 47.597656 27.878906 46.296875 28.71875 45.035156 C 29.5625 43.773438 30.464844 42.558594 31.425781 41.386719 C 32.390625 40.214844 33.40625 39.089844 34.480469 38.019531 C 35.550781 36.945312 36.671875 35.929688 37.84375 34.96875 C 39.019531 34.003906 40.234375 33.101562 41.496094 32.261719 C 42.757812 31.417969 44.054688 30.640625 45.390625 29.925781 C 46.730469 29.210938 48.097656 28.5625 49.5 27.980469 C 50.902344 27.402344 52.328125 26.890625 53.777344 26.449219 C 55.230469 26.007812 56.699219 25.640625 58.183594 25.34375 C 59.671875 25.050781 61.171875 24.828125 62.679688 24.679688 C 64.1875 24.527344 65.703125 24.453125 67.21875 24.453125 C 68.734375 24.453125 70.246094 24.527344 71.757812 24.675781 C 73.265625 24.824219 74.761719 25.046875 76.25 25.34375 C 77.738281 25.636719 79.207031 26.003906 80.660156 26.445312 C 82.109375 26.886719 83.535156 27.394531 84.9375 27.976562 C 86.339844 28.554688 87.707031 29.203125 89.046875 29.917969 C 90.382812 30.632812 91.683594 31.410156 92.941406 32.25 C 94.203125 33.09375 95.421875 33.996094 96.59375 34.957031 C 97.765625 35.917969 98.890625 36.9375 99.960938 38.007812 L 333.621094 271.683594 C 335.78125 273.828125 337.710938 276.160156 339.410156 278.6875 C 341.109375 281.214844 342.542969 283.882812 343.710938 286.691406 C 344.878906 289.503906 345.761719 292.402344 346.351562 295.386719 C 346.945312 298.375 347.238281 301.386719 347.234375 304.433594 Z M 122.5 238.675781 C 122.140625 238.320312 121.820312 237.929688 121.535156 237.507812 C 121.253906 237.085938 121.015625 236.640625 120.820312 236.175781 C 120.628906 235.707031 120.480469 235.222656 120.382812 234.726562 C 120.28125 234.226562 120.234375 233.726562 120.234375 233.21875 C 120.234375 232.710938 120.28125 232.210938 120.382812 231.710938 C 120.480469 231.214844 120.628906 230.734375 120.820312 230.265625 C 121.015625 229.796875 121.253906 229.351562 121.535156 228.929688 C 121.820312 228.507812 122.140625 228.117188 122.5 227.761719 C 122.859375 227.402344 123.25 227.078125 123.675781 226.796875 C 124.101562 226.511719 124.546875 226.273438 125.019531 226.078125 C 125.488281 225.882812 125.972656 225.738281 126.472656 225.636719 C 126.972656 225.539062 127.480469 225.488281 127.988281 225.488281 C 128.5 225.488281 129.003906 225.539062 129.503906 225.636719 C 130.003906 225.738281 130.488281 225.882812 130.960938 226.078125 C 131.429688 226.273438 131.878906 226.511719 132.300781 226.796875 C 132.726562 227.078125 133.117188 227.402344 133.480469 227.761719 C 133.839844 228.117188 134.160156 228.507812 134.441406 228.929688 C 134.722656 229.351562 134.960938 229.796875 135.15625 230.265625 C 135.351562 230.734375 135.496094 231.214844 135.597656 231.710938 C 135.695312 232.210938 135.746094 232.710938 135.746094 233.21875 C 135.746094 233.726562 135.695312 234.226562 135.597656 234.726562 C 135.496094 235.222656 135.351562 235.707031 135.15625 236.175781 C 134.960938 236.640625 134.722656 237.085938 134.441406 237.507812 C 134.160156 237.929688 133.839844 238.320312 133.480469 238.675781 C 133.121094 239.027344 132.730469 239.339844 132.308594 239.617188 C 131.890625 239.890625 131.445312 240.125 130.980469 240.3125 C 130.515625 240.5 130.039062 240.644531 129.546875 240.742188 C 129.050781 240.835938 128.554688 240.886719 128.054688 240.886719 C 127.550781 240.886719 127.054688 240.835938 126.5625 240.742188 C 126.066406 240.644531 125.589844 240.5 125.125 240.3125 C 124.660156 240.125 124.214844 239.890625 123.796875 239.617188 C 123.375 239.339844 122.988281 239.027344 122.628906 238.675781 Z M 51.097656 54.640625 C 50.574219 55.167969 50.078125 55.71875 49.609375 56.292969 C 49.140625 56.871094 48.699219 57.46875 48.289062 58.085938 C 47.878906 58.703125 47.5 59.34375 47.152344 60 C 46.804688 60.652344 46.488281 61.324219 46.203125 62.011719 C 45.921875 62.699219 45.671875 63.398438 45.457031 64.109375 C 45.242188 64.820312 45.066406 65.539062 44.921875 66.269531 C 44.777344 66.996094 44.667969 67.730469 44.59375 68.46875 C 44.523438 69.210938 44.488281 69.949219 44.488281 70.691406 C 44.488281 71.4375 44.523438 72.175781 44.59375 72.914062 C 44.667969 73.65625 44.777344 74.390625 44.921875 75.117188 C 45.066406 75.847656 45.242188 76.566406 45.457031 77.277344 C 45.671875 77.988281 45.921875 78.6875 46.203125 79.375 C 46.488281 80.0625 46.804688 80.730469 47.152344 81.386719 C 47.5 82.042969 47.878906 82.679688 48.289062 83.300781 C 48.699219 83.917969 49.140625 84.515625 49.609375 85.09375 C 50.078125 85.667969 50.574219 86.21875 51.097656 86.746094 C 52.160156 87.789062 53.316406 88.71875 54.5625 89.53125 C 55.808594 90.347656 57.125 91.027344 58.507812 91.582031 C 59.894531 92.132812 61.316406 92.539062 62.78125 92.808594 C 64.25 93.074219 65.726562 93.195312 67.214844 93.167969 C 68.3125 93.144531 69.40625 93.042969 70.492188 92.863281 C 71.578125 92.683594 72.644531 92.429688 73.691406 92.09375 C 74.742188 91.761719 75.757812 91.351562 76.75 90.871094 C 77.738281 90.390625 78.6875 89.839844 79.597656 89.222656 C 80.507812 88.605469 81.371094 87.925781 82.179688 87.183594 C 82.992188 86.4375 83.746094 85.640625 84.445312 84.792969 C 85.140625 83.941406 85.773438 83.042969 86.339844 82.101562 C 86.90625 81.15625 87.402344 80.179688 87.828125 79.164062 C 88.257812 78.148438 88.605469 77.109375 88.882812 76.046875 C 89.160156 74.980469 89.355469 73.902344 89.476562 72.808594 C 89.597656 71.714844 89.636719 70.617188 89.597656 69.519531 C 89.5625 68.417969 89.445312 67.328125 89.25 66.246094 C 89.050781 65.160156 88.78125 64.097656 88.429688 63.054688 C 88.082031 62.011719 87.660156 61 87.164062 60.015625 C 86.667969 59.035156 86.105469 58.09375 85.472656 57.191406 C 84.84375 56.292969 84.148438 55.441406 83.394531 54.640625 C 82.863281 54.113281 82.308594 53.613281 81.730469 53.140625 C 81.152344 52.667969 80.550781 52.226562 79.929688 51.8125 C 79.304688 51.398438 78.664062 51.019531 78.003906 50.667969 C 77.347656 50.316406 76.671875 50 75.980469 49.714844 C 75.289062 49.429688 74.585938 49.179688 73.871094 48.960938 C 73.15625 48.746094 72.429688 48.566406 71.699219 48.421875 C 70.964844 48.277344 70.226562 48.167969 69.484375 48.09375 C 68.738281 48.019531 67.992188 47.984375 67.246094 47.984375 C 66.5 47.984375 65.753906 48.019531 65.011719 48.09375 C 64.265625 48.167969 63.527344 48.277344 62.796875 48.421875 C 62.0625 48.566406 61.339844 48.746094 60.621094 48.960938 C 59.90625 49.179688 59.203125 49.429688 58.515625 49.714844 C 57.824219 50 57.148438 50.316406 56.488281 50.667969 C 55.828125 51.019531 55.1875 51.398438 54.5625 51.8125 C 53.941406 52.226562 53.339844 52.667969 52.761719 53.140625 C 52.183594 53.613281 51.628906 54.113281 51.097656 54.640625 Z M 74.277344 77.820312 C 73.808594 78.269531 73.304688 78.671875 72.757812 79.023438 C 72.210938 79.378906 71.640625 79.675781 71.035156 79.917969 C 70.433594 80.160156 69.8125 80.34375 69.175781 80.46875 C 68.539062 80.589844 67.894531 80.652344 67.246094 80.652344 C 66.597656 80.652344 65.953125 80.589844 65.316406 80.46875 C 64.679688 80.34375 64.058594 80.160156 63.457031 79.917969 C 62.855469 79.675781 62.28125 79.378906 61.734375 79.023438 C 61.191406 78.671875 60.683594 78.269531 60.214844 77.820312 C 59.722656 77.367188 59.277344 76.867188 58.882812 76.324219 C 58.488281 75.78125 58.152344 75.203125 57.875 74.589844 C 57.601562 73.976562 57.386719 73.34375 57.238281 72.691406 C 57.089844 72.035156 57.007812 71.371094 56.992188 70.699219 C 56.980469 70.027344 57.03125 69.363281 57.152344 68.703125 C 57.273438 68.042969 57.457031 67.398438 57.707031 66.777344 C 57.957031 66.152344 58.269531 65.5625 58.640625 65 C 59.007812 64.441406 59.429688 63.921875 59.90625 63.449219 C 60.382812 62.972656 60.898438 62.550781 61.460938 62.179688 C 62.019531 61.8125 62.609375 61.5 63.234375 61.25 C 63.855469 61 64.5 60.816406 65.160156 60.695312 C 65.820312 60.574219 66.488281 60.519531 67.15625 60.535156 C 67.828125 60.550781 68.492188 60.632812 69.148438 60.78125 C 69.800781 60.929688 70.433594 61.140625 71.046875 61.417969 C 71.660156 61.695312 72.238281 62.03125 72.78125 62.425781 C 73.324219 62.820312 73.824219 63.261719 74.277344 63.757812 C 74.746094 64.214844 75.164062 64.714844 75.535156 65.257812 C 75.902344 65.796875 76.214844 66.371094 76.46875 66.972656 C 76.722656 67.578125 76.914062 68.199219 77.046875 68.84375 C 77.175781 69.484375 77.242188 70.132812 77.242188 70.789062 C 77.242188 71.445312 77.175781 72.09375 77.046875 72.734375 C 76.914062 73.378906 76.722656 74 76.46875 74.605469 C 76.214844 75.207031 75.902344 75.78125 75.535156 76.320312 C 75.164062 76.863281 74.746094 77.363281 74.277344 77.820312 Z M 284.757812 320.613281 C 285.824219 321.652344 286.980469 322.578125 288.230469 323.386719 C 289.476562 324.195312 290.792969 324.878906 292.175781 325.429688 C 293.558594 325.980469 294.980469 326.390625 296.445312 326.660156 C 297.910156 326.929688 299.386719 327.054688 300.875 327.035156 C 301.621094 327.042969 302.371094 327.011719 303.117188 326.945312 C 303.863281 326.875 304.601562 326.773438 305.339844 326.628906 C 306.074219 326.488281 306.800781 326.3125 307.519531 326.097656 C 308.238281 325.886719 308.941406 325.636719 309.636719 325.355469 C 310.328125 325.070312 311.007812 324.753906 311.667969 324.402344 C 312.332031 324.054688 312.972656 323.671875 313.597656 323.257812 C 314.222656 322.84375 314.824219 322.398438 315.40625 321.925781 C 315.984375 321.449219 316.539062 320.949219 317.070312 320.421875 C 317.601562 319.890625 318.105469 319.335938 318.578125 318.757812 C 319.054688 318.179688 319.5 317.578125 319.917969 316.957031 C 320.332031 316.332031 320.71875 315.691406 321.070312 315.03125 C 321.421875 314.367188 321.742188 313.691406 322.027344 313 C 322.3125 312.304688 322.5625 311.601562 322.777344 310.882812 C 322.992188 310.164062 323.171875 309.441406 323.3125 308.703125 C 323.457031 307.96875 323.5625 307.226562 323.632812 306.484375 C 323.703125 305.738281 323.734375 304.988281 323.730469 304.238281 C 323.753906 302.75 323.628906 301.273438 323.359375 299.8125 C 323.089844 298.347656 322.679688 296.921875 322.128906 295.539062 C 321.578125 294.15625 320.898438 292.839844 320.085938 291.59375 C 319.277344 290.34375 318.351562 289.1875 317.3125 288.121094 C 316.773438 287.617188 316.214844 287.136719 315.632812 286.6875 C 315.050781 286.234375 314.445312 285.808594 313.824219 285.414062 C 313.203125 285.019531 312.5625 284.65625 311.90625 284.320312 C 311.25 283.984375 310.578125 283.679688 309.890625 283.410156 C 309.207031 283.136719 308.507812 282.898438 307.800781 282.691406 C 307.09375 282.488281 306.378906 282.316406 305.652344 282.175781 C 304.929688 282.039062 304.199219 281.933594 303.464844 281.867188 C 302.730469 281.796875 301.996094 281.761719 301.257812 281.761719 C 300.519531 281.761719 299.785156 281.796875 299.050781 281.867188 C 298.316406 281.933594 297.589844 282.039062 296.863281 282.175781 C 296.140625 282.316406 295.421875 282.488281 294.714844 282.691406 C 294.007812 282.898438 293.3125 283.136719 292.625 283.410156 C 291.941406 283.679688 291.269531 283.984375 290.613281 284.320312 C 289.953125 284.65625 289.316406 285.019531 288.691406 285.414062 C 288.070312 285.808594 287.46875 286.234375 286.886719 286.6875 C 286.304688 287.136719 285.742188 287.617188 285.207031 288.121094 C 284.167969 289.1875 283.242188 290.34375 282.429688 291.59375 C 281.621094 292.839844 280.9375 294.15625 280.386719 295.539062 C 279.835938 296.921875 279.425781 298.347656 279.15625 299.8125 C 278.886719 301.273438 278.761719 302.75 278.785156 304.238281 C 278.769531 305.734375 278.894531 307.214844 279.167969 308.679688 C 279.4375 310.148438 279.847656 311.578125 280.398438 312.964844 C 280.949219 314.351562 281.628906 315.671875 282.4375 316.929688 C 283.246094 318.183594 284.167969 319.347656 285.207031 320.421875 Z M 293.875 297.433594 C 294.34375 296.984375 294.847656 296.582031 295.394531 296.230469 C 295.9375 295.875 296.511719 295.578125 297.117188 295.335938 C 297.71875 295.09375 298.335938 294.910156 298.976562 294.785156 C 299.613281 294.664062 300.257812 294.601562 300.90625 294.601562 C 301.554688 294.601562 302.199219 294.664062 302.835938 294.785156 C 303.472656 294.910156 304.09375 295.09375 304.695312 295.335938 C 305.296875 295.578125 305.871094 295.875 306.417969 296.230469 C 306.960938 296.582031 307.46875 296.984375 307.9375 297.433594 C 308.429688 297.886719 308.875 298.386719 309.269531 298.929688 C 309.664062 299.472656 310 300.050781 310.277344 300.664062 C 310.550781 301.277344 310.765625 301.910156 310.914062 302.5625 C 311.0625 303.21875 311.144531 303.882812 311.160156 304.554688 C 311.171875 305.226562 311.121094 305.890625 311 306.550781 C 310.878906 307.210938 310.695312 307.855469 310.445312 308.476562 C 310.195312 309.101562 309.882812 309.691406 309.511719 310.253906 C 309.144531 310.8125 308.722656 311.332031 308.246094 311.804688 C 307.769531 312.28125 307.253906 312.703125 306.691406 313.074219 C 306.132812 313.441406 305.539062 313.753906 304.917969 314.003906 C 304.292969 314.253906 303.652344 314.441406 302.992188 314.558594 C 302.332031 314.679688 301.664062 314.734375 300.992188 314.71875 C 300.324219 314.703125 299.660156 314.621094 299.003906 314.472656 C 298.351562 314.324219 297.714844 314.113281 297.105469 313.835938 C 296.492188 313.558594 295.914062 313.222656 295.371094 312.828125 C 294.828125 312.433594 294.328125 311.992188 293.875 311.496094 C 293.40625 311.039062 292.988281 310.539062 292.617188 309.996094 C 292.25 309.457031 291.9375 308.882812 291.683594 308.28125 C 291.429688 307.675781 291.234375 307.054688 291.105469 306.410156 C 290.976562 305.769531 290.910156 305.121094 290.910156 304.464844 C 290.910156 303.808594 290.976562 303.160156 291.105469 302.519531 C 291.234375 301.875 291.429688 301.253906 291.683594 300.648438 C 291.9375 300.046875 292.25 299.472656 292.617188 298.933594 C 292.988281 298.390625 293.40625 297.890625 293.875 297.433594 Z M 293.875 297.433594 " fill-opacity="1" fill-rule="nonzero"/></svg>