<svg xmlns="http://www.w3.org/2000/svg" xmlns:xlink="http://www.w3.org/1999/xlink" width="500" zoomAndPan="magnify" viewBox="0 0 375 374.999991" height="500" preserveAspectRatio="xMidYMid meet" version="1.0"><defs><clipPath id="f91f2220ee"><path d="M 4.335938 65.390625 L 370 65.390625 L 370 309.890625 L 4.335938 309.890625 Z M 4.335938 65.390625 " clip-rule="nonzero"/></clipPath><clipPath id="9d3dfa2d8f"><path d="M 4.335938 65.390625 L 370 65.390625 L 370 309.890625 L 4.335938 309.890625 Z M 4.335938 65.390625 " clip-rule="nonzero"/></clipPath></defs><g clip-path="url(#f91f2220ee)"><path fill="#040606" d="M 294.371094 257.222656 C 307.625 236.78125 315.011719 212.675781 315.011719 187.640625 C 315.011719 162.605469 307.625 138.5 294.371094 118.054688 C 328.714844 144.828125 350.703125 177.027344 357.425781 187.640625 C 350.703125 198.253906 328.714844 230.453125 294.371094 257.222656 Z M 175.175781 296.753906 L 175.175781 230.285156 L 199.496094 230.285156 L 199.496094 296.753906 C 195.503906 297.085938 191.46875 297.300781 187.335938 297.300781 C 183.203125 297.300781 179.164062 297.085938 175.175781 296.753906 Z M 17.246094 187.640625 C 23.964844 177.027344 45.957031 144.828125 80.300781 118.054688 C 67.046875 138.5 59.660156 162.605469 59.660156 187.640625 C 59.660156 212.675781 67.046875 236.78125 80.300781 257.25 C 45.957031 230.453125 23.964844 198.253906 17.246094 187.640625 Z M 114.378906 277.285156 L 114.378906 254.65625 L 138.699219 254.65625 L 138.699219 289.28125 C 132.546875 287.257812 126.609375 284.878906 120.863281 282.234375 C 118.628906 280.664062 116.46875 279 114.378906 277.285156 Z M 260.292969 277.285156 C 258.203125 279 256.042969 280.664062 253.808594 282.234375 C 248.0625 284.878906 242.125 287.257812 235.972656 289.28125 L 235.972656 205.917969 L 260.292969 205.917969 Z M 253.855469 93.070312 C 284.539062 114.722656 302.851562 150.039062 302.851562 187.640625 C 302.851562 216.839844 291.757812 244.660156 272.453125 265.769531 L 272.453125 205.917969 C 272.453125 199.207031 266.988281 193.734375 260.292969 193.734375 L 235.972656 193.734375 C 229.277344 193.734375 223.8125 199.207031 223.8125 205.917969 L 223.8125 292.800781 C 219.824219 293.777344 215.785156 294.609375 211.65625 295.277344 L 211.65625 230.285156 C 211.65625 223.574219 206.191406 218.101562 199.496094 218.101562 L 175.175781 218.101562 C 168.480469 218.101562 163.015625 223.574219 163.015625 230.285156 L 163.015625 295.277344 C 158.882812 294.609375 154.847656 293.777344 150.855469 292.800781 L 150.855469 254.65625 C 150.855469 247.945312 145.394531 242.46875 138.699219 242.46875 L 114.378906 242.46875 C 107.679688 242.46875 102.21875 247.945312 102.21875 254.65625 L 102.21875 265.769531 C 82.910156 244.660156 71.820312 216.839844 71.820312 187.640625 C 71.820312 150.039062 90.132812 114.722656 120.816406 93.070312 C 140.644531 83.929688 162.898438 77.980469 187.335938 77.980469 C 211.773438 77.980469 234.027344 83.929688 253.855469 93.070312 Z M 187.335938 65.796875 C 84.835938 65.796875 18.882812 162.199219 6.722656 181.523438 C 4.351562 185.285156 4.351562 189.996094 6.722656 193.757812 C 18.882812 213.078125 84.8125 309.484375 187.335938 309.484375 C 289.859375 309.484375 355.785156 213.078125 367.945312 193.757812 C 370.320312 189.996094 370.320312 185.308594 367.945312 181.523438 C 355.785156 162.199219 289.835938 65.796875 187.335938 65.796875 " fill-opacity="1" fill-rule="nonzero"/></g><path fill="#040606" d="M 126.539062 205.917969 C 119.839844 205.917969 114.378906 200.445312 114.378906 193.734375 C 114.378906 187.023438 119.839844 181.546875 126.539062 181.546875 C 133.234375 181.546875 138.699219 187.023438 138.699219 193.734375 C 138.699219 200.445312 133.234375 205.917969 126.539062 205.917969 Z M 187.335938 157.179688 C 194.03125 157.179688 199.496094 162.652344 199.496094 169.363281 C 199.496094 176.074219 194.03125 181.546875 187.335938 181.546875 C 180.636719 181.546875 175.175781 176.074219 175.175781 169.363281 C 175.175781 162.652344 180.636719 157.179688 187.335938 157.179688 Z M 248.132812 132.808594 C 254.828125 132.808594 260.292969 138.285156 260.292969 144.996094 C 260.292969 151.707031 254.828125 157.179688 248.132812 157.179688 C 241.433594 157.179688 235.972656 151.707031 235.972656 144.996094 C 235.972656 138.285156 241.433594 132.808594 248.132812 132.808594 Z M 126.539062 169.363281 C 113.121094 169.363281 102.21875 180.285156 102.21875 193.734375 C 102.21875 207.179688 113.121094 218.101562 126.539062 218.101562 C 139.957031 218.101562 150.855469 207.179688 150.855469 193.734375 C 150.855469 192.683594 150.667969 191.6875 150.546875 190.6875 L 167.8125 183.738281 C 172.230469 189.757812 179.308594 193.734375 187.335938 193.734375 C 200.753906 193.734375 211.65625 182.808594 211.65625 169.363281 C 211.65625 168.316406 211.464844 167.316406 211.34375 166.316406 L 228.609375 159.367188 C 233.027344 165.390625 240.105469 169.363281 248.132812 169.363281 C 261.550781 169.363281 272.453125 158.441406 272.453125 144.996094 C 272.453125 131.550781 261.550781 120.625 248.132812 120.625 C 234.714844 120.625 223.8125 131.550781 223.8125 144.996094 C 223.8125 146.042969 224.003906 147.042969 224.121094 148.039062 L 206.855469 154.988281 C 202.441406 148.96875 195.363281 144.996094 187.335938 144.996094 C 173.917969 144.996094 163.015625 155.917969 163.015625 169.363281 C 163.015625 170.410156 163.207031 171.410156 163.324219 172.410156 L 146.058594 179.359375 C 141.640625 173.335938 134.566406 169.363281 126.539062 169.363281 " fill-opacity="1" fill-rule="nonzero"/><g clip-path="url(#9d3dfa2d8f)"><path fill="#040606" d="M 294.371094 257.222656 C 307.625 236.78125 315.011719 212.675781 315.011719 187.640625 C 315.011719 162.605469 307.625 138.5 294.371094 118.054688 C 328.714844 144.828125 350.703125 177.027344 357.425781 187.640625 C 350.703125 198.253906 328.714844 230.453125 294.371094 257.222656 Z M 175.175781 296.753906 L 175.175781 230.285156 L 199.496094 230.285156 L 199.496094 296.753906 C 195.503906 297.085938 191.46875 297.300781 187.335938 297.300781 C 183.203125 297.300781 179.164062 297.085938 175.175781 296.753906 Z M 17.246094 187.640625 C 23.964844 177.027344 45.957031 144.828125 80.300781 118.054688 C 67.046875 138.5 59.660156 162.605469 59.660156 187.640625 C 59.660156 212.675781 67.046875 236.78125 80.300781 257.25 C 45.957031 230.453125 23.964844 198.253906 17.246094 187.640625 Z M 114.378906 277.285156 L 114.378906 254.65625 L 138.699219 254.65625 L 138.699219 289.28125 C 132.546875 287.257812 126.609375 284.878906 120.863281 282.234375 C 118.628906 280.664062 116.46875 279 114.378906 277.285156 Z M 260.292969 277.285156 C 258.203125 279 256.042969 280.664062 253.808594 282.234375 C 248.0625 284.878906 242.125 287.257812 235.972656 289.28125 L 235.972656 205.917969 L 260.292969 205.917969 Z M 253.855469 93.070312 C 284.539062 114.722656 302.851562 150.039062 302.851562 187.640625 C 302.851562 216.839844 291.757812 244.660156 272.453125 265.769531 L 272.453125 205.917969 C 272.453125 199.207031 266.988281 193.734375 260.292969 193.734375 L 235.972656 193.734375 C 229.277344 193.734375 223.8125 199.207031 223.8125 205.917969 L 223.8125 292.800781 C 219.824219 293.777344 215.785156 294.609375 211.65625 295.277344 L 211.65625 230.285156 C 211.65625 223.574219 206.191406 218.101562 199.496094 218.101562 L 175.175781 218.101562 C 168.480469 218.101562 163.015625 223.574219 163.015625 230.285156 L 163.015625 295.277344 C 158.882812 294.609375 154.847656 293.777344 150.855469 292.800781 L 150.855469 254.65625 C 150.855469 247.945312 145.394531 242.46875 138.699219 242.46875 L 114.378906 242.46875 C 107.679688 242.46875 102.21875 247.945312 102.21875 254.65625 L 102.21875 265.769531 C 82.910156 244.660156 71.820312 216.839844 71.820312 187.640625 C 71.820312 150.039062 90.132812 114.722656 120.816406 93.070312 C 140.644531 83.929688 162.898438 77.980469 187.335938 77.980469 C 211.773438 77.980469 234.027344 83.929688 253.855469 93.070312 Z M 187.335938 65.796875 C 84.835938 65.796875 18.882812 162.199219 6.722656 181.523438 C 4.351562 185.285156 4.351562 189.996094 6.722656 193.757812 C 18.882812 213.078125 84.8125 309.484375 187.335938 309.484375 C 289.859375 309.484375 355.785156 213.078125 367.945312 193.757812 C 370.320312 189.996094 370.320312 185.308594 367.945312 181.523438 C 355.785156 162.199219 289.835938 65.796875 187.335938 65.796875 " fill-opacity="1" fill-rule="nonzero"/></g><path fill="#040606" d="M 126.539062 205.917969 C 119.839844 205.917969 114.378906 200.445312 114.378906 193.734375 C 114.378906 187.023438 119.839844 181.546875 126.539062 181.546875 C 133.234375 181.546875 138.699219 187.023438 138.699219 193.734375 C 138.699219 200.445312 133.234375 205.917969 126.539062 205.917969 Z M 187.335938 157.179688 C 194.03125 157.179688 199.496094 162.652344 199.496094 169.363281 C 199.496094 176.074219 194.03125 181.546875 187.335938 181.546875 C 180.636719 181.546875 175.175781 176.074219 175.175781 169.363281 C 175.175781 162.652344 180.636719 157.179688 187.335938 157.179688 Z M 248.132812 132.808594 C 254.828125 132.808594 260.292969 138.285156 260.292969 144.996094 C 260.292969 151.707031 254.828125 157.179688 248.132812 157.179688 C 241.433594 157.179688 235.972656 151.707031 235.972656 144.996094 C 235.972656 138.285156 241.433594 132.808594 248.132812 132.808594 Z M 126.539062 169.363281 C 113.121094 169.363281 102.21875 180.285156 102.21875 193.734375 C 102.21875 207.179688 113.121094 218.101562 126.539062 218.101562 C 139.957031 218.101562 150.855469 207.179688 150.855469 193.734375 C 150.855469 192.683594 150.667969 191.6875 150.546875 190.6875 L 167.8125 183.738281 C 172.230469 189.757812 179.308594 193.734375 187.335938 193.734375 C 200.753906 193.734375 211.65625 182.808594 211.65625 169.363281 C 211.65625 168.316406 211.464844 167.316406 211.34375 166.316406 L 228.609375 159.367188 C 233.027344 165.390625 240.105469 169.363281 248.132812 169.363281 C 261.550781 169.363281 272.453125 158.441406 272.453125 144.996094 C 272.453125 131.550781 261.550781 120.625 248.132812 120.625 C 234.714844 120.625 223.8125 131.550781 223.8125 144.996094 C 223.8125 146.042969 224.003906 147.042969 224.121094 148.039062 L 206.855469 154.988281 C 202.441406 148.96875 195.363281 144.996094 187.335938 144.996094 C 173.917969 144.996094 163.015625 155.917969 163.015625 169.363281 C 163.015625 170.410156 163.207031 171.410156 163.324219 172.410156 L 146.058594 179.359375 C 141.640625 173.335938 134.566406 169.363281 126.539062 169.363281 " fill-opacity="1" fill-rule="nonzero"/></svg>