<svg xmlns="http://www.w3.org/2000/svg" xmlns:xlink="http://www.w3.org/1999/xlink" width="500" zoomAndPan="magnify" viewBox="0 0 375 374.999991" height="500" preserveAspectRatio="xMidYMid meet" version="1.0"><defs><clipPath id="cbfc677070"><path d="M 132 2.558594 L 243 2.558594 L 243 167 L 132 167 Z M 132 2.558594 " clip-rule="nonzero"/></clipPath><clipPath id="e03be046b7"><path d="M 28 118 L 188 118 L 188 372.308594 L 28 372.308594 Z M 28 118 " clip-rule="nonzero"/></clipPath><clipPath id="e991cf265e"><path d="M 187 118 L 348 118 L 348 372.308594 L 187 372.308594 Z M 187 118 " clip-rule="nonzero"/></clipPath><clipPath id="3ad283ca88"><path d="M 132 2.558594 L 243 2.558594 L 243 167 L 132 167 Z M 132 2.558594 " clip-rule="nonzero"/></clipPath><clipPath id="a0387ece3a"><path d="M 28 118 L 188 118 L 188 372.308594 L 28 372.308594 Z M 28 118 " clip-rule="nonzero"/></clipPath><clipPath id="246935acbe"><path d="M 187 118 L 348 118 L 348 372.308594 L 187 372.308594 Z M 187 118 " clip-rule="nonzero"/></clipPath></defs><g clip-path="url(#cbfc677070)"><path fill="#f4c323" d="M 208.699219 93.273438 L 209.035156 92.9375 L 242.539062 59.460938 L 193.226562 10.195312 C 191.058594 8.027344 189.1875 5.460938 187.574219 2.613281 C 185.960938 5.460938 184.085938 8.027344 181.917969 10.195312 L 132.605469 59.460938 L 166.113281 92.9375 L 166.121094 92.945312 L 166.445312 93.273438 C 168.292969 95.152344 177.144531 104.695312 177.144531 114.574219 C 177.144531 125.433594 171.769531 131.0625 171.601562 131.234375 L 171.597656 131.238281 L 162.003906 140.824219 L 187.574219 166.371094 L 213.144531 140.824219 L 203.550781 131.238281 L 203.546875 131.234375 C 203.378906 131.0625 198.003906 125.433594 198.003906 114.574219 C 198.003906 104.695312 206.855469 95.152344 208.699219 93.273438 " fill-opacity="1" fill-rule="evenodd"/></g><g clip-path="url(#e03be046b7)"><path fill="#e7dd2f" d="M 187.574219 324.699219 L 187.574219 372.257812 L 56.132812 240.929688 C 22.214844 207.042969 28.609375 162.527344 28.609375 118.316406 L 169.828125 259.410156 C 183.015625 272.585938 187.574219 302.300781 187.574219 324.699219 " fill-opacity="1" fill-rule="evenodd"/></g><g clip-path="url(#e991cf265e)"><path fill="#8c9e46" d="M 187.574219 324.699219 L 187.574219 372.257812 L 319.015625 240.929688 C 352.933594 207.042969 346.539062 162.527344 346.539062 118.316406 L 205.320312 259.410156 C 192.132812 272.585938 187.574219 302.300781 187.574219 324.699219 " fill-opacity="1" fill-rule="evenodd"/></g><path fill="#8c9e46" d="M 187.574219 209.949219 L 187.574219 242.492188 L 97.636719 152.632812 C 74.429688 129.445312 78.804688 98.988281 78.804688 68.738281 L 175.429688 165.277344 C 184.457031 174.292969 187.574219 194.625 187.574219 209.949219 " fill-opacity="1" fill-rule="evenodd"/><path fill="#e7dd2f" d="M 187.574219 209.949219 L 187.574219 242.492188 L 277.511719 152.632812 C 300.71875 129.445312 296.34375 98.988281 296.34375 68.738281 L 199.71875 165.277344 C 190.691406 174.292969 187.574219 194.625 187.574219 209.949219 " fill-opacity="1" fill-rule="evenodd"/><g clip-path="url(#3ad283ca88)"><path fill="#f4c323" d="M 208.699219 93.273438 L 209.035156 92.9375 L 242.539062 59.460938 L 193.226562 10.195312 C 191.058594 8.027344 189.1875 5.460938 187.574219 2.613281 C 185.960938 5.460938 184.085938 8.027344 181.917969 10.195312 L 132.605469 59.460938 L 166.113281 92.9375 L 166.121094 92.945312 L 166.445312 93.273438 C 168.292969 95.152344 177.144531 104.695312 177.144531 114.574219 C 177.144531 125.433594 171.769531 131.0625 171.601562 131.234375 L 171.597656 131.238281 L 162.003906 140.824219 L 187.574219 166.371094 L 213.144531 140.824219 L 203.550781 131.238281 L 203.546875 131.234375 C 203.378906 131.0625 198.003906 125.433594 198.003906 114.574219 C 198.003906 104.695312 206.855469 95.152344 208.699219 93.273438 " fill-opacity="1" fill-rule="evenodd"/></g><g clip-path="url(#a0387ece3a)"><path fill="#e7dd2f" d="M 187.574219 324.699219 L 187.574219 372.257812 L 56.132812 240.929688 C 22.214844 207.042969 28.609375 162.527344 28.609375 118.316406 L 169.828125 259.410156 C 183.015625 272.585938 187.574219 302.300781 187.574219 324.699219 " fill-opacity="1" fill-rule="evenodd"/></g><g clip-path="url(#246935acbe)"><path fill="#8c9e46" d="M 187.574219 324.699219 L 187.574219 372.257812 L 319.015625 240.929688 C 352.933594 207.042969 346.539062 162.527344 346.539062 118.316406 L 205.320312 259.410156 C 192.132812 272.585938 187.574219 302.300781 187.574219 324.699219 " fill-opacity="1" fill-rule="evenodd"/></g><path fill="#8c9e46" d="M 187.574219 209.949219 L 187.574219 242.492188 L 97.636719 152.632812 C 74.429688 129.445312 78.804688 98.988281 78.804688 68.738281 L 175.429688 165.277344 C 184.457031 174.292969 187.574219 194.625 187.574219 209.949219 " fill-opacity="1" fill-rule="evenodd"/><path fill="#e7dd2f" d="M 187.574219 209.949219 L 187.574219 242.492188 L 277.511719 152.632812 C 300.71875 129.445312 296.34375 98.988281 296.34375 68.738281 L 199.71875 165.277344 C 190.691406 174.292969 187.574219 194.625 187.574219 209.949219 " fill-opacity="1" fill-rule="evenodd"/></svg>