<svg xmlns="http://www.w3.org/2000/svg" xmlns:xlink="http://www.w3.org/1999/xlink" width="1366" zoomAndPan="magnify" viewBox="0 0 1024.5 576" height="768" preserveAspectRatio="xMidYMid meet" version="1.0"><defs><clipPath id="54a49866d3"><path d="M 251.28125 489 L 384 489 L 384 527 L 251.28125 527 Z M 251.28125 489 " clip-rule="nonzero"/></clipPath></defs><path fill="#ffffff" d="M 437.976562 60.632812 C 432.542969 60.65625 425.691406 60.179688 421.871094 63.15625 C 418.570312 65.726562 418.15625 71.445312 418.171875 77.042969 C 418.199219 86.046875 418.171875 94.128906 418.371094 104.175781 C 418.46875 108.996094 418.753906 118.851562 431.746094 119.570312 C 437.988281 119.914062 447.136719 120.039062 452.097656 119.980469 C 462.039062 119.855469 501.304688 119.890625 510.902344 119.78125 C 519.121094 119.6875 525.226562 119.929688 525.824219 110.425781 C 526.066406 106.625 526.273438 99.765625 526.34375 99.070312 C 526.410156 98.40625 530.296875 99.617188 531.523438 97.546875 C 532.277344 96.273438 532.308594 94.613281 532.277344 92.632812 C 532.214844 88.414062 532.175781 85.871094 532.066406 82.25 C 532.015625 80.480469 531.945312 78.96875 531.675781 78.425781 C 530.59375 76.210938 526.527344 77.5625 526.328125 76.320312 C 526.136719 75.117188 527.101562 66.0625 523.613281 62.75 C 522.121094 61.332031 520.199219 60.941406 514.328125 60.820312 C 508.644531 60.703125 503.253906 60.511719 497.570312 60.476562 C 477.632812 60.367188 456.09375 60.542969 437.976562 60.632812 " fill-opacity="1" fill-rule="evenodd"/><path fill="#e26659" d="M 432.554688 66.9375 C 426.539062 67.566406 427.253906 72.121094 427.253906 74.503906 C 427.253906 77.445312 427.164062 99.710938 427.265625 103.253906 C 427.460938 110.097656 429.015625 111.464844 433.550781 111.570312 C 434.796875 111.59375 440.210938 111.652344 441.382812 111.210938 C 445.230469 109.769531 444.910156 104.945312 444.929688 100.632812 C 444.964844 93.128906 444.964844 81.445312 444.816406 73.96875 C 444.730469 69.507812 444.605469 67.007812 439.550781 66.867188 C 438.507812 66.839844 435.09375 66.671875 432.554688 66.9375 " fill-opacity="1" fill-rule="evenodd"/><path fill="#e26659" d="M 455.003906 67.113281 C 448.992188 67.742188 449.707031 72.289062 449.707031 74.679688 C 449.707031 77.617188 449.617188 99.882812 449.71875 103.429688 C 449.914062 110.273438 451.46875 111.640625 456.003906 111.742188 C 457.246094 111.773438 462.660156 111.828125 463.835938 111.386719 C 467.6875 109.945312 467.363281 105.121094 467.382812 100.808594 C 467.417969 93.304688 467.417969 81.617188 467.269531 74.144531 C 467.183594 69.683594 467.054688 67.179688 462.003906 67.042969 C 460.960938 67.015625 457.542969 66.847656 455.003906 67.113281 " fill-opacity="1" fill-rule="evenodd"/><path fill="#f2dfd6" d="M 478.039062 66.9375 C 472.027344 67.566406 472.742188 72.121094 472.742188 74.503906 C 472.742188 77.445312 472.652344 99.710938 472.753906 103.253906 C 472.949219 110.097656 474.5 111.464844 479.039062 111.570312 C 480.28125 111.59375 485.695312 111.652344 486.871094 111.210938 C 490.722656 109.769531 490.398438 104.945312 490.421875 100.632812 C 490.449219 93.128906 490.453125 81.445312 490.304688 73.96875 C 490.21875 69.507812 490.089844 67.007812 485.039062 66.867188 C 483.996094 66.839844 480.578125 66.671875 478.039062 66.9375 " fill-opacity="1" fill-rule="evenodd"/><path fill="#f2dfd6" d="M 500.492188 67.113281 C 494.480469 67.742188 495.191406 72.289062 495.191406 74.679688 C 495.195312 77.617188 495.105469 99.882812 495.203125 103.429688 C 495.398438 110.273438 496.953125 111.640625 501.492188 111.742188 C 502.734375 111.773438 508.152344 111.828125 509.320312 111.386719 C 513.171875 109.945312 512.851562 105.121094 512.871094 100.808594 C 512.902344 93.304688 512.90625 81.617188 512.761719 74.144531 C 512.671875 69.683594 512.542969 67.179688 507.488281 67.042969 C 506.449219 67.015625 503.03125 66.847656 500.492188 67.113281 " fill-opacity="1" fill-rule="evenodd"/><path fill="#cea99a" d="M 438.59375 62.003906 C 433.277344 62.03125 426.585938 61.574219 422.847656 64.402344 C 419.625 66.839844 419.21875 72.257812 419.234375 77.566406 C 419.257812 86.105469 419.234375 93.769531 419.429688 103.300781 C 419.523438 107.867188 419.800781 117.210938 432.503906 117.890625 C 438.605469 118.21875 447.554688 118.339844 452.398438 118.28125 C 462.121094 118.164062 500.507812 118.195312 509.890625 118.09375 C 517.921875 118.003906 523.890625 118.234375 524.480469 109.222656 C 524.710938 105.617188 524.917969 99.117188 524.984375 98.453125 C 525.042969 97.824219 528.84375 98.96875 530.046875 97.007812 C 530.789062 95.804688 530.816406 94.226562 530.789062 92.347656 C 530.722656 88.347656 530.691406 85.933594 530.578125 82.503906 C 530.527344 80.824219 530.457031 79.390625 530.199219 78.878906 C 529.136719 76.78125 525.160156 78.058594 524.96875 76.882812 C 524.785156 75.742188 525.722656 67.152344 522.3125 64.011719 C 520.851562 62.667969 518.976562 62.300781 513.238281 62.179688 C 507.683594 62.070312 502.40625 61.886719 496.855469 61.859375 C 477.363281 61.757812 456.308594 61.921875 438.59375 62.003906 Z M 435.90625 58.433594 C 430.242188 58.460938 423.105469 57.953125 419.121094 61.128906 C 415.679688 63.867188 415.246094 69.96875 415.261719 75.933594 C 415.292969 85.535156 415.261719 94.15625 415.472656 104.871094 C 415.570312 110.007812 415.867188 120.515625 429.417969 121.285156 C 435.925781 121.652344 445.460938 121.789062 450.628906 121.71875 C 460.996094 121.585938 501.925781 121.625 511.929688 121.507812 C 520.5 121.40625 527.769531 121.6875 528.398438 111.550781 C 528.644531 107.492188 528.6875 102.476562 528.757812 101.730469 C 528.824219 101.023438 532.460938 102.246094 534.011719 99.660156 C 534.816406 98.316406 534.804688 96.578125 534.773438 94.464844 C 534.707031 89.972656 534.746094 85.527344 534.644531 81.667969 C 534.566406 78.789062 534.644531 76.765625 534.421875 76.164062 C 533.273438 73.074219 528.804688 75.070312 528.597656 73.746094 C 528.402344 72.464844 528.808594 63.78125 524.734375 60.871094 C 523 59.625 521.621094 58.765625 515.503906 58.636719 C 509.582031 58.511719 503.957031 58.308594 498.027344 58.269531 C 477.25 58.15625 454.796875 58.339844 435.90625 58.433594 " fill-opacity="1" fill-rule="evenodd"/><path fill="#f3b08c" d="M 500.039062 176.859375 C 494.234375 174.472656 488.59375 172.992188 485.621094 172.816406 C 481.242188 172.558594 475.183594 173.691406 469.707031 179.582031 C 466.644531 182.875 463.214844 188.574219 463.539062 199.914062 C 463.777344 208.214844 468.289062 218.867188 474.75 224.332031 C 476.921875 226.164062 480.261719 228.820312 493.382812 228.863281 C 499.265625 228.878906 508.851562 228.191406 512.851562 227.679688 C 519.476562 226.832031 526.0625 225.328125 529.652344 221.292969 C 532.746094 217.820312 532.273438 213.875 532.28125 213.863281 C 532.375 213.710938 544.773438 212.789062 546.085938 212.820312 C 547.800781 212.859375 559.125 181.597656 557.535156 181.921875 C 552.75 182.882812 518.589844 182.65625 513.714844 181.910156 C 509.234375 181.222656 504.179688 178.5625 500.039062 176.859375 " fill-opacity="1" fill-rule="evenodd"/><path fill="#212121" d="M 461.855469 211.429688 C 462.890625 214.800781 461.917969 227.472656 474.609375 235.003906 C 479.6875 238.023438 486.789062 237.800781 489.976562 237.480469 C 500.289062 236.425781 503.183594 228.546875 503.113281 228.550781 C 499.925781 228.628906 491.03125 228.773438 490.976562 228.75 C 478.71875 223.878906 476.027344 219.59375 473.355469 215.066406 C 473.28125 214.949219 481.898438 212.3125 484.652344 207.765625 C 486.921875 204.015625 486.117188 197.402344 490.757812 195.050781 C 500.238281 190.253906 500.792969 189.175781 499.816406 184.511719 C 499.789062 184.367188 510.003906 181.332031 513.90625 182.238281 C 518.207031 183.234375 523.140625 184.722656 527.296875 186.320312 C 529.835938 187.296875 532.101562 187.609375 533.386719 187.6875 C 534.410156 187.75 534.605469 186.863281 534.644531 186.417969 C 535.296875 178.832031 532.214844 157.265625 530.097656 151.078125 C 529.976562 150.726562 523.8125 150.640625 517.414062 154.433594 C 511.785156 157.769531 508.195312 155.574219 502.632812 157.484375 C 498.792969 158.800781 497.914062 161.667969 493.757812 163.019531 C 491.527344 163.742188 488.222656 163.371094 485.4375 163.96875 C 481.757812 164.761719 480.101562 165.632812 477.214844 168.078125 C 474.78125 170.128906 475.449219 171.394531 469.507812 173.851562 C 464.726562 175.828125 461.226562 180.59375 459.65625 183.699219 C 457.164062 188.652344 456.652344 191.144531 457.554688 198.714844 C 458.285156 204.804688 460.714844 207.707031 461.855469 211.429688 " fill-opacity="1" fill-rule="evenodd"/><path fill="#212121" d="M 494.566406 208.476562 C 494.601562 209.144531 494.582031 209.796875 494.152344 210.351562 C 493.566406 211.113281 492.460938 211.328125 491.980469 210.582031 C 491.167969 209.3125 490.996094 206.535156 491.15625 205.113281 C 491.410156 202.742188 491.484375 201.828125 493.003906 199.691406 C 494.070312 198.191406 495.9375 197.9375 496.042969 198.546875 C 496.148438 199.148438 495.394531 200.519531 495.238281 201.082031 C 495.019531 201.816406 494.945312 202.050781 494.710938 203.359375 C 494.40625 205.054688 494.472656 206.777344 494.566406 208.476562 " fill-opacity="1" fill-rule="evenodd"/><path fill="#212121" d="M 497.105469 228.804688 C 497.109375 228.808594 496.398438 228.835938 495.949219 228.84375 C 495.210938 228.851562 494.589844 228.859375 494.589844 228.859375 C 493.554688 227.351562 492.824219 224.632812 492.558594 222.902344 C 492.324219 221.328125 492.695312 220.8125 493.054688 220.652344 C 493.792969 220.328125 494.601562 220.289062 495.011719 220.683594 C 495.5 221.152344 495.636719 221.8125 495.972656 223.46875 C 496.296875 225.09375 496.289062 226.996094 497.105469 228.804688 " fill-opacity="1" fill-rule="evenodd"/><path fill="#212121" d="M 499.714844 216.570312 C 502.285156 217 504.121094 217.824219 504.945312 218.183594 C 506.085938 218.6875 506.941406 219.273438 507.640625 219.628906 C 508.230469 219.929688 508.734375 220.066406 509.183594 219.984375 C 510.1875 219.8125 510.90625 218.8125 511.261719 217.515625 C 511.539062 216.484375 511.609375 215.28125 511.5 214.324219 C 511.417969 213.613281 511.226562 213.027344 510.976562 212.695312 C 510.804688 212.460938 510.484375 212.417969 510.257812 212.585938 C 510.023438 212.753906 509.976562 213.078125 510.144531 213.308594 C 510.320312 213.539062 510.417969 213.953125 510.476562 214.441406 C 510.574219 215.285156 510.511719 216.339844 510.265625 217.246094 C 510.132812 217.71875 509.957031 218.144531 509.714844 218.472656 C 509.519531 218.730469 509.292969 218.921875 509 218.972656 C 508.738281 219.023438 508.457031 218.886719 508.109375 218.714844 C 507.402344 218.351562 506.523438 217.753906 505.363281 217.242188 C 504.5 216.863281 502.574219 216.003906 499.886719 215.558594 C 499.605469 215.511719 499.339844 215.703125 499.292969 215.980469 C 499.25 216.261719 499.4375 216.527344 499.714844 216.570312 " fill-opacity="1" fill-rule="evenodd"/><path fill="#b44c3f" d="M 519.984375 220.257812 C 519.070312 220.21875 517.011719 220.109375 515.414062 217.980469 C 514.242188 216.425781 514.117188 214.246094 514.390625 212.804688 C 514.609375 211.636719 515.222656 208.96875 517.789062 208.183594 C 518.472656 207.972656 521.136719 207.957031 523.070312 211.605469 C 524.027344 213.40625 523.945312 215.816406 523.21875 217.578125 C 522.597656 219.089844 521.160156 220.3125 519.984375 220.257812 " fill-opacity="1" fill-rule="evenodd"/><path fill="#212121" d="M 517.632812 206.835938 C 517.148438 209.183594 517.183594 211.101562 517.246094 212.191406 C 517.5 216.195312 518.289062 218.316406 520.144531 221.253906 C 520.300781 221.492188 520.617188 221.566406 520.855469 221.414062 C 521.097656 221.261719 521.171875 220.945312 521.019531 220.707031 C 519.257812 217.925781 518.515625 215.917969 518.28125 212.125 C 518.214844 211.09375 518.1875 209.269531 518.644531 207.039062 C 518.703125 206.761719 518.519531 206.492188 518.238281 206.429688 C 517.960938 206.378906 517.691406 206.554688 517.632812 206.835938 " fill-opacity="1" fill-rule="evenodd"/><path fill="#212121" d="M 498.441406 223.742188 C 498.480469 222.515625 499.515625 221.554688 500.753906 221.59375 C 501.984375 221.640625 502.957031 222.667969 502.910156 223.890625 C 502.871094 225.117188 501.832031 226.078125 500.597656 226.039062 C 499.367188 225.996094 498.394531 224.964844 498.441406 223.742188 " fill-opacity="1" fill-rule="evenodd"/><path fill="#212121" d="M 498 205.246094 C 498.046875 203.921875 499.214844 202.890625 500.609375 202.9375 C 502.003906 202.984375 503.101562 204.097656 503.058594 205.417969 C 503.011719 206.738281 501.84375 207.777344 500.449219 207.730469 C 499.054688 207.683594 497.957031 206.570312 498 205.246094 " fill-opacity="1" fill-rule="evenodd"/><path fill="#212121" d="M 533.183594 212.445312 C 533.179688 210.417969 532.765625 208.5 532.40625 207.160156 C 531.324219 203.125 530.195312 200.828125 527.816406 198.261719 C 527.621094 198.054688 527.292969 198.039062 527.085938 198.230469 C 526.871094 198.425781 526.859375 198.753906 527.054688 198.960938 C 529.316406 201.402344 530.378906 203.589844 531.410156 207.425781 C 531.75 208.699219 532.148438 210.519531 532.148438 212.449219 C 532.148438 212.734375 532.382812 212.960938 532.667969 212.960938 C 532.953125 212.960938 533.183594 212.730469 533.183594 212.445312 " fill-opacity="1" fill-rule="evenodd"/><path fill="#212121" d="M 500.984375 198.480469 C 500 200.015625 498.914062 200.667969 498.097656 202.605469 C 496.8125 205.65625 497.316406 208.097656 499.289062 210 C 499.492188 210.195312 499.820312 210.191406 500.019531 209.988281 C 500.21875 209.78125 500.210938 209.453125 500.007812 209.253906 C 498.34375 207.648438 497.964844 205.585938 499.050781 203.003906 C 499.839844 201.132812 500.90625 200.515625 501.855469 199.03125 C 502.007812 198.792969 501.941406 198.476562 501.699219 198.320312 C 501.457031 198.167969 501.140625 198.234375 500.984375 198.480469 " fill-opacity="1" fill-rule="evenodd"/><path fill="#212121" d="M 498.921875 219.140625 C 498.355469 219.941406 497.761719 221.457031 497.667969 222.535156 C 497.476562 224.6875 498.179688 226.789062 500.84375 227.835938 C 501.105469 227.941406 501.40625 227.808594 501.511719 227.546875 C 501.613281 227.28125 501.484375 226.980469 501.21875 226.878906 C 499.089844 226.042969 498.542969 224.347656 498.691406 222.625 C 498.777344 221.707031 499.28125 220.417969 499.765625 219.734375 C 499.929688 219.503906 499.875 219.179688 499.644531 219.019531 C 499.410156 218.851562 499.089844 218.910156 498.921875 219.140625 " fill-opacity="1" fill-rule="evenodd"/><path fill="#f3b08c" d="M 503.679688 189.980469 C 503.648438 190.136719 497.652344 188.570312 495.820312 182.433594 C 494.550781 178.175781 496.15625 174.578125 499.003906 172.847656 C 500.460938 171.960938 502.632812 171.964844 504.222656 172.300781 C 508.195312 173.136719 512.304688 175.765625 513.617188 182.171875 C 513.695312 182.542969 504.726562 189.558594 503.679688 189.980469 " fill-opacity="1" fill-rule="evenodd"/><path fill="#212121" d="M 504.089844 183.558594 C 503.609375 183.390625 503.175781 183.058594 502.824219 182.691406 C 501.621094 181.441406 501.316406 179.625 502.234375 177.835938 C 502.363281 177.578125 502.265625 177.269531 502.011719 177.140625 C 501.757812 177.011719 501.445312 177.113281 501.316406 177.363281 C 500.175781 179.589844 500.585938 181.847656 502.078125 183.402344 C 502.535156 183.882812 503.113281 184.3125 503.75 184.53125 C 504.015625 184.628906 504.3125 184.484375 504.40625 184.21875 C 504.5 183.949219 504.359375 183.652344 504.089844 183.558594 " fill-opacity="1" fill-rule="evenodd"/><path fill="#212121" d="M 502.25 182.070312 C 502.390625 182.0625 503.285156 181.851562 504.230469 181.328125 C 505.3125 180.730469 506.246094 179.753906 506.5 178.304688 C 506.550781 178.023438 506.363281 177.753906 506.082031 177.707031 C 505.800781 177.65625 505.53125 177.84375 505.484375 178.125 C 505.289062 179.234375 504.558594 179.96875 503.730469 180.429688 C 502.984375 180.839844 502.292969 181.039062 502.183594 181.042969 C 501.898438 181.0625 501.679688 181.308594 501.699219 181.589844 C 501.71875 181.875 501.964844 182.085938 502.25 182.070312 " fill-opacity="1" fill-rule="evenodd"/><path fill="#464646" d="M 471.40625 178.265625 C 477.628906 177.640625 480.027344 175.359375 482.347656 173.101562 C 483.800781 171.691406 485.21875 170.28125 487.65625 169.355469 C 490.800781 168.164062 493.441406 168.050781 496 167.976562 C 498.671875 167.898438 501.265625 167.851562 504.238281 166.785156 C 507.078125 165.769531 510.078125 163.410156 510.945312 162.582031 C 513.441406 160.191406 516.636719 159.433594 519.984375 159.511719 C 523.417969 159.589844 527.007812 160.542969 530.203125 161.574219 C 530.480469 161.664062 530.789062 161.507812 530.875 161.226562 C 530.96875 160.941406 530.8125 160.640625 530.53125 160.550781 C 527.242188 159.492188 523.542969 158.519531 520.007812 158.4375 C 516.378906 158.355469 512.914062 159.210938 510.203125 161.804688 C 509.382812 162.589844 506.554688 164.8125 503.875 165.777344 C 501.019531 166.800781 498.535156 166.828125 495.96875 166.90625 C 493.296875 166.984375 490.554688 167.109375 487.273438 168.351562 C 484.671875 169.335938 483.148438 170.824219 481.59375 172.332031 C 479.410156 174.457031 477.15625 176.609375 471.296875 177.199219 C 471 177.230469 470.789062 177.488281 470.816406 177.785156 C 470.84375 178.078125 471.109375 178.296875 471.40625 178.265625 " fill-opacity="1" fill-rule="evenodd"/><path fill="#464646" d="M 481.242188 231.996094 C 478.261719 231.171875 474.628906 228.761719 471.78125 225.480469 C 468.945312 222.210938 466.890625 218.070312 467.097656 213.734375 C 467.109375 213.441406 466.882812 213.191406 466.585938 213.171875 C 466.289062 213.160156 466.035156 213.390625 466.023438 213.6875 C 465.804688 218.292969 467.957031 222.710938 470.964844 226.179688 C 473.964844 229.640625 477.8125 232.160156 480.953125 233.027344 C 481.238281 233.109375 481.535156 232.945312 481.617188 232.65625 C 481.691406 232.371094 481.527344 232.074219 481.242188 231.996094 " fill-opacity="1" fill-rule="evenodd"/><path fill="#464646" d="M 518.492188 174.777344 C 522.308594 173.824219 528.492188 174.425781 531.355469 175.730469 C 531.628906 175.855469 531.945312 175.734375 532.066406 175.464844 C 532.195312 175.199219 532.070312 174.878906 531.804688 174.753906 C 528.777344 173.375 522.253906 172.730469 518.226562 173.738281 C 517.9375 173.8125 517.761719 174.105469 517.835938 174.390625 C 517.910156 174.675781 518.203125 174.851562 518.492188 174.777344 " fill-opacity="1" fill-rule="evenodd"/><path fill="#464646" d="M 495.535156 184.515625 C 491.085938 185.230469 489.351562 187.429688 487.929688 189.71875 C 486.636719 191.796875 485.65625 193.984375 482.742188 194.945312 C 476.898438 196.875 476.453125 200.589844 475.136719 205.4375 C 474.644531 207.257812 473.277344 208.15625 471.867188 209.101562 C 470.269531 210.167969 468.609375 211.273438 467.738281 213.421875 C 467.628906 213.699219 467.761719 214.007812 468.035156 214.121094 C 468.3125 214.230469 468.625 214.097656 468.738281 213.824219 C 469.515625 211.90625 471.035156 210.945312 472.464844 209.992188 C 474.09375 208.90625 475.609375 207.816406 476.175781 205.71875 C 477.386719 201.242188 477.6875 197.738281 483.074219 195.964844 C 485.667969 195.109375 486.921875 193.417969 488.046875 191.589844 C 489.570312 189.109375 490.851562 186.351562 495.703125 185.570312 C 495.996094 185.527344 496.199219 185.25 496.152344 184.957031 C 496.101562 184.664062 495.828125 184.464844 495.535156 184.515625 " fill-opacity="1" fill-rule="evenodd"/><path fill="#464646" d="M 472.355469 214.082031 C 468.867188 213.554688 465.90625 213.039062 463.597656 211.507812 C 463.347656 211.34375 463.015625 211.410156 462.847656 211.65625 C 462.6875 211.90625 462.753906 212.238281 463 212.402344 C 465.429688 214.011719 468.53125 214.589844 472.199219 215.144531 C 472.492188 215.191406 472.761719 214.992188 472.808594 214.699219 C 472.851562 214.40625 472.652344 214.128906 472.355469 214.082031 " fill-opacity="1" fill-rule="evenodd"/><path fill="#f3b08c" d="M 496.53125 464.789062 C 496.152344 472.632812 495.878906 476.234375 495.523438 480.582031 C 495.367188 482.566406 494.042969 489.804688 495.027344 491.574219 C 496.023438 493.382812 500.875 495.335938 502.667969 495.960938 C 507.050781 497.492188 522.519531 498.015625 526.5 494.277344 C 527.191406 493.628906 527.972656 487.945312 528.921875 482.121094 C 529.753906 477.011719 531.851562 467.273438 531.300781 467.253906 C 508.761719 466.445312 496.53125 464.789062 496.53125 464.789062 " fill-opacity="1" fill-rule="evenodd"/><path fill="#f3b08c" d="M 542.679688 464.605469 C 542.308594 472.449219 542.042969 476.054688 541.691406 480.402344 C 541.535156 482.390625 539.296875 490.769531 540.269531 492.542969 C 541.257812 494.351562 546.964844 495.152344 548.738281 495.777344 C 553.058594 497.308594 568.320312 497.839844 572.242188 494.09375 C 572.925781 493.445312 573.699219 487.765625 574.632812 481.9375 C 575.453125 476.828125 577.527344 467.09375 576.980469 467.074219 C 554.746094 466.261719 542.679688 464.605469 542.679688 464.605469 " fill-opacity="1" fill-rule="evenodd"/><path fill="#ffffff" d="M 600.921875 350.664062 C 604.179688 349.253906 546.425781 346.066406 546.265625 347.601562 C 542.203125 386.539062 540.015625 450.945312 539.742188 461.78125 C 539.558594 469.203125 543.933594 467.933594 549.878906 468.3125 C 555.441406 468.664062 568.382812 468.9375 573.902344 469.0625 C 579.675781 469.1875 581.621094 469.128906 583.035156 463.363281 C 585.238281 454.425781 600.921875 350.664062 600.921875 350.664062 " fill-opacity="1" fill-rule="evenodd"/><path fill="#ffffff" d="M 614.953125 277.992188 C 611.050781 278.695312 568.003906 281.445312 533.097656 293.140625 C 516.394531 298.734375 502.039062 312.132812 500.320312 335.664062 C 497.546875 373.792969 493.742188 450.058594 493.46875 460.894531 C 493.3125 466.964844 495.992188 466.9375 500.886719 467.425781 C 506.425781 467.980469 525.253906 468.261719 531.199219 468.25 C 535.027344 468.246094 536.203125 467.238281 537.441406 461.195312 C 539.296875 452.175781 556.9375 352.03125 557.140625 351.945312 C 560.398438 350.53125 675.433594 352.128906 686.414062 346.640625 C 694.230469 342.734375 701.105469 338.023438 705.242188 333.074219 C 714.679688 321.792969 720.992188 307.675781 718.898438 293.113281 C 718.632812 291.25 631.75 280.511719 614.953125 277.992188 " fill-opacity="1" fill-rule="evenodd"/><path fill="#d8d8d8" d="M 686.714844 291.328125 C 683.398438 294.480469 677.566406 296.914062 671.359375 298.816406 C 661.925781 301.707031 651.628906 303.351562 647.730469 304.292969 C 624.585938 309.890625 588.296875 312.773438 543.019531 326.726562 C 537.269531 328.496094 533.117188 332.621094 530.09375 337.640625 C 525.625 345.0625 523.636719 354.445312 522.558594 360.882812 C 518.832031 383.105469 514.523438 423.070312 509.960938 466.324219 C 509.929688 466.621094 510.144531 466.886719 510.4375 466.914062 C 510.734375 466.949219 511 466.730469 511.03125 466.441406 C 515.589844 423.207031 519.894531 383.269531 523.617188 361.054688 C 524.679688 354.730469 526.621094 345.496094 531.015625 338.191406 C 533.902344 333.402344 537.847656 329.441406 543.335938 327.75 C 588.582031 313.804688 624.851562 310.925781 647.980469 305.339844 C 651.886719 304.390625 662.21875 302.742188 671.675781 299.84375 C 678.058594 297.882812 684.042969 295.347656 687.460938 292.105469 C 687.671875 291.902344 687.683594 291.5625 687.476562 291.347656 C 687.273438 291.132812 686.929688 291.125 686.714844 291.328125 " fill-opacity="1" fill-rule="evenodd"/><path fill="#d8d8d8" d="M 564.421875 384.382812 C 562.722656 401.175781 556.945312 434.246094 552.402344 467.214844 C 552.363281 467.507812 552.570312 467.78125 552.863281 467.820312 C 553.160156 467.863281 553.433594 467.660156 553.46875 467.363281 C 558.011719 434.378906 563.792969 401.289062 565.492188 384.492188 C 565.523438 384.195312 565.308594 383.9375 565.011719 383.902344 C 564.714844 383.875 564.457031 384.089844 564.421875 384.382812 " fill-opacity="1" fill-rule="evenodd"/><path fill="#212121" d="M 556.28125 354.757812 C 554.882812 361.789062 546.621094 405.960938 540.230469 444.476562 C 540.179688 444.769531 540.378906 445.046875 540.671875 445.097656 C 540.964844 445.144531 541.242188 444.945312 541.289062 444.652344 C 547.679688 406.148438 555.941406 361.996094 557.335938 354.964844 C 557.390625 354.675781 557.203125 354.390625 556.910156 354.332031 C 556.621094 354.277344 556.339844 354.46875 556.28125 354.757812 " fill-opacity="1" fill-rule="evenodd"/><path fill="#212121" d="M 648.230469 506.4375 C 636.054688 506.402344 623.988281 507.472656 614.410156 509.316406 C 608.773438 510.40625 604.261719 512.46875 603.597656 515.136719 C 603.257812 516.511719 605.890625 524.214844 600.453125 526.601562 C 595.28125 528.867188 589.664062 526.675781 589.664062 519.761719 C 589.664062 514.382812 593.464844 511.144531 596.957031 508.125 C 601.355469 504.3125 614.21875 498.691406 622.589844 496.628906 C 629.101562 495.015625 639.324219 493.476562 639.324219 493.1875 C 639.296875 487.375 638.421875 347.769531 638.605469 347.699219 C 643.125 347.328125 656.171875 347.238281 656.671875 347.195312 C 656.976562 347.167969 656.832031 483.945312 657.410156 493.191406 C 657.597656 493.203125 657.792969 493.21875 657.988281 493.230469 C 658.273438 493.25 668.210938 495.054688 674.722656 496.664062 C 683.089844 498.734375 695.957031 504.355469 700.355469 508.164062 C 703.84375 511.191406 707.578125 513.414062 707.578125 518.796875 C 707.578125 525.710938 701.988281 528.105469 696.8125 525.832031 C 691.378906 523.449219 694.054688 516.550781 693.714844 515.179688 C 693.046875 512.507812 688.535156 510.441406 682.898438 509.359375 C 673.273438 507.503906 661.128906 506.429688 648.886719 506.480469 C 648.664062 506.480469 648.445312 506.464844 648.230469 506.4375 " fill-opacity="1" fill-rule="evenodd"/><path fill="#cea99a" d="M 733.789062 349.949219 C 735.558594 340.984375 771.78125 169.007812 771.800781 168.878906 C 772.363281 165.449219 773.007812 161.765625 768.347656 161.660156 C 761.171875 161.496094 754.671875 167.949219 752.886719 176.402344 C 749.027344 194.652344 741.257812 229.183594 739.671875 237.679688 C 736.863281 252.792969 717.382812 344.59375 717.382812 344.59375 L 567.714844 346.152344 L 567.59375 361.902344 C 576.234375 362.085938 713.898438 361.128906 721.675781 360.671875 C 725.5625 360.441406 731.917969 359.402344 733.789062 349.949219 " fill-opacity="1" fill-rule="evenodd"/><path fill="#212121" d="M 717.984375 346.164062 C 720.609375 348.222656 727.109375 353.339844 729.824219 355.527344 C 730.058594 355.714844 730.394531 355.679688 730.582031 355.449219 C 730.769531 355.21875 730.730469 354.882812 730.5 354.695312 C 727.78125 352.5 721.277344 347.378906 718.648438 345.320312 C 718.417969 345.140625 718.074219 345.175781 717.894531 345.410156 C 717.714844 345.644531 717.753906 345.980469 717.984375 346.164062 " fill-opacity="1" fill-rule="evenodd"/><path fill="#f3b08c" d="M 543.128906 410.183594 C 543.964844 404.585938 544.800781 401.421875 544.734375 396.992188 C 544.34375 371.554688 540.539062 260.988281 540.777344 257.554688 C 566.828125 259.46875 576.285156 254.015625 576.289062 254.238281 C 576.484375 261.109375 574.929688 285.050781 574.308594 296.386719 C 571.765625 342.972656 568.363281 385.742188 568.035156 398.167969 C 567.972656 400.660156 569.644531 404.269531 569.933594 405.417969 C 571.671875 412.285156 570.375 416.820312 569.03125 421.371094 C 569.027344 421.390625 569.164062 426.445312 568.429688 431.113281 C 568.324219 431.789062 570.472656 433.496094 572.933594 435.636719 C 574.382812 436.898438 576.015625 438.207031 577.171875 439.820312 C 577.695312 440.546875 577.394531 442.800781 576.453125 443.984375 C 575.507812 445.175781 574.257812 445.171875 574.226562 445.171875 C 571.742188 445.386719 564.898438 441.914062 564.21875 441.757812 C 563.847656 441.671875 561.121094 442.089844 559.746094 441.789062 C 558.007812 441.40625 556.292969 440.195312 555.808594 439.835938 C 555.34375 439.488281 553.421875 439.414062 551.402344 437.980469 C 550.324219 437.210938 549.421875 435.785156 549.011719 435.636719 C 546.363281 434.683594 543.128906 432.28125 542.519531 428.867188 C 541.886719 425.355469 541.855469 418.691406 543.128906 410.183594 " fill-opacity="1" fill-rule="evenodd"/><path fill="#212121" d="M 547.152344 420.121094 C 546.90625 423.804688 547.1875 430.738281 547.871094 434.589844 C 547.925781 434.878906 548.199219 435.074219 548.492188 435.023438 C 548.785156 434.972656 548.980469 434.691406 548.933594 434.402344 C 548.257812 430.621094 547.984375 423.808594 548.226562 420.1875 C 548.242188 419.890625 548.019531 419.640625 547.722656 419.621094 C 547.425781 419.597656 547.171875 419.824219 547.152344 420.121094 " fill-opacity="1" fill-rule="evenodd"/><path fill="#212121" d="M 553.84375 421.78125 C 553.796875 423.191406 553.238281 428.757812 554.742188 438.617188 C 554.785156 438.910156 555.0625 439.113281 555.355469 439.070312 C 555.648438 439.023438 555.851562 438.75 555.804688 438.457031 C 554.3125 428.707031 554.871094 423.207031 554.914062 421.816406 C 554.925781 421.519531 554.691406 421.273438 554.398438 421.261719 C 554.101562 421.253906 553.855469 421.484375 553.84375 421.78125 " fill-opacity="1" fill-rule="evenodd"/><path fill="#212121" d="M 560.695312 423.234375 C 560.773438 431.277344 561.171875 436.214844 562.691406 440.960938 C 562.78125 441.242188 563.085938 441.398438 563.367188 441.308594 C 563.652344 441.21875 563.804688 440.917969 563.714844 440.632812 C 562.21875 435.976562 561.851562 431.121094 561.769531 423.222656 C 561.769531 422.929688 561.523438 422.6875 561.226562 422.691406 C 560.929688 422.691406 560.691406 422.9375 560.695312 423.234375 " fill-opacity="1" fill-rule="evenodd"/><path fill="#fd7f42" d="M 542.496094 259.285156 C 540.808594 259.316406 538.007812 260.042969 538.050781 254.960938 C 538.074219 252.238281 537.925781 248.246094 537.941406 246.542969 C 537.992188 238.097656 537.292969 229.585938 537.832031 221.148438 C 538.789062 206.097656 541.480469 191.246094 549.882812 181.964844 C 556.34375 174.835938 568.660156 171.8125 580.804688 169.5625 C 590.878906 167.703125 602.269531 167.789062 614.929688 170.277344 C 653.085938 177.777344 688.246094 207.839844 706.683594 244.820312 C 714.371094 260.242188 722.90625 293.914062 719.800781 298.082031 C 718.054688 300.429688 709.578125 299.472656 707.53125 299.179688 C 694.714844 297.351562 632.8125 284.609375 613.847656 276.6875 C 613.042969 276.355469 611.773438 267.554688 606.726562 261.3125 C 598.046875 250.566406 584.003906 241.351562 580.46875 239.675781 C 580.394531 239.636719 579.910156 247.535156 579.546875 253.40625 C 579.496094 254.207031 579.707031 257.902344 575.507812 257.996094 C 567.757812 258.167969 552.835938 259.035156 543.988281 259.253906 C 543.480469 259.265625 542.980469 259.273438 542.496094 259.285156 " fill-opacity="1" fill-rule="evenodd"/><path fill="#212121" d="M 580.367188 221.011719 C 580.347656 222.335938 580.089844 230.339844 580.046875 238.429688 C 580.042969 238.726562 580.285156 238.972656 580.582031 238.972656 C 580.878906 238.972656 581.121094 238.730469 581.121094 238.4375 C 581.164062 230.351562 581.425781 222.351562 581.445312 221.027344 C 581.449219 220.734375 581.214844 220.488281 580.917969 220.480469 C 580.621094 220.476562 580.375 220.714844 580.367188 221.011719 " fill-opacity="1" fill-rule="evenodd"/><path fill="#7a93bc" d="M 489.65625 510.347656 C 487.675781 513.050781 487.339844 516.125 487.714844 518.871094 C 487.714844 518.871094 554.109375 517.558594 585.167969 514.066406 C 585.167969 514.066406 583.398438 498.441406 582.386719 497.738281 C 578.878906 495.296875 572.277344 489.238281 570.511719 490.234375 C 560.359375 495.957031 538.671875 491.390625 540.945312 486.40625 C 545.769531 475.808594 538.121094 474.769531 536.089844 477.671875 C 526.816406 490.941406 518.554688 495.054688 512.738281 497.949219 C 504.617188 501.988281 491.03125 508.464844 489.65625 510.347656 " fill-opacity="1" fill-rule="evenodd"/><path fill="#212121" d="M 585.167969 514.066406 C 565.796875 515.320312 515.546875 517.316406 487.714844 518.871094 L 487.796875 526.972656 L 585.296875 526.851562 C 586.027344 526.574219 585.167969 514.066406 585.167969 514.066406 " fill-opacity="1" fill-rule="evenodd"/><path fill="#4c5a7b" d="M 569.003906 490.964844 C 568.984375 491.136719 571.730469 493.402344 574.921875 495.203125 C 578.652344 497.308594 582.910156 498.960938 582.828125 498.585938 C 581.355469 491.996094 576.894531 483.871094 576.007812 484.976562 C 575.3125 485.847656 574.433594 486.867188 573.535156 487.746094 C 571.484375 489.742188 569.003906 490.964844 569.003906 490.964844 " fill-opacity="1" fill-rule="evenodd"/><path fill="#7a93bc" d="M 443.730469 510.347656 C 441.753906 513.050781 441.414062 516.125 441.789062 518.871094 C 441.789062 518.871094 508.1875 517.558594 539.246094 514.066406 C 539.246094 514.066406 537.472656 498.441406 536.460938 497.738281 C 532.953125 495.296875 526.351562 489.238281 524.589844 490.234375 C 514.433594 495.957031 492.75 491.390625 495.019531 486.40625 C 499.847656 475.808594 492.65625 475.148438 490.167969 477.671875 C 481.3125 486.617188 471.257812 495.371094 466.816406 497.949219 C 458.96875 502.5 445.105469 508.464844 443.730469 510.347656 " fill-opacity="1" fill-rule="evenodd"/><path fill="#212121" d="M 539.246094 514.066406 C 519.875 515.320312 469.625 517.316406 441.789062 518.871094 L 441.875 526.972656 L 539.371094 526.851562 C 540.105469 526.574219 539.246094 514.066406 539.246094 514.066406 " fill-opacity="1" fill-rule="evenodd"/><path fill="#4c5a7b" d="M 523.082031 490.964844 C 523.058594 491.136719 525.808594 493.402344 528.996094 495.203125 C 532.730469 497.308594 536.984375 498.960938 536.902344 498.585938 C 535.433594 491.996094 530.226562 485.09375 530.226562 485.09375 C 530.226562 485.09375 528.511719 486.867188 527.609375 487.746094 C 525.558594 489.742188 523.082031 490.964844 523.082031 490.964844 " fill-opacity="1" fill-rule="evenodd"/><path fill="#212121" d="M 475.9375 497.273438 L 480.675781 498.238281 C 479.117188 499.429688 477.601562 500.535156 476.132812 501.550781 Z M 475.695312 491.808594 L 480.648438 492.550781 L 481.203125 497.144531 L 475.882812 496.0625 Z M 481.152344 486.929688 L 486.144531 487.414062 L 487.070312 492.332031 L 481.707031 491.527344 Z M 482.355469 496.929688 L 481.851562 492.734375 L 486.621094 493.449219 C 485.160156 494.675781 483.742188 495.839844 482.355469 496.929688 Z M 492.765625 488.058594 C 491.207031 489.472656 489.695312 490.8125 488.222656 492.082031 L 487.363281 487.535156 Z M 494.632812 487.917969 C 494.644531 487.898438 494.65625 487.878906 494.664062 487.859375 C 494.671875 487.84375 494.675781 487.828125 494.683594 487.816406 C 494.6875 487.796875 494.695312 487.773438 494.699219 487.753906 C 494.707031 487.738281 494.707031 487.722656 494.710938 487.703125 C 494.714844 487.6875 494.71875 487.675781 494.71875 487.660156 C 494.71875 487.65625 494.71875 487.652344 494.71875 487.648438 C 494.71875 487.625 494.71875 487.605469 494.71875 487.582031 C 494.71875 487.566406 494.71875 487.546875 494.714844 487.53125 C 494.714844 487.511719 494.707031 487.488281 494.703125 487.472656 C 494.699219 487.453125 494.695312 487.4375 494.691406 487.417969 C 494.6875 487.402344 494.679688 487.382812 494.671875 487.367188 C 494.664062 487.347656 494.65625 487.332031 494.644531 487.316406 C 494.636719 487.300781 494.628906 487.285156 494.613281 487.269531 C 494.601562 487.253906 494.589844 487.238281 494.578125 487.21875 C 494.574219 487.21875 494.570312 487.210938 494.570312 487.210938 C 494.5625 487.199219 494.550781 487.195312 494.542969 487.183594 C 494.527344 487.167969 494.507812 487.152344 494.492188 487.140625 C 494.476562 487.128906 494.464844 487.121094 494.449219 487.109375 C 494.433594 487.101562 494.414062 487.085938 494.398438 487.078125 C 494.378906 487.070312 494.363281 487.0625 494.34375 487.058594 C 494.328125 487.050781 494.308594 487.046875 494.292969 487.039062 C 494.269531 487.035156 494.25 487.03125 494.226562 487.027344 C 494.214844 487.027344 494.203125 487.023438 494.191406 487.019531 L 487.136719 486.332031 L 486.234375 481.546875 C 486.171875 481.230469 485.867188 481.023438 485.546875 481.082031 C 485.230469 481.140625 485.023438 481.449219 485.082031 481.765625 L 485.921875 486.214844 L 480.539062 485.691406 C 480.539062 485.691406 480.535156 485.691406 480.53125 485.691406 C 480.511719 485.683594 480.484375 485.691406 480.464844 485.691406 C 480.449219 485.691406 480.433594 485.691406 480.421875 485.691406 C 480.417969 485.691406 480.414062 485.691406 480.414062 485.691406 C 480.375 485.695312 480.34375 485.703125 480.3125 485.714844 C 480.3125 485.714844 480.308594 485.714844 480.308594 485.714844 C 480.269531 485.726562 480.238281 485.738281 480.210938 485.753906 C 480.207031 485.757812 480.207031 485.757812 480.203125 485.757812 C 480.171875 485.773438 480.148438 485.792969 480.125 485.8125 C 480.121094 485.816406 480.113281 485.820312 480.109375 485.824219 C 480.085938 485.839844 480.070312 485.855469 480.054688 485.875 C 480.042969 485.882812 480.035156 485.894531 480.027344 485.90625 C 480.015625 485.921875 480.003906 485.9375 479.988281 485.953125 C 479.980469 485.96875 479.972656 485.980469 479.960938 486 C 479.953125 486.019531 479.949219 486.035156 479.941406 486.054688 C 479.933594 486.070312 479.925781 486.085938 479.921875 486.105469 C 479.914062 486.128906 479.910156 486.148438 479.90625 486.171875 C 479.90625 486.1875 479.902344 486.203125 479.894531 486.21875 C 479.894531 486.21875 479.894531 486.21875 479.894531 486.222656 C 479.894531 486.238281 479.894531 486.257812 479.894531 486.277344 C 479.894531 486.300781 479.894531 486.320312 479.902344 486.339844 C 479.902344 486.339844 479.902344 486.34375 479.902344 486.34375 L 480.503906 491.34375 L 475.167969 490.542969 C 475.164062 490.542969 475.164062 490.542969 475.160156 490.542969 C 475.15625 490.539062 475.152344 490.542969 475.148438 490.539062 C 475.117188 490.535156 475.082031 490.535156 475.046875 490.535156 C 475.046875 490.535156 475.046875 490.535156 475.042969 490.535156 C 475.027344 490.539062 475.011719 490.542969 474.992188 490.542969 C 474.773438 490.574219 474.597656 490.722656 474.523438 490.921875 C 474.523438 490.921875 474.523438 490.925781 474.523438 490.925781 C 474.511719 490.960938 474.5 490.996094 474.496094 491.035156 C 474.492188 491.050781 474.492188 491.066406 474.492188 491.085938 C 474.492188 491.109375 474.484375 491.128906 474.484375 491.148438 L 474.484375 491.152344 C 474.484375 491.152344 474.484375 491.152344 474.484375 491.15625 L 474.699219 495.824219 L 470.058594 494.882812 C 469.742188 494.820312 469.433594 495.023438 469.367188 495.339844 C 469.304688 495.660156 469.511719 495.96875 469.828125 496.035156 L 474.75 497.035156 L 474.992188 502.328125 C 473.257812 503.492188 471.582031 504.53125 469.964844 505.457031 C 469.6875 505.613281 469.589844 505.976562 469.746094 506.257812 C 469.855469 506.449219 470.054688 506.554688 470.257812 506.554688 C 470.355469 506.554688 470.453125 506.527344 470.546875 506.476562 C 477.425781 502.558594 485.269531 496.527344 494.535156 488.039062 C 494.539062 488.035156 494.542969 488.027344 494.546875 488.023438 C 494.566406 488 494.589844 487.976562 494.605469 487.953125 C 494.613281 487.941406 494.621094 487.929688 494.632812 487.917969 " fill-opacity="1" fill-rule="nonzero"/><path fill="#4c5a7b" d="M 466.769531 498.058594 C 468.238281 498.328125 474.78125 506.105469 469.894531 508.164062 C 462.15625 511.414062 442.617188 516.027344 442.867188 511.183594 C 442.972656 509.0625 466.046875 497.925781 466.769531 498.058594 " fill-opacity="1" fill-rule="evenodd"/><path fill="#212121" d="M 536.644531 498.84375 C 536.988281 498.730469 537.363281 498.910156 537.476562 499.257812 C 539.167969 504.273438 539.140625 509.9375 539.25 514.152344 C 539.261719 514.515625 538.988281 514.824219 538.625 514.839844 C 538.261719 514.859375 537.929688 514.582031 537.9375 514.214844 C 537.980469 510.425781 537.886719 504.601562 536.230469 499.679688 C 536.117188 499.335938 536.304688 498.960938 536.644531 498.84375 " fill-opacity="1" fill-rule="evenodd"/><path fill="#ffffff" d="M 393.050781 149.761719 C 392.894531 149.386719 298.011719 151.683594 297.003906 151.835938 C 296.628906 151.890625 307.425781 191.917969 311.054688 204.355469 C 312.042969 207.738281 315.242188 220.582031 316.007812 220.445312 C 317.144531 220.242188 412.398438 220.007812 415.167969 219.972656 C 415.207031 219.96875 393.238281 150.230469 393.050781 149.761719 " fill-opacity="1" fill-rule="evenodd"/><path fill="#e26659" d="M 381.09375 162.972656 C 380.90625 162.53125 320.304688 163.988281 320.484375 164.363281 C 320.851562 165.125 324.03125 174.648438 324.242188 174.644531 C 373.566406 173.667969 384.785156 173.558594 384.726562 173.363281 C 384.074219 171.152344 382.125 165.347656 381.09375 162.972656 " fill-opacity="1" fill-rule="evenodd"/><path fill="#7a93bc" d="M 353.699219 185.003906 C 353.664062 184.785156 360.730469 207.382812 361.109375 208.445312 C 361.320312 209.035156 384.371094 208.953125 395.515625 208.820312 C 395.769531 208.816406 387.652344 184.734375 387.652344 184.734375 C 387.652344 184.734375 357.777344 184.757812 353.699219 185.003906 " fill-opacity="1" fill-rule="evenodd"/><path fill="#4c5a7b" d="M 327.894531 185.835938 C 327.878906 185.609375 334.773438 207.730469 335.011719 208.796875 C 335.140625 209.386719 348.222656 208.679688 355.226562 208.542969 C 355.386719 208.539062 348.132812 185.375 348.132812 185.375 C 348.132812 185.375 330.464844 185.585938 327.894531 185.835938 " fill-opacity="1" fill-rule="evenodd"/><path fill="#4d5c7b" d="M 451.917969 229.59375 C 451.222656 227.746094 449.773438 226.269531 446.054688 226.3125 C 440.804688 226.375 430.351562 226.484375 417.710938 226.601562 C 416.894531 224.457031 415.957031 221.863281 414.988281 219.320312 C 414.808594 218.851562 328.148438 219.0625 316.730469 219.394531 C 311.726562 204.328125 303.511719 174.539062 300.300781 162.109375 C 299.351562 158.449219 298.40625 155.292969 298.015625 152.652344 C 376.15625 151.683594 393.480469 151.117188 393.414062 150.910156 C 392.824219 148.933594 392.507812 148.074219 392.242188 147.386719 C 390.714844 143.40625 387.761719 142.84375 384.105469 142.851562 C 366.578125 142.890625 318.347656 143.546875 302.574219 143.992188 C 299.492188 143.882812 294.707031 144.085938 292.824219 144.429688 C 287.976562 145.3125 287.652344 152.210938 289.304688 157.199219 C 290.765625 161.605469 300.582031 199.613281 306.691406 216.628906 C 307.929688 220.070312 309.667969 226.550781 311.390625 230.984375 C 314.199219 238.214844 319.140625 237.589844 324.410156 237.683594 C 331 237.804688 453.773438 236.785156 454.03125 236.472656 C 454.246094 236.210938 453.003906 232.472656 451.917969 229.59375 " fill-opacity="1" fill-rule="evenodd"/><path fill="#212121" d="M 298.539062 151.757812 C 298.269531 150.558594 298.199219 149.949219 298.210938 149.042969 C 298.226562 147.886719 298.53125 146.996094 299.140625 146.375 C 299.757812 145.746094 300.671875 145.398438 301.847656 145.285156 C 302.144531 145.257812 302.359375 144.992188 302.332031 144.699219 C 302.304688 144.402344 302.039062 144.1875 301.746094 144.21875 C 300.273438 144.359375 299.144531 144.835938 298.371094 145.625 C 297.589844 146.421875 297.152344 147.546875 297.132812 149.03125 C 297.121094 150.015625 297.199219 150.679688 297.492188 151.988281 C 297.550781 152.277344 297.839844 152.460938 298.132812 152.394531 C 298.421875 152.335938 298.605469 152.046875 298.539062 151.757812 " fill-opacity="1" fill-rule="evenodd"/><path fill="#212121" d="M 316.605469 220.59375 C 317.230469 222.335938 319.566406 228.050781 327.640625 227.761719 C 334.886719 227.5 408.707031 227.699219 416.765625 227.328125 C 417.0625 227.3125 417.292969 227.0625 417.277344 226.765625 C 417.261719 226.46875 417.015625 226.242188 416.71875 226.253906 C 408.65625 226.628906 334.851562 226.433594 327.597656 226.6875 C 320.304688 226.949219 318.179688 221.808594 317.625 220.238281 C 317.523438 219.957031 317.210938 219.8125 316.933594 219.914062 C 316.65625 220.011719 316.507812 220.320312 316.605469 220.59375 " fill-opacity="1" fill-rule="evenodd"/><path fill="#212121" d="M 465.050781 243.851562 C 472.78125 287.511719 500.027344 432.910156 511.195312 496.976562 C 513.929688 512.6875 515.621094 522.632812 515.535156 523.648438 C 515.441406 524.820312 516.316406 525.84375 517.488281 525.9375 C 518.65625 526.035156 519.6875 525.160156 519.785156 523.996094 C 519.871094 522.933594 518.234375 512.578125 515.390625 496.25 C 504.222656 432.179688 476.972656 286.777344 469.246094 243.117188 C 469.039062 241.964844 467.933594 241.191406 466.78125 241.394531 C 465.621094 241.597656 465.050781 243.851562 465.050781 243.851562 " fill-opacity="1" fill-rule="evenodd"/><path fill="#212121" d="M 318.835938 245.167969 C 310.359375 290.507812 280.707031 435.105469 269.28125 497.296875 C 266.367188 513.15625 264.695312 523.207031 264.78125 524.234375 C 264.878906 525.382812 265.90625 526.242188 267.082031 526.148438 C 268.253906 526.050781 269.121094 525.042969 269.023438 523.894531 C 268.945312 522.90625 270.671875 513.277344 273.472656 498.039062 C 284.898438 435.847656 314.550781 291.257812 323.023438 245.921875 C 323.238281 244.789062 322.472656 243.699219 321.3125 243.488281 C 320.160156 243.28125 318.835938 245.167969 318.835938 245.167969 " fill-opacity="1" fill-rule="evenodd"/><path fill="#212121" d="M 517.554688 235.734375 C 508.234375 235.632812 274.003906 237.605469 270.503906 237.621094 C 269.949219 237.625 270.082031 246.554688 270.441406 249.625 C 270.484375 249.984375 517.722656 248.894531 517.714844 248.769531 C 517.457031 245.617188 517.554688 235.734375 517.554688 235.734375 " fill-opacity="1" fill-rule="evenodd"/><path fill="#7a93bc" d="M 341.652344 326.335938 C 342.558594 326.179688 350.324219 317.332031 348.882812 314.117188 C 348.046875 312.261719 344.488281 313.464844 342.851562 313.839844 C 342.25 313.980469 341.667969 314.171875 341.09375 314.40625 C 341.023438 314.433594 340.125 314.851562 340.140625 314.773438 C 340.296875 314.03125 340.820312 312.382812 340.964844 311.804688 C 341.570312 309.355469 342.652344 305.714844 342.40625 303.1875 C 342.296875 302.066406 341.988281 300.769531 340.945312 300.136719 C 339.730469 299.386719 338.347656 300.367188 337.511719 301.234375 C 335.332031 303.503906 328.332031 312.179688 327.71875 311.847656 C 326.914062 311.40625 326.199219 300.679688 324.921875 298.125 C 324.378906 297.03125 323.515625 295.722656 322.132812 295.714844 C 318.460938 295.6875 316.871094 300.273438 315.660156 303.933594 C 314.507812 307.390625 313.871094 309.566406 313.734375 309.523438 C 313.601562 309.484375 311.761719 302.636719 311.566406 302.03125 C 310.335938 298.210938 308.941406 294.417969 305.914062 295.867188 C 304.925781 296.339844 304.433594 297.542969 303.988281 298.464844 C 302.941406 300.640625 300.464844 308.757812 300.265625 308.78125 C 300.0625 308.808594 298.871094 306.519531 298.488281 305.710938 C 297.367188 303.363281 296.46875 300.890625 295.226562 298.609375 C 294.738281 297.710938 294.046875 296.445312 292.980469 296.132812 C 291.761719 295.769531 290.578125 296.671875 289.902344 297.578125 C 288.300781 299.734375 287.851562 302.695312 287.355469 305.261719 C 287.183594 306.171875 286.816406 308.679688 286.628906 308.710938 C 286.171875 308.789062 282.292969 302.015625 280.726562 300.203125 C 280.222656 299.621094 279.316406 298.578125 278.421875 298.695312 C 277.183594 298.859375 276.914062 301.304688 276.765625 302.195312 C 276.359375 304.59375 276.140625 312.144531 275.839844 313.292969 C 275.695312 313.855469 274.304688 313.0625 274.054688 312.949219 C 272.742188 312.375 270.199219 311.230469 269.09375 312.753906 C 267.3125 315.195312 273.179688 324.550781 274.066406 325.046875 C 275.8125 326.019531 335.929688 325.527344 341.652344 326.335938 " fill-opacity="1" fill-rule="evenodd"/><path fill="#212121" d="M 339.292969 316.421875 C 335.804688 318.148438 327.921875 323.136719 324.652344 325.25 C 324.382812 325.425781 324.019531 325.34375 323.847656 325.078125 C 323.671875 324.804688 323.75 324.441406 324.019531 324.265625 C 327.316406 322.140625 335.257812 317.121094 338.777344 315.378906 C 339.066406 315.234375 339.414062 315.355469 339.558594 315.636719 C 339.699219 315.925781 339.582031 316.28125 339.292969 316.421875 " fill-opacity="1" fill-rule="evenodd"/><path fill="#212121" d="M 327.617188 312.945312 C 326.128906 314.460938 324.292969 316.128906 323.386719 316.785156 C 323.121094 316.972656 322.761719 316.910156 322.570312 316.648438 C 322.382812 316.386719 322.445312 316.023438 322.703125 315.835938 C 323.582031 315.207031 325.351562 313.589844 326.785156 312.125 C 327.007812 311.894531 327.378906 311.890625 327.609375 312.117188 C 327.839844 312.34375 327.84375 312.710938 327.617188 312.945312 " fill-opacity="1" fill-rule="evenodd"/><path fill="#212121" d="M 326.886719 322.730469 C 325.785156 320.90625 323.816406 318.390625 322.304688 316.863281 C 321.589844 316.136719 320.792969 315.527344 319.875 315.089844 C 316.804688 313.628906 314.054688 314.867188 311.691406 316.972656 C 309.183594 319.199219 306.816406 322.941406 305.265625 325.257812 C 305.089844 325.527344 304.726562 325.601562 304.457031 325.421875 C 304.191406 325.242188 304.121094 324.882812 304.300781 324.613281 C 306.21875 321.734375 309.242188 317.015625 312.558594 314.820312 C 314.898438 313.273438 317.527344 312.679688 320.375 314.035156 C 321.417969 314.53125 322.320312 315.222656 323.136719 316.039062 C 324.703125 317.625 326.746094 320.234375 327.886719 322.128906 C 328.054688 322.40625 327.964844 322.761719 327.6875 322.929688 C 327.410156 323.097656 327.054688 323.007812 326.886719 322.730469 " fill-opacity="1" fill-rule="evenodd"/><path fill="#212121" d="M 314.152344 310.714844 C 314.035156 312.214844 313.828125 314.675781 313.808594 314.855469 C 313.777344 315.175781 313.492188 315.410156 313.171875 315.378906 C 312.851562 315.34375 312.617188 315.0625 312.648438 314.738281 C 312.664062 314.5625 312.871094 312.117188 312.988281 310.621094 C 313.015625 310.300781 313.296875 310.066406 313.621094 310.089844 C 313.9375 310.113281 314.175781 310.394531 314.152344 310.714844 " fill-opacity="1" fill-rule="evenodd"/><path fill="#212121" d="M 306.144531 322.296875 C 305.222656 321.386719 303.359375 319.683594 301.550781 318.34375 C 300.402344 317.496094 299.277344 316.789062 298.457031 316.578125 C 297.058594 316.214844 295.710938 316.640625 294.484375 317.421875 C 292.5 318.683594 290.824219 320.851562 289.726562 322.5 C 289.546875 322.769531 289.1875 322.839844 288.917969 322.660156 C 288.648438 322.484375 288.578125 322.121094 288.753906 321.851562 C 289.929688 320.09375 291.734375 317.785156 293.855469 316.4375 C 295.363281 315.480469 297.03125 315.003906 298.746094 315.445312 C 299.453125 315.625 300.355469 316.109375 301.316406 316.753906 C 303.429688 318.171875 305.855469 320.375 306.964844 321.460938 C 307.191406 321.691406 307.195312 322.058594 306.96875 322.289062 C 306.746094 322.519531 306.375 322.519531 306.144531 322.296875 " fill-opacity="1" fill-rule="evenodd"/><path fill="#212121" d="M 300.519531 316.363281 C 300.519531 316.382812 300.519531 316.40625 300.515625 316.425781 C 300.515625 316.425781 300.378906 316.800781 299.808594 316.730469 C 299.390625 316.683594 299.355469 316.277344 299.355469 316.277344 C 299.390625 315.957031 299.699219 313.136719 299.671875 310.027344 C 299.667969 309.707031 299.929688 309.445312 300.25 309.441406 C 300.570312 309.441406 300.835938 309.699219 300.839844 310.019531 C 300.863281 313.109375 300.566406 315.917969 300.519531 316.363281 " fill-opacity="1" fill-rule="evenodd"/><path fill="#212121" d="M 292.785156 317.679688 C 291.824219 316.488281 287.210938 311.625 286.390625 310.339844 C 286.214844 310.070312 286.296875 309.707031 286.566406 309.535156 C 286.835938 309.359375 287.199219 309.441406 287.375 309.707031 C 288.1875 310.980469 292.746094 315.773438 293.695312 316.945312 C 293.894531 317.199219 293.855469 317.566406 293.605469 317.769531 C 293.355469 317.96875 292.988281 317.929688 292.785156 317.679688 " fill-opacity="1" fill-rule="evenodd"/><path fill="#212121" d="M 292.234375 325.644531 C 288.929688 323.480469 280.207031 317.230469 276.277344 315.125 C 275.996094 314.976562 275.886719 314.621094 276.039062 314.335938 C 276.191406 314.058594 276.542969 313.949219 276.828125 314.101562 C 280.78125 316.214844 289.546875 322.492188 292.878906 324.667969 C 293.144531 324.84375 293.21875 325.207031 293.042969 325.480469 C 292.863281 325.746094 291.8125 325.128906 291.542969 324.953125 L 292.234375 325.644531 " fill-opacity="1" fill-rule="evenodd"/><path fill="#cea99a" d="M 339.605469 324.96875 C 343.210938 325.335938 344.648438 326.652344 344.117188 330.605469 C 343.148438 337.828125 340.761719 353.464844 339.3125 359.566406 C 337.710938 366.320312 332.039062 387.320312 331.433594 387.703125 C 330.835938 388.078125 282.917969 388.191406 281.953125 387.988281 C 281.691406 387.929688 271.964844 349.429688 270.066406 337.664062 C 269.765625 335.78125 269.117188 333.136719 268.949219 330.601562 C 268.796875 328.351562 268.363281 323.992188 274.882812 324.332031 C 279.503906 324.574219 309.660156 324.546875 324.277344 324.515625 C 328.707031 324.507812 334.335938 324.429688 339.605469 324.96875 " fill-opacity="1" fill-rule="evenodd"/><path fill="#4c5a7b" d="M 387.464844 452.242188 C 387.46875 451.84375 375.574219 452.097656 371.820312 452.152344 C 361.867188 452.289062 274.628906 452.476562 269.085938 452.585938 C 258.40625 452.796875 260.160156 458.480469 259.972656 463.320312 C 259.753906 469.058594 259.789062 476.386719 260.035156 480.742188 C 260.257812 484.734375 259.957031 489.855469 265.414062 490.019531 C 274.246094 490.277344 292.648438 490.324219 298.769531 490.324219 C 312.597656 490.324219 386.121094 490.550781 386.882812 490.269531 C 387.179688 490.164062 387.835938 488.84375 387.929688 487.714844 C 388.011719 486.714844 387.726562 484.957031 387.035156 484.671875 C 386.910156 484.621094 384.566406 484.582031 384.566406 484.550781 C 384.589844 479.628906 384.226562 460.605469 384.617188 458.445312 C 384.621094 458.425781 386.699219 458.5 387.011719 458.308594 C 388.675781 457.285156 388.546875 453.375 387.464844 452.242188 " fill-opacity="1" fill-rule="evenodd"/><path fill="#ffffff" d="M 384.703125 458.4375 L 266.203125 458.4375 L 266.203125 484.554688 L 384.703125 484.554688 L 384.703125 458.4375 " fill-opacity="1" fill-rule="evenodd"/><path fill="#212121" d="M 384.25 463.566406 L 267.617188 463.277344 C 267.351562 463.277344 267.136719 463.0625 267.136719 462.792969 C 267.136719 462.523438 267.355469 462.308594 267.617188 462.308594 C 267.621094 462.308594 267.621094 462.308594 267.621094 462.308594 L 384.25 462.597656 C 384.515625 462.597656 384.730469 462.8125 384.730469 463.082031 C 384.730469 463.351562 384.515625 463.566406 384.25 463.566406 " fill-opacity="1" fill-rule="nonzero"/><path fill="#212121" d="M 383.667969 480.722656 L 267.039062 480.433594 C 266.769531 480.433594 266.554688 480.21875 266.554688 479.949219 C 266.558594 479.683594 266.773438 479.464844 267.039062 479.464844 C 267.042969 479.464844 267.042969 479.464844 267.042969 479.464844 L 383.667969 479.753906 C 383.9375 479.753906 384.152344 479.976562 384.152344 480.238281 C 384.152344 480.507812 383.9375 480.722656 383.667969 480.722656 " fill-opacity="1" fill-rule="nonzero"/><path fill="#212121" d="M 383.863281 475.003906 C 383.859375 475.003906 383.859375 475.003906 383.859375 475.003906 L 267.234375 474.714844 C 266.964844 474.714844 266.75 474.5 266.75 474.230469 C 266.75 473.964844 266.964844 473.746094 267.234375 473.746094 L 383.863281 474.035156 C 384.128906 474.035156 384.347656 474.25 384.347656 474.519531 C 384.347656 474.789062 384.125 475.003906 383.863281 475.003906 " fill-opacity="1" fill-rule="nonzero"/><path fill="#212121" d="M 384.054688 469.285156 L 267.425781 468.996094 C 267.160156 468.996094 266.945312 468.78125 266.945312 468.511719 C 266.945312 468.246094 267.160156 468.027344 267.425781 468.027344 L 384.054688 468.316406 C 384.320312 468.316406 384.542969 468.53125 384.542969 468.800781 C 384.539062 469.070312 384.320312 469.285156 384.054688 469.285156 " fill-opacity="1" fill-rule="nonzero"/><path fill="#7a93bc" d="M 379.828125 422.714844 C 379.832031 422.316406 367.9375 422.492188 364.175781 422.515625 C 354.226562 422.582031 266.988281 422.390625 261.445312 422.226562 C 252.457031 421.953125 252.394531 424.707031 252.253906 430.292969 C 252.113281 436.03125 252.335938 441.488281 252.429688 445.375 C 252.511719 448.710938 252.457031 452.1875 259.234375 452.636719 C 268.050781 453.21875 379.609375 452.269531 380.375 451.996094 C 380.671875 451.890625 381.339844 450.574219 381.441406 449.441406 C 381.53125 448.445312 381.257812 446.691406 380.566406 446.398438 C 380.441406 446.347656 376.910156 446.382812 376.910156 446.351562 C 376.96875 441.425781 376.53125 431.058594 376.9375 428.898438 C 376.941406 428.878906 379.015625 428.972656 379.328125 428.785156 C 380.996094 427.773438 380.898438 423.859375 379.828125 422.714844 " fill-opacity="1" fill-rule="evenodd"/><path fill="#ffffff" d="M 258.546875 428.210938 C 258.597656 432.835938 258.65625 445.992188 258.8125 446.289062 C 259 446.640625 376.910156 446.359375 376.929688 446.351562 C 376.941406 446.34375 376.945312 428.898438 376.9375 428.894531 C 376.847656 428.863281 264.644531 428.53125 258.546875 428.210938 " fill-opacity="1" fill-rule="evenodd"/><path fill="#212121" d="M 376.40625 442.996094 L 259.78125 442.613281 C 259.511719 442.613281 259.296875 442.394531 259.296875 442.128906 C 259.296875 441.859375 259.511719 441.640625 259.78125 441.640625 L 376.40625 442.027344 C 376.675781 442.027344 376.894531 442.242188 376.890625 442.511719 C 376.890625 442.78125 376.675781 442.996094 376.40625 442.996094 " fill-opacity="1" fill-rule="nonzero"/><path fill="#212121" d="M 376.039062 438.195312 L 376.035156 438.195312 L 259.40625 437.816406 C 259.140625 437.8125 258.925781 437.597656 258.925781 437.328125 C 258.929688 437.058594 259.144531 436.84375 259.410156 436.84375 L 376.039062 437.226562 C 376.304688 437.226562 376.523438 437.445312 376.523438 437.714844 C 376.523438 437.980469 376.304688 438.195312 376.039062 438.195312 " fill-opacity="1" fill-rule="nonzero"/><path fill="#212121" d="M 375.84375 432.648438 C 375.839844 432.648438 375.839844 432.648438 375.839844 432.648438 L 259.210938 432.269531 C 258.945312 432.269531 258.730469 432.046875 258.730469 431.78125 C 258.730469 431.515625 258.949219 431.296875 259.210938 431.296875 C 259.210938 431.296875 259.210938 431.296875 259.21875 431.296875 L 375.84375 431.679688 C 376.109375 431.683594 376.328125 431.898438 376.328125 432.167969 C 376.324219 432.433594 376.105469 432.648438 375.84375 432.648438 " fill-opacity="1" fill-rule="nonzero"/><path fill="#e26659" d="M 375.296875 385.503906 C 377.882812 385.703125 382.386719 385.203125 384.464844 386.835938 C 386.222656 388.214844 386.5 391.257812 386.5625 393.261719 C 386.707031 397.882812 386.613281 402.515625 386.699219 407.140625 C 386.746094 409.320312 386.65625 413.742188 386.566406 417.164062 C 386.503906 419.695312 385.871094 422.578125 378.855469 422.652344 C 370.339844 422.742188 279.628906 422.402344 262.378906 422.238281 C 255.027344 422.164062 255.738281 416.796875 255.664062 413.445312 C 255.53125 406.898438 255.894531 402.355469 255.71875 393.863281 C 255.65625 391.0625 255.519531 385.257812 263.558594 385.632812 C 266.132812 385.75 347.695312 385.285156 375.296875 385.503906 " fill-opacity="1" fill-rule="evenodd"/><path fill="#ffffff" d="M 310.152344 393.773438 L 267.039062 393.773438 L 267.039062 415.445312 L 310.152344 415.445312 L 310.152344 393.773438 " fill-opacity="1" fill-rule="evenodd"/><path fill="#212121" d="M 274.261719 398.199219 C 274.128906 398.191406 274 398.246094 273.90625 398.339844 C 273.8125 398.433594 273.761719 398.558594 273.761719 398.691406 L 273.671875 409.417969 C 273.671875 409.714844 273.914062 409.953125 274.210938 409.953125 C 274.507812 409.953125 274.75 409.714844 274.75 409.417969 L 274.757812 398.699219 C 274.757812 398.566406 274.703125 398.4375 274.609375 398.34375 C 274.515625 398.25 274.390625 398.199219 274.261719 398.199219 " fill-opacity="1" fill-rule="nonzero"/><path fill="#212121" d="M 281.140625 398.074219 C 281.011719 398.074219 280.886719 398.125 280.792969 398.21875 C 280.699219 398.3125 280.644531 398.433594 280.644531 398.570312 L 280.558594 409.292969 C 280.558594 409.585938 280.800781 409.832031 281.097656 409.832031 C 281.394531 409.832031 281.632812 409.585938 281.632812 409.292969 L 281.636719 398.574219 C 281.640625 398.300781 281.417969 398.078125 281.140625 398.074219 " fill-opacity="1" fill-rule="nonzero"/><path fill="#212121" d="M 288.195312 398.207031 C 288.070312 398.207031 287.933594 398.253906 287.839844 398.347656 C 287.746094 398.441406 287.695312 398.570312 287.695312 398.699219 L 287.609375 409.425781 C 287.609375 409.722656 287.847656 409.960938 288.144531 409.960938 C 288.441406 409.960938 288.683594 409.722656 288.683594 409.425781 L 288.691406 398.707031 C 288.691406 398.574219 288.636719 398.445312 288.542969 398.351562 C 288.449219 398.257812 288.328125 398.207031 288.195312 398.207031 " fill-opacity="1" fill-rule="nonzero"/><path fill="#212121" d="M 295.242188 398.335938 C 294.96875 398.335938 294.746094 398.558594 294.742188 398.832031 L 294.65625 409.554688 C 294.65625 409.851562 294.898438 410.097656 295.195312 410.097656 C 295.492188 410.097656 295.734375 409.851562 295.734375 409.554688 L 295.738281 398.835938 C 295.742188 398.566406 295.519531 398.339844 295.242188 398.335938 " fill-opacity="1" fill-rule="nonzero"/><path fill="#212121" d="M 302.644531 398.617188 C 302.550781 398.519531 302.425781 398.472656 302.296875 398.46875 C 302.15625 398.476562 302.035156 398.519531 301.941406 398.613281 C 301.847656 398.707031 301.796875 398.828125 301.796875 398.960938 L 301.707031 409.6875 C 301.707031 409.984375 301.949219 410.226562 302.246094 410.226562 C 302.542969 410.226562 302.78125 409.984375 302.78125 409.6875 L 302.789062 398.972656 C 302.789062 398.835938 302.738281 398.710938 302.644531 398.617188 " fill-opacity="1" fill-rule="nonzero"/><path fill="#212121" d="M 365.457031 396.800781 C 369.691406 396.800781 373.136719 400.183594 373.136719 404.347656 C 373.136719 408.515625 369.691406 411.894531 365.457031 411.894531 C 361.222656 411.894531 357.78125 408.515625 357.78125 404.347656 C 357.78125 400.183594 361.222656 396.800781 365.457031 396.800781 " fill-opacity="1" fill-rule="evenodd"/><g clip-path="url(#54a49866d3)"><path fill="#fd7f42" d="M 371.773438 490.234375 C 374.363281 490.433594 378.863281 489.933594 380.941406 491.5625 C 382.699219 492.941406 382.976562 495.984375 383.042969 497.988281 C 383.183594 502.609375 382.882812 506.492188 382.972656 511.117188 C 383.011719 513.296875 382.921875 517.71875 382.835938 521.140625 C 382.773438 523.671875 382.144531 526.554688 375.125 526.628906 C 366.609375 526.71875 275.898438 526.378906 258.648438 526.214844 C 251.292969 526.144531 252.007812 520.773438 251.9375 517.421875 C 251.796875 510.875 252.164062 506.332031 251.984375 497.84375 C 251.929688 495.042969 251.785156 489.234375 259.828125 489.609375 C 262.402344 489.726562 344.175781 490.011719 371.773438 490.234375 " fill-opacity="1" fill-rule="evenodd"/></g><path fill="#ffffff" d="M 306.421875 497.75 L 263.304688 497.75 L 263.304688 519.421875 L 306.421875 519.421875 L 306.421875 497.75 " fill-opacity="1" fill-rule="evenodd"/><path fill="#212121" d="M 270.527344 502.171875 C 270.257812 502.175781 270.027344 502.394531 270.027344 502.667969 L 269.945312 513.394531 C 269.945312 513.691406 270.183594 513.929688 270.480469 513.929688 C 270.777344 513.929688 271.015625 513.691406 271.015625 513.394531 L 271.023438 502.675781 C 271.023438 502.398438 270.800781 502.175781 270.527344 502.171875 " fill-opacity="1" fill-rule="nonzero"/><path fill="#212121" d="M 277.414062 502.050781 C 277.289062 502.054688 277.15625 502.101562 277.0625 502.195312 C 276.96875 502.289062 276.914062 502.410156 276.914062 502.546875 L 276.828125 513.273438 C 276.828125 513.566406 277.070312 513.808594 277.367188 513.808594 C 277.664062 513.808594 277.902344 513.566406 277.902344 513.273438 L 277.910156 502.554688 C 277.910156 502.417969 277.859375 502.292969 277.765625 502.199219 C 277.671875 502.101562 277.550781 502.054688 277.414062 502.050781 " fill-opacity="1" fill-rule="nonzero"/><path fill="#212121" d="M 284.464844 502.183594 C 284.1875 502.183594 283.964844 502.402344 283.964844 502.675781 L 283.878906 513.402344 C 283.878906 513.699219 284.117188 513.9375 284.414062 513.9375 C 284.710938 513.9375 284.953125 513.699219 284.953125 513.402344 L 284.957031 502.683594 C 284.957031 502.40625 284.738281 502.183594 284.464844 502.183594 " fill-opacity="1" fill-rule="nonzero"/><path fill="#212121" d="M 291.515625 502.3125 C 291.375 502.3125 291.253906 502.363281 291.160156 502.457031 C 291.066406 502.550781 291.015625 502.675781 291.015625 502.808594 L 290.925781 513.53125 C 290.925781 513.828125 291.167969 514.074219 291.464844 514.074219 C 291.757812 514.074219 292.003906 513.828125 292.003906 513.53125 L 292.007812 502.8125 C 292.007812 502.679688 291.957031 502.558594 291.863281 502.460938 C 291.769531 502.367188 291.644531 502.3125 291.515625 502.3125 " fill-opacity="1" fill-rule="nonzero"/><path fill="#212121" d="M 298.5625 502.445312 C 298.5625 502.445312 298.5625 502.445312 298.558594 502.445312 C 298.289062 502.445312 298.0625 502.667969 298.0625 502.941406 L 297.976562 513.667969 C 297.976562 513.957031 298.21875 514.203125 298.515625 514.203125 C 298.8125 514.203125 299.050781 513.957031 299.050781 513.667969 L 299.058594 502.949219 C 299.058594 502.671875 298.839844 502.449219 298.5625 502.445312 " fill-opacity="1" fill-rule="nonzero"/><path fill="#212121" d="M 361.726562 500.777344 C 365.964844 500.777344 369.398438 504.160156 369.398438 508.324219 C 369.398438 512.492188 365.964844 515.875 361.726562 515.875 C 357.496094 515.875 354.050781 512.492188 354.050781 508.324219 C 354.050781 504.160156 357.496094 500.777344 361.726562 500.777344 " fill-opacity="1" fill-rule="evenodd"/></svg>